# Blender 4.3.1
# www.blender.org
mtllib Bodenplatte.mtl
o Cube
v 0.000000 0.000000 0.000000
v 0.000000 0.200000 0.000000
v 0.000000 0.000000 -6.000000
v 0.000000 0.200000 -6.000000
v 13.000000 0.000000 0.000000
v 13.000000 0.200000 0.000000
v 13.000000 0.000000 -6.000000
v 13.000000 0.200000 -6.000000
v 0.500000 0.150000 -5.750000
v 0.500000 0.550000 -5.750000
v 0.548773 0.150000 -5.745196
v 0.548773 0.550000 -5.745196
v 0.595671 0.150000 -5.730970
v 0.595671 0.550000 -5.730970
v 0.638893 0.150000 -5.707868
v 0.638893 0.550000 -5.707868
v 0.676777 0.150000 -5.676777
v 0.676777 0.550000 -5.676777
v 0.707868 0.150000 -5.638893
v 0.707868 0.550000 -5.638893
v 0.730970 0.150000 -5.595671
v 0.730970 0.550000 -5.595671
v 0.745197 0.150000 -5.548773
v 0.745197 0.550000 -5.548773
v 0.750000 0.150000 -5.500000
v 0.750000 0.550000 -5.500000
v 0.745197 0.150000 -5.451228
v 0.745197 0.550000 -5.451228
v 0.730970 0.150000 -5.404329
v 0.730970 0.550000 -5.404329
v 0.707868 0.150000 -5.361108
v 0.707868 0.550000 -5.361108
v 0.676777 0.150000 -5.323224
v 0.676777 0.550000 -5.323224
v 0.638893 0.150000 -5.292133
v 0.638893 0.550000 -5.292133
v 0.595671 0.150000 -5.269031
v 0.595671 0.550000 -5.269031
v 0.548773 0.150000 -5.254804
v 0.548773 0.550000 -5.254804
v 0.500000 0.150000 -5.250000
v 0.500000 0.550000 -5.250000
v 0.451228 0.150000 -5.254804
v 0.451228 0.550000 -5.254804
v 0.404329 0.150000 -5.269031
v 0.404329 0.550000 -5.269031
v 0.361108 0.150000 -5.292133
v 0.361108 0.550000 -5.292133
v 0.323224 0.150000 -5.323224
v 0.323224 0.550000 -5.323224
v 0.292133 0.150000 -5.361108
v 0.292133 0.550000 -5.361108
v 0.269031 0.150000 -5.404329
v 0.269031 0.550000 -5.404329
v 0.254804 0.150000 -5.451228
v 0.254804 0.550000 -5.451228
v 0.250000 0.150000 -5.500000
v 0.250000 0.550000 -5.500000
v 0.254804 0.150000 -5.548773
v 0.254804 0.550000 -5.548773
v 0.269031 0.150000 -5.595671
v 0.269031 0.550000 -5.595671
v 0.292133 0.150000 -5.638893
v 0.292133 0.550000 -5.638893
v 0.323224 0.150000 -5.676777
v 0.323224 0.550000 -5.676777
v 0.361108 0.150000 -5.707868
v 0.361108 0.550000 -5.707868
v 0.404329 0.150000 -5.730970
v 0.404329 0.550000 -5.730970
v 0.451228 0.150000 -5.745196
v 0.451228 0.550000 -5.745196
v 2.500000 0.150000 -5.750000
v 2.500000 0.550000 -5.750000
v 2.548773 0.150000 -5.745196
v 2.548773 0.550000 -5.745196
v 2.595671 0.150000 -5.730970
v 2.595671 0.550000 -5.730970
v 2.638893 0.150000 -5.707868
v 2.638893 0.550000 -5.707868
v 2.676777 0.150000 -5.676777
v 2.676777 0.550000 -5.676777
v 2.707868 0.150000 -5.638893
v 2.707868 0.550000 -5.638893
v 2.730970 0.150000 -5.595671
v 2.730970 0.550000 -5.595671
v 2.745197 0.150000 -5.548773
v 2.745197 0.550000 -5.548773
v 2.750000 0.150000 -5.500000
v 2.750000 0.550000 -5.500000
v 2.745197 0.150000 -5.451228
v 2.745197 0.550000 -5.451228
v 2.730970 0.150000 -5.404329
v 2.730970 0.550000 -5.404329
v 2.707868 0.150000 -5.361108
v 2.707868 0.550000 -5.361108
v 2.676777 0.150000 -5.323224
v 2.676777 0.550000 -5.323224
v 2.638893 0.150000 -5.292133
v 2.638893 0.550000 -5.292133
v 2.595671 0.150000 -5.269031
v 2.595671 0.550000 -5.269031
v 2.548773 0.150000 -5.254804
v 2.548773 0.550000 -5.254804
v 2.500000 0.150000 -5.250000
v 2.500000 0.550000 -5.250000
v 2.451228 0.150000 -5.254804
v 2.451228 0.550000 -5.254804
v 2.404329 0.150000 -5.269031
v 2.404329 0.550000 -5.269031
v 2.361108 0.150000 -5.292133
v 2.361108 0.550000 -5.292133
v 2.323224 0.150000 -5.323224
v 2.323224 0.550000 -5.323224
v 2.292133 0.150000 -5.361108
v 2.292133 0.550000 -5.361108
v 2.269030 0.150000 -5.404329
v 2.269030 0.550000 -5.404329
v 2.254804 0.150000 -5.451228
v 2.254804 0.550000 -5.451228
v 2.250000 0.150000 -5.500000
v 2.250000 0.550000 -5.500000
v 2.254804 0.150000 -5.548773
v 2.254804 0.550000 -5.548773
v 2.269030 0.150000 -5.595671
v 2.269030 0.550000 -5.595671
v 2.292133 0.150000 -5.638893
v 2.292133 0.550000 -5.638893
v 2.323224 0.150000 -5.676777
v 2.323224 0.550000 -5.676777
v 2.361108 0.150000 -5.707868
v 2.361108 0.550000 -5.707868
v 2.404329 0.150000 -5.730970
v 2.404329 0.550000 -5.730970
v 2.451228 0.150000 -5.745196
v 2.451228 0.550000 -5.745196
v 12.500000 0.150000 -5.750000
v 12.500000 0.550000 -5.750000
v 12.548773 0.150000 -5.745196
v 12.548773 0.550000 -5.745196
v 12.595671 0.150000 -5.730970
v 12.595671 0.550000 -5.730970
v 12.638893 0.150000 -5.707868
v 12.638893 0.550000 -5.707868
v 12.676777 0.150000 -5.676777
v 12.676777 0.550000 -5.676777
v 12.707868 0.150000 -5.638893
v 12.707868 0.550000 -5.638893
v 12.730970 0.150000 -5.595671
v 12.730970 0.550000 -5.595671
v 12.745196 0.150000 -5.548773
v 12.745196 0.550000 -5.548773
v 12.750000 0.150000 -5.500000
v 12.750000 0.550000 -5.500000
v 12.745196 0.150000 -5.451228
v 12.745196 0.550000 -5.451228
v 12.730970 0.150000 -5.404329
v 12.730970 0.550000 -5.404329
v 12.707868 0.150000 -5.361108
v 12.707868 0.550000 -5.361108
v 12.676777 0.150000 -5.323224
v 12.676777 0.550000 -5.323224
v 12.638893 0.150000 -5.292133
v 12.638893 0.550000 -5.292133
v 12.595671 0.150000 -5.269031
v 12.595671 0.550000 -5.269031
v 12.548773 0.150000 -5.254804
v 12.548773 0.550000 -5.254804
v 12.500000 0.150000 -5.250000
v 12.500000 0.550000 -5.250000
v 12.451227 0.150000 -5.254804
v 12.451227 0.550000 -5.254804
v 12.404329 0.150000 -5.269031
v 12.404329 0.550000 -5.269031
v 12.361107 0.150000 -5.292133
v 12.361107 0.550000 -5.292133
v 12.323223 0.150000 -5.323224
v 12.323223 0.550000 -5.323224
v 12.292132 0.150000 -5.361108
v 12.292132 0.550000 -5.361108
v 12.269030 0.150000 -5.404329
v 12.269030 0.550000 -5.404329
v 12.254804 0.150000 -5.451228
v 12.254804 0.550000 -5.451228
v 12.250000 0.150000 -5.500000
v 12.250000 0.550000 -5.500000
v 12.254804 0.150000 -5.548773
v 12.254804 0.550000 -5.548773
v 12.269030 0.150000 -5.595671
v 12.269030 0.550000 -5.595671
v 12.292132 0.150000 -5.638893
v 12.292132 0.550000 -5.638893
v 12.323223 0.150000 -5.676777
v 12.323223 0.550000 -5.676777
v 12.361107 0.150000 -5.707868
v 12.361107 0.550000 -5.707868
v 12.404329 0.150000 -5.730970
v 12.404329 0.550000 -5.730970
v 12.451227 0.150000 -5.745196
v 12.451227 0.550000 -5.745196
v 10.500000 0.150000 -5.750000
v 10.500000 0.550000 -5.750000
v 10.548773 0.150000 -5.745196
v 10.548773 0.550000 -5.745196
v 10.595671 0.150000 -5.730970
v 10.595671 0.550000 -5.730970
v 10.638893 0.150000 -5.707868
v 10.638893 0.550000 -5.707868
v 10.676777 0.150000 -5.676777
v 10.676777 0.550000 -5.676777
v 10.707868 0.150000 -5.638893
v 10.707868 0.550000 -5.638893
v 10.730970 0.150000 -5.595671
v 10.730970 0.550000 -5.595671
v 10.745196 0.150000 -5.548773
v 10.745196 0.550000 -5.548773
v 10.750000 0.150000 -5.500000
v 10.750000 0.550000 -5.500000
v 10.745196 0.150000 -5.451228
v 10.745196 0.550000 -5.451228
v 10.730970 0.150000 -5.404329
v 10.730970 0.550000 -5.404329
v 10.707868 0.150000 -5.361108
v 10.707868 0.550000 -5.361108
v 10.676777 0.150000 -5.323224
v 10.676777 0.550000 -5.323224
v 10.638893 0.150000 -5.292133
v 10.638893 0.550000 -5.292133
v 10.595671 0.150000 -5.269031
v 10.595671 0.550000 -5.269031
v 10.548773 0.150000 -5.254804
v 10.548773 0.550000 -5.254804
v 10.500000 0.150000 -5.250000
v 10.500000 0.550000 -5.250000
v 10.451227 0.150000 -5.254804
v 10.451227 0.550000 -5.254804
v 10.404329 0.150000 -5.269031
v 10.404329 0.550000 -5.269031
v 10.361108 0.150000 -5.292133
v 10.361108 0.550000 -5.292133
v 10.323223 0.150000 -5.323224
v 10.323223 0.550000 -5.323224
v 10.292132 0.150000 -5.361108
v 10.292132 0.550000 -5.361108
v 10.269030 0.150000 -5.404329
v 10.269030 0.550000 -5.404329
v 10.254804 0.150000 -5.451228
v 10.254804 0.550000 -5.451228
v 10.250000 0.150000 -5.500000
v 10.250000 0.550000 -5.500000
v 10.254804 0.150000 -5.548773
v 10.254804 0.550000 -5.548773
v 10.269030 0.150000 -5.595671
v 10.269030 0.550000 -5.595671
v 10.292132 0.150000 -5.638893
v 10.292132 0.550000 -5.638893
v 10.323223 0.150000 -5.676777
v 10.323223 0.550000 -5.676777
v 10.361108 0.150000 -5.707868
v 10.361108 0.550000 -5.707868
v 10.404329 0.150000 -5.730970
v 10.404329 0.550000 -5.730970
v 10.451227 0.150000 -5.745196
v 10.451227 0.550000 -5.745196
v 0.500000 0.150000 -0.750000
v 0.500000 0.550000 -0.750000
v 0.548773 0.150000 -0.745197
v 0.548773 0.550000 -0.745197
v 0.595671 0.150000 -0.730970
v 0.595671 0.550000 -0.730970
v 0.638893 0.150000 -0.707868
v 0.638893 0.550000 -0.707868
v 0.676777 0.150000 -0.676777
v 0.676777 0.550000 -0.676777
v 0.707868 0.150000 -0.638893
v 0.707868 0.550000 -0.638893
v 0.730970 0.150000 -0.595671
v 0.730970 0.550000 -0.595671
v 0.745197 0.150000 -0.548773
v 0.745197 0.550000 -0.548773
v 0.750000 0.150000 -0.500000
v 0.750000 0.550000 -0.500000
v 0.745197 0.150000 -0.451228
v 0.745197 0.550000 -0.451228
v 0.730970 0.150000 -0.404329
v 0.730970 0.550000 -0.404329
v 0.707868 0.150000 -0.361108
v 0.707868 0.550000 -0.361108
v 0.676777 0.150000 -0.323224
v 0.676777 0.550000 -0.323224
v 0.638893 0.150000 -0.292133
v 0.638893 0.550000 -0.292133
v 0.595671 0.150000 -0.269030
v 0.595671 0.550000 -0.269030
v 0.548773 0.150000 -0.254804
v 0.548773 0.550000 -0.254804
v 0.500000 0.150000 -0.250000
v 0.500000 0.550000 -0.250000
v 0.451228 0.150000 -0.254804
v 0.451228 0.550000 -0.254804
v 0.404329 0.150000 -0.269030
v 0.404329 0.550000 -0.269030
v 0.361108 0.150000 -0.292133
v 0.361108 0.550000 -0.292133
v 0.323224 0.150000 -0.323224
v 0.323224 0.550000 -0.323224
v 0.292133 0.150000 -0.361108
v 0.292133 0.550000 -0.361108
v 0.269031 0.150000 -0.404329
v 0.269031 0.550000 -0.404329
v 0.254804 0.150000 -0.451228
v 0.254804 0.550000 -0.451228
v 0.250000 0.150000 -0.500000
v 0.250000 0.550000 -0.500000
v 0.254804 0.150000 -0.548773
v 0.254804 0.550000 -0.548773
v 0.269031 0.150000 -0.595671
v 0.269031 0.550000 -0.595671
v 0.292133 0.150000 -0.638893
v 0.292133 0.550000 -0.638893
v 0.323224 0.150000 -0.676777
v 0.323224 0.550000 -0.676777
v 0.361108 0.150000 -0.707868
v 0.361108 0.550000 -0.707868
v 0.404329 0.150000 -0.730970
v 0.404329 0.550000 -0.730970
v 0.451228 0.150000 -0.745197
v 0.451228 0.550000 -0.745197
v 2.500000 0.150000 -0.750000
v 2.500000 0.550000 -0.750000
v 2.548773 0.150000 -0.745197
v 2.548773 0.550000 -0.745197
v 2.595671 0.150000 -0.730970
v 2.595671 0.550000 -0.730970
v 2.638893 0.150000 -0.707868
v 2.638893 0.550000 -0.707868
v 2.676777 0.150000 -0.676777
v 2.676777 0.550000 -0.676777
v 2.707868 0.150000 -0.638893
v 2.707868 0.550000 -0.638893
v 2.730970 0.150000 -0.595671
v 2.730970 0.550000 -0.595671
v 2.745197 0.150000 -0.548773
v 2.745197 0.550000 -0.548773
v 2.750000 0.150000 -0.500000
v 2.750000 0.550000 -0.500000
v 2.745197 0.150000 -0.451228
v 2.745197 0.550000 -0.451228
v 2.730970 0.150000 -0.404329
v 2.730970 0.550000 -0.404329
v 2.707868 0.150000 -0.361108
v 2.707868 0.550000 -0.361108
v 2.676777 0.150000 -0.323224
v 2.676777 0.550000 -0.323224
v 2.638893 0.150000 -0.292133
v 2.638893 0.550000 -0.292133
v 2.595671 0.150000 -0.269030
v 2.595671 0.550000 -0.269030
v 2.548773 0.150000 -0.254804
v 2.548773 0.550000 -0.254804
v 2.500000 0.150000 -0.250000
v 2.500000 0.550000 -0.250000
v 2.451228 0.150000 -0.254804
v 2.451228 0.550000 -0.254804
v 2.404329 0.150000 -0.269030
v 2.404329 0.550000 -0.269030
v 2.361108 0.150000 -0.292133
v 2.361108 0.550000 -0.292133
v 2.323224 0.150000 -0.323224
v 2.323224 0.550000 -0.323224
v 2.292133 0.150000 -0.361108
v 2.292133 0.550000 -0.361108
v 2.269030 0.150000 -0.404329
v 2.269030 0.550000 -0.404329
v 2.254804 0.150000 -0.451228
v 2.254804 0.550000 -0.451228
v 2.250000 0.150000 -0.500000
v 2.250000 0.550000 -0.500000
v 2.254804 0.150000 -0.548773
v 2.254804 0.550000 -0.548773
v 2.269030 0.150000 -0.595671
v 2.269030 0.550000 -0.595671
v 2.292133 0.150000 -0.638893
v 2.292133 0.550000 -0.638893
v 2.323224 0.150000 -0.676777
v 2.323224 0.550000 -0.676777
v 2.361108 0.150000 -0.707868
v 2.361108 0.550000 -0.707868
v 2.404329 0.150000 -0.730970
v 2.404329 0.550000 -0.730970
v 2.451228 0.150000 -0.745197
v 2.451228 0.550000 -0.745197
v 12.500000 0.150000 -0.750000
v 12.500000 0.550000 -0.750000
v 12.548773 0.150000 -0.745197
v 12.548773 0.550000 -0.745197
v 12.595671 0.150000 -0.730970
v 12.595671 0.550000 -0.730970
v 12.638893 0.150000 -0.707868
v 12.638893 0.550000 -0.707868
v 12.676777 0.150000 -0.676777
v 12.676777 0.550000 -0.676777
v 12.707868 0.150000 -0.638893
v 12.707868 0.550000 -0.638893
v 12.730970 0.150000 -0.595671
v 12.730970 0.550000 -0.595671
v 12.745196 0.150000 -0.548773
v 12.745196 0.550000 -0.548773
v 12.750000 0.150000 -0.500000
v 12.750000 0.550000 -0.500000
v 12.745196 0.150000 -0.451228
v 12.745196 0.550000 -0.451228
v 12.730970 0.150000 -0.404329
v 12.730970 0.550000 -0.404329
v 12.707868 0.150000 -0.361108
v 12.707868 0.550000 -0.361108
v 12.676777 0.150000 -0.323224
v 12.676777 0.550000 -0.323224
v 12.638893 0.150000 -0.292133
v 12.638893 0.550000 -0.292133
v 12.595671 0.150000 -0.269030
v 12.595671 0.550000 -0.269030
v 12.548773 0.150000 -0.254804
v 12.548773 0.550000 -0.254804
v 12.500000 0.150000 -0.250000
v 12.500000 0.550000 -0.250000
v 12.451227 0.150000 -0.254804
v 12.451227 0.550000 -0.254804
v 12.404329 0.150000 -0.269030
v 12.404329 0.550000 -0.269030
v 12.361107 0.150000 -0.292133
v 12.361107 0.550000 -0.292133
v 12.323223 0.150000 -0.323224
v 12.323223 0.550000 -0.323224
v 12.292132 0.150000 -0.361108
v 12.292132 0.550000 -0.361108
v 12.269030 0.150000 -0.404329
v 12.269030 0.550000 -0.404329
v 12.254804 0.150000 -0.451228
v 12.254804 0.550000 -0.451228
v 12.250000 0.150000 -0.500000
v 12.250000 0.550000 -0.500000
v 12.254804 0.150000 -0.548773
v 12.254804 0.550000 -0.548773
v 12.269030 0.150000 -0.595671
v 12.269030 0.550000 -0.595671
v 12.292132 0.150000 -0.638893
v 12.292132 0.550000 -0.638893
v 12.323223 0.150000 -0.676777
v 12.323223 0.550000 -0.676777
v 12.361107 0.150000 -0.707868
v 12.361107 0.550000 -0.707868
v 12.404329 0.150000 -0.730970
v 12.404329 0.550000 -0.730970
v 12.451227 0.150000 -0.745197
v 12.451227 0.550000 -0.745197
v 10.500000 0.150000 -0.750000
v 10.500000 0.550000 -0.750000
v 10.548773 0.150000 -0.745197
v 10.548773 0.550000 -0.745197
v 10.595671 0.150000 -0.730970
v 10.595671 0.550000 -0.730970
v 10.638893 0.150000 -0.707868
v 10.638893 0.550000 -0.707868
v 10.676777 0.150000 -0.676777
v 10.676777 0.550000 -0.676777
v 10.707868 0.150000 -0.638893
v 10.707868 0.550000 -0.638893
v 10.730970 0.150000 -0.595671
v 10.730970 0.550000 -0.595671
v 10.745196 0.150000 -0.548773
v 10.745196 0.550000 -0.548773
v 10.750000 0.150000 -0.500000
v 10.750000 0.550000 -0.500000
v 10.745196 0.150000 -0.451228
v 10.745196 0.550000 -0.451228
v 10.730970 0.150000 -0.404329
v 10.730970 0.550000 -0.404329
v 10.707868 0.150000 -0.361108
v 10.707868 0.550000 -0.361108
v 10.676777 0.150000 -0.323224
v 10.676777 0.550000 -0.323224
v 10.638893 0.150000 -0.292133
v 10.638893 0.550000 -0.292133
v 10.595671 0.150000 -0.269030
v 10.595671 0.550000 -0.269030
v 10.548773 0.150000 -0.254804
v 10.548773 0.550000 -0.254804
v 10.500000 0.150000 -0.250000
v 10.500000 0.550000 -0.250000
v 10.451227 0.150000 -0.254804
v 10.451227 0.550000 -0.254804
v 10.404329 0.150000 -0.269030
v 10.404329 0.550000 -0.269030
v 10.361108 0.150000 -0.292133
v 10.361108 0.550000 -0.292133
v 10.323223 0.150000 -0.323224
v 10.323223 0.550000 -0.323224
v 10.292132 0.150000 -0.361108
v 10.292132 0.550000 -0.361108
v 10.269030 0.150000 -0.404329
v 10.269030 0.550000 -0.404329
v 10.254804 0.150000 -0.451228
v 10.254804 0.550000 -0.451228
v 10.250000 0.150000 -0.500000
v 10.250000 0.550000 -0.500000
v 10.254804 0.150000 -0.548773
v 10.254804 0.550000 -0.548773
v 10.269030 0.150000 -0.595671
v 10.269030 0.550000 -0.595671
v 10.292132 0.150000 -0.638893
v 10.292132 0.550000 -0.638893
v 10.323223 0.150000 -0.676777
v 10.323223 0.550000 -0.676777
v 10.361108 0.150000 -0.707868
v 10.361108 0.550000 -0.707868
v 10.404329 0.150000 -0.730970
v 10.404329 0.550000 -0.730970
v 10.451227 0.150000 -0.745197
v 10.451227 0.550000 -0.745197
vn -1.0000 -0.0000 -0.0000
vn -0.0000 -0.0000 -1.0000
vn 1.0000 -0.0000 -0.0000
vn -0.0000 -0.0000 1.0000
vn -0.0000 -1.0000 -0.0000
vn -0.0000 1.0000 -0.0000
vn 0.0980 -0.0000 -0.9952
vn 0.2903 -0.0000 -0.9569
vn 0.4714 -0.0000 -0.8819
vn 0.6344 -0.0000 -0.7730
vn 0.7730 -0.0000 -0.6344
vn 0.8819 -0.0000 -0.4714
vn 0.9569 -0.0000 -0.2903
vn 0.9952 -0.0000 -0.0980
vn 0.9952 -0.0000 0.0980
vn 0.9569 -0.0000 0.2903
vn 0.8819 -0.0000 0.4714
vn 0.7730 -0.0000 0.6344
vn 0.6344 -0.0000 0.7730
vn 0.4714 -0.0000 0.8819
vn 0.2903 -0.0000 0.9569
vn 0.0980 -0.0000 0.9952
vn -0.0980 -0.0000 0.9952
vn -0.2903 -0.0000 0.9569
vn -0.4714 -0.0000 0.8819
vn -0.6344 -0.0000 0.7730
vn -0.7730 -0.0000 0.6344
vn -0.8819 -0.0000 0.4714
vn -0.9569 -0.0000 0.2903
vn -0.9952 -0.0000 0.0980
vn -0.9952 -0.0000 -0.0980
vn -0.9569 -0.0000 -0.2903
vn -0.8819 -0.0000 -0.4714
vn -0.7730 -0.0000 -0.6344
vn -0.6344 -0.0000 -0.7730
vn -0.4714 -0.0000 -0.8819
vn -0.2903 -0.0000 -0.9569
vn -0.0980 -0.0000 -0.9952
vt 0.375000 0.000000
vt 0.625000 0.000000
vt 0.625000 0.250000
vt 0.375000 0.250000
vt 0.625000 0.500000
vt 0.375000 0.500000
vt 0.625000 0.750000
vt 0.375000 0.750000
vt 0.625000 1.000000
vt 0.375000 1.000000
vt 0.125000 0.500000
vt 0.125000 0.750000
vt 0.875000 0.500000
vt 0.875000 0.750000
vt 1.000000 0.500000
vt 1.000000 1.000000
vt 0.968750 1.000000
vt 0.968750 0.500000
vt 0.937500 1.000000
vt 0.937500 0.500000
vt 0.906250 1.000000
vt 0.906250 0.500000
vt 0.875000 1.000000
vt 0.843750 1.000000
vt 0.843750 0.500000
vt 0.812500 1.000000
vt 0.812500 0.500000
vt 0.781250 1.000000
vt 0.781250 0.500000
vt 0.750000 1.000000
vt 0.750000 0.500000
vt 0.718750 1.000000
vt 0.718750 0.500000
vt 0.687500 1.000000
vt 0.687500 0.500000
vt 0.656250 1.000000
vt 0.656250 0.500000
vt 0.593750 1.000000
vt 0.593750 0.500000
vt 0.562500 1.000000
vt 0.562500 0.500000
vt 0.531250 1.000000
vt 0.531250 0.500000
vt 0.500000 1.000000
vt 0.500000 0.500000
vt 0.468750 1.000000
vt 0.468750 0.500000
vt 0.437500 1.000000
vt 0.437500 0.500000
vt 0.406250 1.000000
vt 0.406250 0.500000
vt 0.343750 1.000000
vt 0.343750 0.500000
vt 0.312500 1.000000
vt 0.312500 0.500000
vt 0.281250 1.000000
vt 0.281250 0.500000
vt 0.250000 1.000000
vt 0.250000 0.500000
vt 0.218750 1.000000
vt 0.218750 0.500000
vt 0.187500 1.000000
vt 0.187500 0.500000
vt 0.156250 1.000000
vt 0.156250 0.500000
vt 0.125000 1.000000
vt 0.093750 1.000000
vt 0.093750 0.500000
vt 0.062500 1.000000
vt 0.062500 0.500000
vt 0.296822 0.485388
vt 0.250000 0.490000
vt 0.203178 0.485388
vt 0.158156 0.471731
vt 0.116663 0.449553
vt 0.080294 0.419706
vt 0.050447 0.383337
vt 0.028269 0.341844
vt 0.014612 0.296822
vt 0.010000 0.250000
vt 0.014612 0.203178
vt 0.028269 0.158156
vt 0.050447 0.116663
vt 0.080294 0.080294
vt 0.116663 0.050447
vt 0.158156 0.028269
vt 0.203178 0.014612
vt 0.250000 0.010000
vt 0.296822 0.014612
vt 0.341844 0.028269
vt 0.383337 0.050447
vt 0.419706 0.080294
vt 0.449553 0.116663
vt 0.471731 0.158156
vt 0.485388 0.203178
vt 0.490000 0.250000
vt 0.485388 0.296822
vt 0.471731 0.341844
vt 0.449553 0.383337
vt 0.419706 0.419706
vt 0.383337 0.449553
vt 0.341844 0.471731
vt 0.031250 1.000000
vt 0.031250 0.500000
vt 0.000000 1.000000
vt 0.000000 0.500000
vt 0.750000 0.490000
vt 0.796822 0.485388
vt 0.841844 0.471731
vt 0.883337 0.449553
vt 0.919706 0.419706
vt 0.949553 0.383337
vt 0.971731 0.341844
vt 0.985388 0.296822
vt 0.990000 0.250000
vt 0.985388 0.203178
vt 0.971731 0.158156
vt 0.949553 0.116663
vt 0.919706 0.080294
vt 0.883337 0.050447
vt 0.841844 0.028269
vt 0.796822 0.014612
vt 0.750000 0.010000
vt 0.703178 0.014612
vt 0.658156 0.028269
vt 0.616663 0.050447
vt 0.580294 0.080294
vt 0.550447 0.116663
vt 0.528269 0.158156
vt 0.514612 0.203178
vt 0.510000 0.250000
vt 0.514612 0.296822
vt 0.528269 0.341844
vt 0.550447 0.383337
vt 0.580294 0.419706
vt 0.616663 0.449553
vt 0.658156 0.471731
vt 0.703178 0.485388
s 0
f 1/1/1 2/2/1 4/3/1 3/4/1
f 3/4/2 4/3/2 8/5/2 7/6/2
f 7/6/3 8/5/3 6/7/3 5/8/3
f 5/8/4 6/7/4 2/9/4 1/10/4
f 3/11/5 7/6/5 5/8/5 1/12/5
f 8/5/6 4/13/6 2/14/6 6/7/6
f 9/15/7 10/16/7 12/17/7 11/18/7
f 11/18/8 12/17/8 14/19/8 13/20/8
f 13/20/9 14/19/9 16/21/9 15/22/9
f 15/22/10 16/21/10 18/23/10 17/13/10
f 17/13/11 18/23/11 20/24/11 19/25/11
f 19/25/12 20/24/12 22/26/12 21/27/12
f 21/27/13 22/26/13 24/28/13 23/29/13
f 23/29/14 24/28/14 26/30/14 25/31/14
f 25/31/15 26/30/15 28/32/15 27/33/15
f 27/33/16 28/32/16 30/34/16 29/35/16
f 29/35/17 30/34/17 32/36/17 31/37/17
f 31/37/18 32/36/18 34/9/18 33/5/18
f 33/5/19 34/9/19 36/38/19 35/39/19
f 35/39/20 36/38/20 38/40/20 37/41/20
f 37/41/21 38/40/21 40/42/21 39/43/21
f 39/43/22 40/42/22 42/44/22 41/45/22
f 41/45/23 42/44/23 44/46/23 43/47/23
f 43/47/24 44/46/24 46/48/24 45/49/24
f 45/49/25 46/48/25 48/50/25 47/51/25
f 47/51/26 48/50/26 50/10/26 49/6/26
f 49/6/27 50/10/27 52/52/27 51/53/27
f 51/53/28 52/52/28 54/54/28 53/55/28
f 53/55/29 54/54/29 56/56/29 55/57/29
f 55/57/30 56/56/30 58/58/30 57/59/30
f 57/59/31 58/58/31 60/60/31 59/61/31
f 59/61/32 60/60/32 62/62/32 61/63/32
f 61/63/33 62/62/33 64/64/33 63/65/33
f 63/65/34 64/64/34 66/66/34 65/11/34
f 65/11/35 66/66/35 68/67/35 67/68/35
f 67/68/36 68/67/36 70/69/36 69/70/36
f 12/71/6 10/72/6 72/73/6 70/74/6 68/75/6 66/76/6 64/77/6 62/78/6 60/79/6 58/80/6 56/81/6 54/82/6 52/83/6 50/84/6 48/85/6 46/86/6 44/87/6 42/88/6 40/89/6 38/90/6 36/91/6 34/92/6 32/93/6 30/94/6 28/95/6 26/96/6 24/97/6 22/98/6 20/99/6 18/100/6 16/101/6 14/102/6
f 69/70/37 70/69/37 72/103/37 71/104/37
f 71/104/38 72/103/38 10/105/38 9/106/38
f 9/107/5 11/108/5 13/109/5 15/110/5 17/111/5 19/112/5 21/113/5 23/114/5 25/115/5 27/116/5 29/117/5 31/118/5 33/119/5 35/120/5 37/121/5 39/122/5 41/123/5 43/124/5 45/125/5 47/126/5 49/127/5 51/128/5 53/129/5 55/130/5 57/131/5 59/132/5 61/133/5 63/134/5 65/135/5 67/136/5 69/137/5 71/138/5
f 73/15/7 74/16/7 76/17/7 75/18/7
f 75/18/8 76/17/8 78/19/8 77/20/8
f 77/20/9 78/19/9 80/21/9 79/22/9
f 79/22/10 80/21/10 82/23/10 81/13/10
f 81/13/11 82/23/11 84/24/11 83/25/11
f 83/25/12 84/24/12 86/26/12 85/27/12
f 85/27/13 86/26/13 88/28/13 87/29/13
f 87/29/14 88/28/14 90/30/14 89/31/14
f 89/31/15 90/30/15 92/32/15 91/33/15
f 91/33/16 92/32/16 94/34/16 93/35/16
f 93/35/17 94/34/17 96/36/17 95/37/17
f 95/37/18 96/36/18 98/9/18 97/5/18
f 97/5/19 98/9/19 100/38/19 99/39/19
f 99/39/20 100/38/20 102/40/20 101/41/20
f 101/41/21 102/40/21 104/42/21 103/43/21
f 103/43/22 104/42/22 106/44/22 105/45/22
f 105/45/23 106/44/23 108/46/23 107/47/23
f 107/47/24 108/46/24 110/48/24 109/49/24
f 109/49/25 110/48/25 112/50/25 111/51/25
f 111/51/26 112/50/26 114/10/26 113/6/26
f 113/6/27 114/10/27 116/52/27 115/53/27
f 115/53/28 116/52/28 118/54/28 117/55/28
f 117/55/29 118/54/29 120/56/29 119/57/29
f 119/57/30 120/56/30 122/58/30 121/59/30
f 121/59/31 122/58/31 124/60/31 123/61/31
f 123/61/32 124/60/32 126/62/32 125/63/32
f 125/63/33 126/62/33 128/64/33 127/65/33
f 127/65/34 128/64/34 130/66/34 129/11/34
f 129/11/35 130/66/35 132/67/35 131/68/35
f 131/68/36 132/67/36 134/69/36 133/70/36
f 76/71/6 74/72/6 136/73/6 134/74/6 132/75/6 130/76/6 128/77/6 126/78/6 124/79/6 122/80/6 120/81/6 118/82/6 116/83/6 114/84/6 112/85/6 110/86/6 108/87/6 106/88/6 104/89/6 102/90/6 100/91/6 98/92/6 96/93/6 94/94/6 92/95/6 90/96/6 88/97/6 86/98/6 84/99/6 82/100/6 80/101/6 78/102/6
f 133/70/37 134/69/37 136/103/37 135/104/37
f 135/104/38 136/103/38 74/105/38 73/106/38
f 73/107/5 75/108/5 77/109/5 79/110/5 81/111/5 83/112/5 85/113/5 87/114/5 89/115/5 91/116/5 93/117/5 95/118/5 97/119/5 99/120/5 101/121/5 103/122/5 105/123/5 107/124/5 109/125/5 111/126/5 113/127/5 115/128/5 117/129/5 119/130/5 121/131/5 123/132/5 125/133/5 127/134/5 129/135/5 131/136/5 133/137/5 135/138/5
f 137/15/7 138/16/7 140/17/7 139/18/7
f 139/18/8 140/17/8 142/19/8 141/20/8
f 141/20/9 142/19/9 144/21/9 143/22/9
f 143/22/10 144/21/10 146/23/10 145/13/10
f 145/13/11 146/23/11 148/24/11 147/25/11
f 147/25/12 148/24/12 150/26/12 149/27/12
f 149/27/13 150/26/13 152/28/13 151/29/13
f 151/29/14 152/28/14 154/30/14 153/31/14
f 153/31/15 154/30/15 156/32/15 155/33/15
f 155/33/16 156/32/16 158/34/16 157/35/16
f 157/35/17 158/34/17 160/36/17 159/37/17
f 159/37/18 160/36/18 162/9/18 161/5/18
f 161/5/19 162/9/19 164/38/19 163/39/19
f 163/39/20 164/38/20 166/40/20 165/41/20
f 165/41/21 166/40/21 168/42/21 167/43/21
f 167/43/22 168/42/22 170/44/22 169/45/22
f 169/45/23 170/44/23 172/46/23 171/47/23
f 171/47/24 172/46/24 174/48/24 173/49/24
f 173/49/25 174/48/25 176/50/25 175/51/25
f 175/51/26 176/50/26 178/10/26 177/6/26
f 177/6/27 178/10/27 180/52/27 179/53/27
f 179/53/28 180/52/28 182/54/28 181/55/28
f 181/55/29 182/54/29 184/56/29 183/57/29
f 183/57/30 184/56/30 186/58/30 185/59/30
f 185/59/31 186/58/31 188/60/31 187/61/31
f 187/61/32 188/60/32 190/62/32 189/63/32
f 189/63/33 190/62/33 192/64/33 191/65/33
f 191/65/34 192/64/34 194/66/34 193/11/34
f 193/11/35 194/66/35 196/67/35 195/68/35
f 195/68/36 196/67/36 198/69/36 197/70/36
f 140/71/6 138/72/6 200/73/6 198/74/6 196/75/6 194/76/6 192/77/6 190/78/6 188/79/6 186/80/6 184/81/6 182/82/6 180/83/6 178/84/6 176/85/6 174/86/6 172/87/6 170/88/6 168/89/6 166/90/6 164/91/6 162/92/6 160/93/6 158/94/6 156/95/6 154/96/6 152/97/6 150/98/6 148/99/6 146/100/6 144/101/6 142/102/6
f 197/70/37 198/69/37 200/103/37 199/104/37
f 199/104/38 200/103/38 138/105/38 137/106/38
f 137/107/5 139/108/5 141/109/5 143/110/5 145/111/5 147/112/5 149/113/5 151/114/5 153/115/5 155/116/5 157/117/5 159/118/5 161/119/5 163/120/5 165/121/5 167/122/5 169/123/5 171/124/5 173/125/5 175/126/5 177/127/5 179/128/5 181/129/5 183/130/5 185/131/5 187/132/5 189/133/5 191/134/5 193/135/5 195/136/5 197/137/5 199/138/5
f 201/15/7 202/16/7 204/17/7 203/18/7
f 203/18/8 204/17/8 206/19/8 205/20/8
f 205/20/9 206/19/9 208/21/9 207/22/9
f 207/22/10 208/21/10 210/23/10 209/13/10
f 209/13/11 210/23/11 212/24/11 211/25/11
f 211/25/12 212/24/12 214/26/12 213/27/12
f 213/27/13 214/26/13 216/28/13 215/29/13
f 215/29/14 216/28/14 218/30/14 217/31/14
f 217/31/15 218/30/15 220/32/15 219/33/15
f 219/33/16 220/32/16 222/34/16 221/35/16
f 221/35/17 222/34/17 224/36/17 223/37/17
f 223/37/18 224/36/18 226/9/18 225/5/18
f 225/5/19 226/9/19 228/38/19 227/39/19
f 227/39/20 228/38/20 230/40/20 229/41/20
f 229/41/21 230/40/21 232/42/21 231/43/21
f 231/43/22 232/42/22 234/44/22 233/45/22
f 233/45/23 234/44/23 236/46/23 235/47/23
f 235/47/24 236/46/24 238/48/24 237/49/24
f 237/49/25 238/48/25 240/50/25 239/51/25
f 239/51/26 240/50/26 242/10/26 241/6/26
f 241/6/27 242/10/27 244/52/27 243/53/27
f 243/53/28 244/52/28 246/54/28 245/55/28
f 245/55/29 246/54/29 248/56/29 247/57/29
f 247/57/30 248/56/30 250/58/30 249/59/30
f 249/59/31 250/58/31 252/60/31 251/61/31
f 251/61/32 252/60/32 254/62/32 253/63/32
f 253/63/33 254/62/33 256/64/33 255/65/33
f 255/65/34 256/64/34 258/66/34 257/11/34
f 257/11/35 258/66/35 260/67/35 259/68/35
f 259/68/36 260/67/36 262/69/36 261/70/36
f 204/71/6 202/72/6 264/73/6 262/74/6 260/75/6 258/76/6 256/77/6 254/78/6 252/79/6 250/80/6 248/81/6 246/82/6 244/83/6 242/84/6 240/85/6 238/86/6 236/87/6 234/88/6 232/89/6 230/90/6 228/91/6 226/92/6 224/93/6 222/94/6 220/95/6 218/96/6 216/97/6 214/98/6 212/99/6 210/100/6 208/101/6 206/102/6
f 261/70/37 262/69/37 264/103/37 263/104/37
f 263/104/38 264/103/38 202/105/38 201/106/38
f 201/107/5 203/108/5 205/109/5 207/110/5 209/111/5 211/112/5 213/113/5 215/114/5 217/115/5 219/116/5 221/117/5 223/118/5 225/119/5 227/120/5 229/121/5 231/122/5 233/123/5 235/124/5 237/125/5 239/126/5 241/127/5 243/128/5 245/129/5 247/130/5 249/131/5 251/132/5 253/133/5 255/134/5 257/135/5 259/136/5 261/137/5 263/138/5
f 265/15/7 266/16/7 268/17/7 267/18/7
f 267/18/8 268/17/8 270/19/8 269/20/8
f 269/20/9 270/19/9 272/21/9 271/22/9
f 271/22/10 272/21/10 274/23/10 273/13/10
f 273/13/11 274/23/11 276/24/11 275/25/11
f 275/25/12 276/24/12 278/26/12 277/27/12
f 277/27/13 278/26/13 280/28/13 279/29/13
f 279/29/14 280/28/14 282/30/14 281/31/14
f 281/31/15 282/30/15 284/32/15 283/33/15
f 283/33/16 284/32/16 286/34/16 285/35/16
f 285/35/17 286/34/17 288/36/17 287/37/17
f 287/37/18 288/36/18 290/9/18 289/5/18
f 289/5/19 290/9/19 292/38/19 291/39/19
f 291/39/20 292/38/20 294/40/20 293/41/20
f 293/41/21 294/40/21 296/42/21 295/43/21
f 295/43/22 296/42/22 298/44/22 297/45/22
f 297/45/23 298/44/23 300/46/23 299/47/23
f 299/47/24 300/46/24 302/48/24 301/49/24
f 301/49/25 302/48/25 304/50/25 303/51/25
f 303/51/26 304/50/26 306/10/26 305/6/26
f 305/6/27 306/10/27 308/52/27 307/53/27
f 307/53/28 308/52/28 310/54/28 309/55/28
f 309/55/29 310/54/29 312/56/29 311/57/29
f 311/57/30 312/56/30 314/58/30 313/59/30
f 313/59/31 314/58/31 316/60/31 315/61/31
f 315/61/32 316/60/32 318/62/32 317/63/32
f 317/63/33 318/62/33 320/64/33 319/65/33
f 319/65/34 320/64/34 322/66/34 321/11/34
f 321/11/35 322/66/35 324/67/35 323/68/35
f 323/68/36 324/67/36 326/69/36 325/70/36
f 268/71/6 266/72/6 328/73/6 326/74/6 324/75/6 322/76/6 320/77/6 318/78/6 316/79/6 314/80/6 312/81/6 310/82/6 308/83/6 306/84/6 304/85/6 302/86/6 300/87/6 298/88/6 296/89/6 294/90/6 292/91/6 290/92/6 288/93/6 286/94/6 284/95/6 282/96/6 280/97/6 278/98/6 276/99/6 274/100/6 272/101/6 270/102/6
f 325/70/37 326/69/37 328/103/37 327/104/37
f 327/104/38 328/103/38 266/105/38 265/106/38
f 265/107/5 267/108/5 269/109/5 271/110/5 273/111/5 275/112/5 277/113/5 279/114/5 281/115/5 283/116/5 285/117/5 287/118/5 289/119/5 291/120/5 293/121/5 295/122/5 297/123/5 299/124/5 301/125/5 303/126/5 305/127/5 307/128/5 309/129/5 311/130/5 313/131/5 315/132/5 317/133/5 319/134/5 321/135/5 323/136/5 325/137/5 327/138/5
f 329/15/7 330/16/7 332/17/7 331/18/7
f 331/18/8 332/17/8 334/19/8 333/20/8
f 333/20/9 334/19/9 336/21/9 335/22/9
f 335/22/10 336/21/10 338/23/10 337/13/10
f 337/13/11 338/23/11 340/24/11 339/25/11
f 339/25/12 340/24/12 342/26/12 341/27/12
f 341/27/13 342/26/13 344/28/13 343/29/13
f 343/29/14 344/28/14 346/30/14 345/31/14
f 345/31/15 346/30/15 348/32/15 347/33/15
f 347/33/16 348/32/16 350/34/16 349/35/16
f 349/35/17 350/34/17 352/36/17 351/37/17
f 351/37/18 352/36/18 354/9/18 353/5/18
f 353/5/19 354/9/19 356/38/19 355/39/19
f 355/39/20 356/38/20 358/40/20 357/41/20
f 357/41/21 358/40/21 360/42/21 359/43/21
f 359/43/22 360/42/22 362/44/22 361/45/22
f 361/45/23 362/44/23 364/46/23 363/47/23
f 363/47/24 364/46/24 366/48/24 365/49/24
f 365/49/25 366/48/25 368/50/25 367/51/25
f 367/51/26 368/50/26 370/10/26 369/6/26
f 369/6/27 370/10/27 372/52/27 371/53/27
f 371/53/28 372/52/28 374/54/28 373/55/28
f 373/55/29 374/54/29 376/56/29 375/57/29
f 375/57/30 376/56/30 378/58/30 377/59/30
f 377/59/31 378/58/31 380/60/31 379/61/31
f 379/61/32 380/60/32 382/62/32 381/63/32
f 381/63/33 382/62/33 384/64/33 383/65/33
f 383/65/34 384/64/34 386/66/34 385/11/34
f 385/11/35 386/66/35 388/67/35 387/68/35
f 387/68/36 388/67/36 390/69/36 389/70/36
f 332/71/6 330/72/6 392/73/6 390/74/6 388/75/6 386/76/6 384/77/6 382/78/6 380/79/6 378/80/6 376/81/6 374/82/6 372/83/6 370/84/6 368/85/6 366/86/6 364/87/6 362/88/6 360/89/6 358/90/6 356/91/6 354/92/6 352/93/6 350/94/6 348/95/6 346/96/6 344/97/6 342/98/6 340/99/6 338/100/6 336/101/6 334/102/6
f 389/70/37 390/69/37 392/103/37 391/104/37
f 391/104/38 392/103/38 330/105/38 329/106/38
f 329/107/5 331/108/5 333/109/5 335/110/5 337/111/5 339/112/5 341/113/5 343/114/5 345/115/5 347/116/5 349/117/5 351/118/5 353/119/5 355/120/5 357/121/5 359/122/5 361/123/5 363/124/5 365/125/5 367/126/5 369/127/5 371/128/5 373/129/5 375/130/5 377/131/5 379/132/5 381/133/5 383/134/5 385/135/5 387/136/5 389/137/5 391/138/5
f 393/15/7 394/16/7 396/17/7 395/18/7
f 395/18/8 396/17/8 398/19/8 397/20/8
f 397/20/9 398/19/9 400/21/9 399/22/9
f 399/22/10 400/21/10 402/23/10 401/13/10
f 401/13/11 402/23/11 404/24/11 403/25/11
f 403/25/12 404/24/12 406/26/12 405/27/12
f 405/27/13 406/26/13 408/28/13 407/29/13
f 407/29/14 408/28/14 410/30/14 409/31/14
f 409/31/15 410/30/15 412/32/15 411/33/15
f 411/33/16 412/32/16 414/34/16 413/35/16
f 413/35/17 414/34/17 416/36/17 415/37/17
f 415/37/18 416/36/18 418/9/18 417/5/18
f 417/5/19 418/9/19 420/38/19 419/39/19
f 419/39/20 420/38/20 422/40/20 421/41/20
f 421/41/21 422/40/21 424/42/21 423/43/21
f 423/43/22 424/42/22 426/44/22 425/45/22
f 425/45/23 426/44/23 428/46/23 427/47/23
f 427/47/24 428/46/24 430/48/24 429/49/24
f 429/49/25 430/48/25 432/50/25 431/51/25
f 431/51/26 432/50/26 434/10/26 433/6/26
f 433/6/27 434/10/27 436/52/27 435/53/27
f 435/53/28 436/52/28 438/54/28 437/55/28
f 437/55/29 438/54/29 440/56/29 439/57/29
f 439/57/30 440/56/30 442/58/30 441/59/30
f 441/59/31 442/58/31 444/60/31 443/61/31
f 443/61/32 444/60/32 446/62/32 445/63/32
f 445/63/33 446/62/33 448/64/33 447/65/33
f 447/65/34 448/64/34 450/66/34 449/11/34
f 449/11/35 450/66/35 452/67/35 451/68/35
f 451/68/36 452/67/36 454/69/36 453/70/36
f 396/71/6 394/72/6 456/73/6 454/74/6 452/75/6 450/76/6 448/77/6 446/78/6 444/79/6 442/80/6 440/81/6 438/82/6 436/83/6 434/84/6 432/85/6 430/86/6 428/87/6 426/88/6 424/89/6 422/90/6 420/91/6 418/92/6 416/93/6 414/94/6 412/95/6 410/96/6 408/97/6 406/98/6 404/99/6 402/100/6 400/101/6 398/102/6
f 453/70/37 454/69/37 456/103/37 455/104/37
f 455/104/38 456/103/38 394/105/38 393/106/38
f 393/107/5 395/108/5 397/109/5 399/110/5 401/111/5 403/112/5 405/113/5 407/114/5 409/115/5 411/116/5 413/117/5 415/118/5 417/119/5 419/120/5 421/121/5 423/122/5 425/123/5 427/124/5 429/125/5 431/126/5 433/127/5 435/128/5 437/129/5 439/130/5 441/131/5 443/132/5 445/133/5 447/134/5 449/135/5 451/136/5 453/137/5 455/138/5
f 457/15/7 458/16/7 460/17/7 459/18/7
f 459/18/8 460/17/8 462/19/8 461/20/8
f 461/20/9 462/19/9 464/21/9 463/22/9
f 463/22/10 464/21/10 466/23/10 465/13/10
f 465/13/11 466/23/11 468/24/11 467/25/11
f 467/25/12 468/24/12 470/26/12 469/27/12
f 469/27/13 470/26/13 472/28/13 471/29/13
f 471/29/14 472/28/14 474/30/14 473/31/14
f 473/31/15 474/30/15 476/32/15 475/33/15
f 475/33/16 476/32/16 478/34/16 477/35/16
f 477/35/17 478/34/17 480/36/17 479/37/17
f 479/37/18 480/36/18 482/9/18 481/5/18
f 481/5/19 482/9/19 484/38/19 483/39/19
f 483/39/20 484/38/20 486/40/20 485/41/20
f 485/41/21 486/40/21 488/42/21 487/43/21
f 487/43/22 488/42/22 490/44/22 489/45/22
f 489/45/23 490/44/23 492/46/23 491/47/23
f 491/47/24 492/46/24 494/48/24 493/49/24
f 493/49/25 494/48/25 496/50/25 495/51/25
f 495/51/26 496/50/26 498/10/26 497/6/26
f 497/6/27 498/10/27 500/52/27 499/53/27
f 499/53/28 500/52/28 502/54/28 501/55/28
f 501/55/29 502/54/29 504/56/29 503/57/29
f 503/57/30 504/56/30 506/58/30 505/59/30
f 505/59/31 506/58/31 508/60/31 507/61/31
f 507/61/32 508/60/32 510/62/32 509/63/32
f 509/63/33 510/62/33 512/64/33 511/65/33
f 511/65/34 512/64/34 514/66/34 513/11/34
f 513/11/35 514/66/35 516/67/35 515/68/35
f 515/68/36 516/67/36 518/69/36 517/70/36
f 460/71/6 458/72/6 520/73/6 518/74/6 516/75/6 514/76/6 512/77/6 510/78/6 508/79/6 506/80/6 504/81/6 502/82/6 500/83/6 498/84/6 496/85/6 494/86/6 492/87/6 490/88/6 488/89/6 486/90/6 484/91/6 482/92/6 480/93/6 478/94/6 476/95/6 474/96/6 472/97/6 470/98/6 468/99/6 466/100/6 464/101/6 462/102/6
f 517/70/37 518/69/37 520/103/37 519/104/37
f 519/104/38 520/103/38 458/105/38 457/106/38
f 457/107/5 459/108/5 461/109/5 463/110/5 465/111/5 467/112/5 469/113/5 471/114/5 473/115/5 475/116/5 477/117/5 479/118/5 481/119/5 483/120/5 485/121/5 487/122/5 489/123/5 491/124/5 493/125/5 495/126/5 497/127/5 499/128/5 501/129/5 503/130/5 505/131/5 507/132/5 509/133/5 511/134/5 513/135/5 515/136/5 517/137/5 519/138/5
