# Blender 4.3.1
# www.blender.org
mtllib Connector3.mtl
o Cube
v 1.000000 1.000000 -1.000000
v 1.000000 0.000000 -1.000000
v 1.000000 1.000000 0.000000
v 1.000000 0.000000 0.000000
v 0.000000 1.000000 -1.000000
v 0.000000 0.000000 -1.000000
v 0.000000 1.000000 0.000000
v 0.000000 0.000000 0.000000
v 0.221408 1.000000 -0.614990
v 0.221408 0.000000 -0.614990
v 0.249274 1.000000 -0.666940
v 0.249274 0.000000 -0.666940
v 0.615396 1.000000 -0.777611
v 0.615396 0.000000 -0.777611
v 0.558829 1.000000 -0.794711
v 0.558829 0.000000 -0.794711
v 0.204249 1.000000 -0.558622
v 0.204249 0.000000 -0.558622
v 0.713225 1.000000 -0.712474
v 0.713225 0.000000 -0.712474
v 0.667530 1.000000 -0.250157
v 0.667530 0.000000 -0.250157
v 0.615396 1.000000 -0.222389
v 0.615396 0.000000 -0.222389
v 0.750726 1.000000 -0.666940
v 0.750726 0.000000 -0.666940
v 0.558829 1.000000 -0.205290
v 0.558829 0.000000 -0.205290
v 0.384604 1.000000 -0.222389
v 0.384604 0.000000 -0.222389
v 0.198455 1.000000 -0.500000
v 0.198455 0.000000 -0.500000
v 0.384604 1.000000 -0.777611
v 0.384604 0.000000 -0.777611
v 0.332470 1.000000 -0.250157
v 0.332470 0.000000 -0.250157
v 0.795751 1.000000 -0.441378
v 0.795751 0.000000 -0.441378
v 0.713225 1.000000 -0.287526
v 0.713225 0.000000 -0.287526
v 0.778592 1.000000 -0.385010
v 0.778592 0.000000 -0.385010
v 0.801545 1.000000 -0.500000
v 0.801545 0.000000 -0.500000
v 0.286775 1.000000 -0.712474
v 0.286775 0.000000 -0.712474
v 0.332470 1.000000 -0.749843
v 0.332470 0.000000 -0.749843
v 0.500000 1.000000 -0.199516
v 0.500000 0.000000 -0.199516
v 0.500000 1.000000 -0.800484
v 0.500000 0.000000 -0.800484
v 0.795751 1.000000 -0.558622
v 0.795751 0.000000 -0.558622
v 0.667530 1.000000 -0.749843
v 0.667530 0.000000 -0.749843
v 0.778592 1.000000 -0.614990
v 0.778592 0.000000 -0.614990
v 0.221408 1.000000 -0.385010
v 0.221408 0.000000 -0.385010
v 0.249274 1.000000 -0.333060
v 0.249274 0.000000 -0.333060
v 0.204249 1.000000 -0.441378
v 0.204249 0.000000 -0.441378
v 0.286775 1.000000 -0.287526
v 0.286775 0.000000 -0.287526
v 0.441171 1.000000 -0.205290
v 0.441171 0.000000 -0.205290
v 0.750726 1.000000 -0.333060
v 0.750726 0.000000 -0.333060
v 0.441171 1.000000 -0.794711
v 0.441171 0.000000 -0.794711
vn -0.0000 1.0000 -0.0000
vn -0.0000 -0.0000 1.0000
vn -1.0000 -0.0000 -0.0000
vn -0.0000 -1.0000 -0.0000
vn 1.0000 -0.0000 -0.0000
vn -0.0000 -0.0000 -1.0000
vn -0.9952 -0.0000 -0.0984
vn -0.7719 -0.0000 -0.6357
vn -0.8812 -0.0000 -0.4727
vn 0.9952 -0.0000 0.0984
vn -0.9567 -0.0000 0.2912
vn -0.9952 -0.0000 0.0984
vn -0.7719 -0.0000 0.6357
vn 0.0977 -0.0000 0.9952
vn 0.0977 -0.0000 -0.9952
vn 0.8812 -0.0000 0.4727
vn -0.0977 -0.0000 -0.9952
vn 0.2893 -0.0000 0.9572
vn -0.6331 -0.0000 0.7741
vn 0.4701 -0.0000 -0.8826
vn -0.4701 -0.0000 0.8826
vn -0.6331 -0.0000 -0.7741
vn 0.6331 -0.0000 0.7741
vn 0.9567 -0.0000 0.2912
vn -0.4701 -0.0000 -0.8826
vn 0.6331 -0.0000 -0.7741
vn 0.8812 -0.0000 -0.4727
vn -0.0977 -0.0000 0.9952
vn -0.8812 -0.0000 0.4727
vn 0.9952 -0.0000 -0.0984
vn -0.9567 -0.0000 -0.2912
vn 0.2893 -0.0000 -0.9572
vn 0.4701 -0.0000 0.8826
vn -0.2893 -0.0000 0.9572
vn -0.2893 -0.0000 -0.9572
vn 0.9567 -0.0000 -0.2912
vn 0.7719 -0.0000 0.6357
vn 0.7719 -0.0000 -0.6357
vt 0.875000 0.500000
vt 0.764707 0.551322
vt 0.750000 0.549879
vt 0.625000 0.750000
vt 0.375000 1.000000
vt 0.375000 0.750000
vt 0.625000 0.000000
vt 0.375000 0.250000
vt 0.375000 0.000000
vt 0.375000 0.500000
vt 0.264707 0.551322
vt 0.250000 0.549879
vt 0.625000 0.500000
vt 0.625000 0.250000
vt 0.718750 0.949507
vt 0.750000 0.550493
vt 0.718750 0.550493
vt 0.735293 0.698678
vt 0.750000 0.700121
vt 0.625000 0.949507
vt 0.656250 0.550493
vt 0.625000 0.550493
vt 0.656250 0.949507
vt 0.687500 0.550493
vt 0.218750 0.949507
vt 0.250000 0.550493
vt 0.218750 0.550493
vt 0.781250 0.949507
vt 0.812500 0.550493
vt 0.781250 0.550493
vt 0.750000 0.949507
vt 0.843750 0.949507
vt 0.875000 0.550493
vt 0.843750 0.550493
vt 0.000000 0.949507
vt 0.031250 0.550493
vt 0.000000 0.550493
vt 0.468750 0.949507
vt 0.500000 0.550493
vt 0.468750 0.550493
vt 0.156250 0.949507
vt 0.187500 0.550493
vt 0.156250 0.550493
vt 0.500000 0.949507
vt 0.531250 0.550493
vt 0.031250 0.949507
vt 0.062500 0.550493
vt 0.875000 0.949507
vt 0.906250 0.550493
vt 0.406250 0.949507
vt 0.437500 0.550493
vt 0.406250 0.550493
vt 0.906250 0.949507
vt 0.937500 0.550493
vt 0.593750 0.949507
vt 0.593750 0.550493
vt 0.093750 0.949507
vt 0.125000 0.550493
vt 0.093750 0.550493
vt 0.187500 0.949507
vt 0.562500 0.949507
vt 0.562500 0.550493
vt 0.375000 0.949507
vt 0.375000 0.550493
vt 0.312500 0.949507
vt 0.343750 0.550493
vt 0.312500 0.550493
vt 0.968750 0.949507
vt 1.000000 0.550493
vt 0.968750 0.550493
vt 0.812500 0.949507
vt 0.250000 0.949507
vt 0.281250 0.550493
vt 0.687500 0.949507
vt 0.437500 0.949507
vt 0.125000 0.750000
vt 0.235293 0.698678
vt 0.250000 0.700121
vt 0.062500 0.949507
vt 0.937500 0.949507
vt 0.531250 0.949507
vt 0.281250 0.949507
vt 0.125000 0.949507
vt 0.343750 0.949507
vt 0.875000 0.750000
vt 0.825386 0.625000
vt 0.823938 0.610345
vt 0.676062 0.610345
vt 0.674614 0.625000
vt 0.680352 0.596252
vt 0.819648 0.596252
vt 0.812681 0.583265
vt 0.687319 0.583265
vt 0.696694 0.571881
vt 0.803306 0.571881
vt 0.791882 0.562539
vt 0.708118 0.562539
vt 0.721151 0.555597
vt 0.778849 0.555597
vt 0.735293 0.551322
vt 0.625000 1.000000
vt 0.325386 0.625000
vt 0.323938 0.610345
vt 0.176062 0.610345
vt 0.174614 0.625000
vt 0.125000 0.500000
vt 0.180352 0.596252
vt 0.319648 0.596252
vt 0.312681 0.583265
vt 0.187319 0.583265
vt 0.196694 0.571881
vt 0.303306 0.571881
vt 0.291882 0.562539
vt 0.208118 0.562539
vt 0.221151 0.555597
vt 0.278849 0.555597
vt 0.235293 0.551322
vt 0.676062 0.639655
vt 0.680352 0.653748
vt 0.823938 0.639655
vt 0.819648 0.653748
vt 0.687319 0.666735
vt 0.812681 0.666735
vt 0.803306 0.678119
vt 0.696694 0.678119
vt 0.708118 0.687461
vt 0.791882 0.687461
vt 0.778849 0.694403
vt 0.721151 0.694403
vt 0.764707 0.698678
vt 1.000000 0.949507
vt 0.176062 0.639655
vt 0.180352 0.653748
vt 0.323938 0.639655
vt 0.319648 0.653748
vt 0.187319 0.666735
vt 0.312681 0.666735
vt 0.303306 0.678119
vt 0.196694 0.678119
vt 0.208118 0.687461
vt 0.291882 0.687461
vt 0.278849 0.694403
vt 0.221151 0.694403
vt 0.264707 0.698678
s 0
usemtl Material
f 5/1/1 71/2/1 51/3/1
f 3/4/2 8/5/2 4/6/2
f 7/7/3 6/8/3 8/9/3
f 2/10/4 16/11/4 52/12/4
f 1/13/5 4/6/5 2/10/5
f 5/14/6 2/10/6 6/8/6
f 37/15/7 44/16/7 38/17/7
f 3/4/1 27/18/1 49/19/1
f 39/20/8 70/21/8 40/22/8
f 69/23/9 42/24/9 70/21/9
f 17/25/10 32/26/10 18/27/10
f 53/28/11 58/29/11 54/30/11
f 43/31/12 54/30/12 44/16/12
f 25/32/13 20/33/13 26/34/13
f 51/35/14 72/36/14 52/37/14
f 67/38/15 50/39/15 68/40/15
f 11/41/16 10/42/16 12/43/16
f 49/44/17 28/45/17 50/39/17
f 71/46/18 34/47/18 72/36/18
f 19/48/19 56/49/19 20/33/19
f 35/50/20 30/51/20 36/52/20
f 55/53/21 14/54/21 56/49/21
f 21/55/22 40/22/22 22/56/22
f 47/57/23 46/58/23 48/59/23
f 9/60/24 18/27/24 10/42/24
f 23/61/25 22/56/25 24/62/25
f 65/63/26 36/52/26 66/64/26
f 59/65/27 62/66/27 60/67/27
f 15/68/28 52/69/28 16/70/28
f 57/71/29 26/34/29 58/29/29
f 31/72/30 64/73/30 32/26/30
f 41/74/31 38/17/31 42/24/31
f 29/75/32 68/40/32 30/51/32
f 8/76/4 68/77/4 50/78/4
f 33/79/33 48/59/33 34/47/33
f 13/80/34 16/70/34 14/54/34
f 27/81/35 24/62/35 28/45/35
f 63/82/36 60/67/36 64/73/36
f 45/83/37 12/43/37 46/58/37
f 61/84/38 66/64/38 62/66/38
f 5/1/1 7/85/1 31/86/1
f 5/1/1 31/86/1 17/87/1
f 53/88/1 43/89/1 1/13/1
f 57/90/1 53/88/1 1/13/1
f 5/1/1 17/87/1 9/91/1
f 5/1/1 9/91/1 11/92/1
f 25/93/1 57/90/1 1/13/1
f 19/94/1 25/93/1 1/13/1
f 5/1/1 11/92/1 45/95/1
f 5/1/1 45/95/1 47/96/1
f 55/97/1 19/94/1 1/13/1
f 13/98/1 55/97/1 1/13/1
f 5/1/1 47/96/1 33/99/1
f 5/1/1 33/99/1 71/2/1
f 13/98/1 1/13/1 15/100/1
f 1/13/1 5/1/1 51/3/1
f 15/100/1 1/13/1 51/3/1
f 3/4/2 7/101/2 8/5/2
f 7/7/3 5/14/3 6/8/3
f 2/10/4 4/6/4 44/102/4
f 2/10/4 44/102/4 54/103/4
f 18/104/4 32/105/4 6/106/4
f 10/107/4 18/104/4 6/106/4
f 2/10/4 54/103/4 58/108/4
f 2/10/4 58/108/4 26/109/4
f 12/110/4 10/107/4 6/106/4
f 46/111/4 12/110/4 6/106/4
f 2/10/4 26/109/4 20/112/4
f 2/10/4 20/112/4 56/113/4
f 48/114/4 46/111/4 6/106/4
f 34/115/4 48/114/4 6/106/4
f 2/10/4 56/113/4 14/116/4
f 2/10/4 14/116/4 16/11/4
f 34/115/4 6/106/4 72/117/4
f 6/106/4 2/10/4 52/12/4
f 72/117/4 6/106/4 52/12/4
f 1/13/5 3/4/5 4/6/5
f 5/14/6 1/13/6 2/10/6
f 37/15/7 43/31/7 44/16/7
f 1/13/1 43/89/1 3/4/1
f 43/89/1 37/118/1 3/4/1
f 37/118/1 41/119/1 3/4/1
f 63/120/1 31/86/1 7/85/1
f 59/121/1 63/120/1 7/85/1
f 3/4/1 41/119/1 69/122/1
f 61/123/1 59/121/1 7/85/1
f 65/124/1 61/123/1 7/85/1
f 3/4/1 69/122/1 39/125/1
f 3/4/1 39/125/1 21/126/1
f 35/127/1 65/124/1 7/85/1
f 29/128/1 35/127/1 7/85/1
f 3/4/1 21/126/1 23/129/1
f 3/4/1 23/129/1 27/18/1
f 29/128/1 7/85/1 67/130/1
f 7/85/1 3/4/1 49/19/1
f 67/130/1 7/85/1 49/19/1
f 39/20/8 69/23/8 70/21/8
f 69/23/9 41/74/9 42/24/9
f 17/25/10 31/72/10 32/26/10
f 53/28/11 57/71/11 58/29/11
f 43/31/12 53/28/12 54/30/12
f 25/32/13 19/48/13 20/33/13
f 51/35/14 71/46/14 72/36/14
f 67/38/15 49/44/15 50/39/15
f 11/41/16 9/60/16 10/42/16
f 49/44/17 27/81/17 28/45/17
f 71/46/18 33/79/18 34/47/18
f 19/48/19 55/53/19 56/49/19
f 35/50/20 29/75/20 30/51/20
f 55/53/21 13/80/21 14/54/21
f 21/55/22 39/20/22 40/22/22
f 47/57/23 45/83/23 46/58/23
f 9/60/24 17/25/24 18/27/24
f 23/61/25 21/55/25 22/56/25
f 65/63/26 35/50/26 36/52/26
f 59/65/27 61/84/27 62/66/27
f 15/68/28 51/131/28 52/69/28
f 57/71/29 25/32/29 26/34/29
f 31/72/30 63/82/30 64/73/30
f 41/74/31 37/15/31 38/17/31
f 29/75/32 67/38/32 68/40/32
f 6/106/4 32/105/4 8/76/4
f 32/105/4 64/132/4 8/76/4
f 64/132/4 60/133/4 8/76/4
f 38/134/4 44/102/4 4/6/4
f 42/135/4 38/134/4 4/6/4
f 8/76/4 60/133/4 62/136/4
f 70/137/4 42/135/4 4/6/4
f 40/138/4 70/137/4 4/6/4
f 8/76/4 62/136/4 66/139/4
f 8/76/4 66/139/4 36/140/4
f 22/141/4 40/138/4 4/6/4
f 24/142/4 22/141/4 4/6/4
f 8/76/4 36/140/4 30/143/4
f 8/76/4 30/143/4 68/77/4
f 24/142/4 4/6/4 28/144/4
f 4/6/4 8/76/4 50/78/4
f 28/144/4 4/6/4 50/78/4
f 33/79/33 47/57/33 48/59/33
f 13/80/34 15/68/34 16/70/34
f 27/81/35 23/61/35 24/62/35
f 63/82/36 59/65/36 60/67/36
f 45/83/37 11/41/37 12/43/37
f 61/84/38 65/63/38 66/64/38
