# Blender 4.3.1
# www.blender.org
mtllib Dach.mtl
o Cube
v 0.000000 0.200000 -6.000000
v 0.000000 -0.000000 -6.000000
v 0.000000 0.200000 0.000000
v 0.000000 0.000000 0.000000
v 13.000000 0.200000 -6.000000
v 13.000000 -0.000000 -6.000000
v 13.000000 0.200000 0.000000
v 13.000000 0.000000 0.000000
v 0.565213 0.050000 -0.257660
v 0.518457 -0.350000 -0.249757
v 0.687844 0.050000 -0.326170
v 0.648770 -0.350000 -0.291953
v 0.753909 0.050000 -0.533448
v 0.753909 -0.350000 -0.466551
v 0.648770 0.050000 -0.708047
v 0.687844 -0.350000 -0.673829
v 0.518457 0.050000 -0.750242
v 0.565213 -0.350000 -0.742339
v 0.434787 0.050000 -0.742339
v 0.461215 -0.350000 -0.749656
v 0.312156 0.050000 -0.673829
v 0.312155 -0.350000 -0.673829
v 0.246090 0.050000 -0.466552
v 0.246090 -0.350000 -0.466552
v 0.310427 0.050000 -0.335391
v 0.310428 -0.350000 -0.335391
v 0.388963 0.050000 -0.274887
v 0.481543 0.050000 -0.249757
v 0.415310 -0.350000 -0.261781
v 2.565213 0.050000 -0.257660
v 2.518457 -0.350000 -0.249757
v 2.687844 0.050000 -0.326170
v 2.648770 -0.350000 -0.291952
v 2.753910 0.050000 -0.533448
v 2.753909 -0.350000 -0.466552
v 2.648770 0.050000 -0.708047
v 2.687844 -0.350000 -0.673829
v 2.518457 0.050000 -0.750242
v 2.565213 -0.350000 -0.742339
v 2.415310 0.050000 -0.738218
v 2.461215 -0.350000 -0.749656
v 2.310428 0.050000 -0.664609
v 2.246090 0.050000 -0.533447
v 2.312156 -0.350000 -0.673829
v 2.312156 0.050000 -0.326170
v 2.246090 -0.350000 -0.466552
v 2.310428 -0.350000 -0.335391
v 2.461215 0.050000 -0.250343
v 2.415310 -0.350000 -0.261781
v 12.518457 0.050000 -0.249757
v 12.481543 -0.350000 -0.249757
v 12.611037 0.050000 -0.274887
v 12.584690 -0.350000 -0.261781
v 12.689573 0.050000 -0.335391
v 12.689572 -0.350000 -0.335391
v 12.753910 0.050000 -0.466552
v 12.753910 -0.350000 -0.466552
v 12.687843 0.050000 -0.673829
v 12.687845 -0.350000 -0.673829
v 12.565212 0.050000 -0.742339
v 12.481543 0.050000 -0.750242
v 12.538785 -0.350000 -0.749656
v 12.351230 0.050000 -0.708047
v 12.434787 -0.350000 -0.742339
v 12.246091 0.050000 -0.533448
v 12.312156 -0.350000 -0.673829
v 12.312156 0.050000 -0.326170
v 12.246091 -0.350000 -0.466551
v 12.434787 0.050000 -0.257660
v 12.351231 -0.350000 -0.291953
v 10.538784 0.050000 -0.250343
v 10.481543 -0.350000 -0.249757
v 10.687844 0.050000 -0.326170
v 10.584690 -0.350000 -0.261781
v 10.689572 -0.350000 -0.335391
v 10.753910 0.050000 -0.533447
v 10.753910 -0.350000 -0.466552
v 10.689572 0.050000 -0.664609
v 10.584690 0.050000 -0.738218
v 10.687844 -0.350000 -0.673829
v 10.481543 0.050000 -0.750242
v 10.538785 -0.350000 -0.749656
v 10.351230 0.050000 -0.708047
v 10.434787 -0.350000 -0.742339
v 10.246090 0.050000 -0.533448
v 10.312156 -0.350000 -0.673829
v 10.312156 0.050000 -0.326170
v 10.246091 -0.350000 -0.466552
v 10.434787 0.050000 -0.257660
v 10.351231 -0.350000 -0.291952
v 0.565213 0.050000 -5.257660
v 0.518457 -0.350000 -5.249757
v 0.687845 0.050000 -5.326170
v 0.611037 -0.350000 -5.274887
v 0.689573 -0.350000 -5.335391
v 0.753909 0.050000 -5.533448
v 0.753909 -0.350000 -5.466552
v 0.689573 0.050000 -5.664609
v 0.611037 0.050000 -5.725112
v 0.687845 -0.350000 -5.673830
v 0.518458 0.050000 -5.750242
v 0.565213 -0.350000 -5.742340
v 0.434787 0.050000 -5.742340
v 0.461215 -0.350000 -5.749656
v 0.312156 0.050000 -5.673829
v 0.312155 -0.350000 -5.673829
v 0.246090 0.050000 -5.466552
v 0.246090 -0.350000 -5.466553
v 0.310427 0.050000 -5.335391
v 0.310427 -0.350000 -5.335391
v 0.388963 0.050000 -5.274887
v 0.481542 0.050000 -5.249757
v 0.415310 -0.350000 -5.261781
v 2.565213 0.050000 -5.257660
v 2.518457 -0.350000 -5.249757
v 2.687845 0.050000 -5.326170
v 2.611037 -0.350000 -5.274887
v 2.689573 -0.350000 -5.335391
v 2.753910 0.050000 -5.533448
v 2.753909 -0.350000 -5.466552
v 2.689573 0.050000 -5.664609
v 2.611037 0.050000 -5.725113
v 2.687845 -0.350000 -5.673830
v 2.518457 0.050000 -5.750242
v 2.565213 -0.350000 -5.742340
v 2.415310 0.050000 -5.738219
v 2.461215 -0.350000 -5.749656
v 2.310427 0.050000 -5.664609
v 2.246090 0.050000 -5.533447
v 2.312155 -0.350000 -5.673830
v 2.312155 0.050000 -5.326170
v 2.246090 -0.350000 -5.466553
v 2.310427 -0.350000 -5.335391
v 2.461215 0.050000 -5.250343
v 2.415310 -0.350000 -5.261781
v 12.518457 0.050000 -5.249757
v 12.481543 -0.350000 -5.249757
v 12.611036 0.050000 -5.274887
v 12.584690 -0.350000 -5.261781
v 12.689573 0.050000 -5.335391
v 12.689573 -0.350000 -5.335391
v 12.753910 0.050000 -5.466552
v 12.753910 -0.350000 -5.466553
v 12.687844 0.050000 -5.673829
v 12.687845 -0.350000 -5.673829
v 12.565212 0.050000 -5.742340
v 12.481543 0.050000 -5.750242
v 12.538784 -0.350000 -5.749656
v 12.388963 0.050000 -5.725112
v 12.434787 -0.350000 -5.742340
v 12.310427 0.050000 -5.664609
v 12.246091 0.050000 -5.533448
v 12.312155 -0.350000 -5.673830
v 12.312155 0.050000 -5.326170
v 12.246091 -0.350000 -5.466552
v 12.310427 -0.350000 -5.335391
v 12.434787 0.050000 -5.257660
v 12.388963 -0.350000 -5.274887
v 10.538784 0.050000 -5.250343
v 10.481543 -0.350000 -5.249757
v 10.687845 0.050000 -5.326170
v 10.584690 -0.350000 -5.261781
v 10.689573 -0.350000 -5.335391
v 10.753910 0.050000 -5.533447
v 10.753910 -0.350000 -5.466553
v 10.689573 0.050000 -5.664609
v 10.584690 0.050000 -5.738219
v 10.687845 -0.350000 -5.673830
v 10.481543 0.050000 -5.750242
v 10.538785 -0.350000 -5.749656
v 10.388964 0.050000 -5.725113
v 10.434787 -0.350000 -5.742340
v 10.310428 0.050000 -5.664609
v 10.246090 0.050000 -5.533448
v 10.312156 -0.350000 -5.673830
v 10.312156 0.050000 -5.326170
v 10.246091 -0.350000 -5.466552
v 10.310428 -0.350000 -5.335391
v 10.434787 0.050000 -5.257660
v 10.388964 -0.350000 -5.274887
vn -1.0000 -0.0000 -0.0000
vn -0.0000 -0.0000 1.0000
vn 1.0000 -0.0000 -0.0000
vn -0.0000 -0.0000 -1.0000
vn -0.0000 1.0000 -0.0000
vn -0.0000 -1.0000 -0.0000
vn 0.0940 0.0087 0.9955
vn 0.4875 0.0270 0.8727
vn 0.9515 0.0507 0.3033
vn 0.8560 0.0395 -0.5155
vn 0.3080 0.0172 -0.9512
vn -0.0940 0.0120 -0.9955
vn -0.4877 -0.0163 -0.8729
vn -0.9528 -0.0000 -0.3037
vn -0.8978 -0.0000 0.4404
vn -0.6103 -0.0000 0.7922
vn -0.2619 0.0144 0.9650
vn 0.0702 0.0115 0.9975
vn -0.1158 0.0151 -0.9932
vn -0.5744 0.0164 -0.8184
vn -0.8978 0.0063 -0.4404
vn -0.9515 0.0507 0.3033
vn -0.4532 0.0265 0.8910
vn 0.2619 0.0144 0.9650
vn 0.6102 -0.0142 0.7921
vn 0.8978 -0.0000 0.4404
vn 0.9528 -0.0000 -0.3037
vn 0.4877 -0.0000 -0.8730
vn 0.0940 0.0120 -0.9955
vn -0.3080 0.0172 -0.9512
vn -0.8560 0.0395 -0.5155
vn -0.4875 0.0270 0.8727
vn -0.0940 0.0087 0.9955
vn 0.4532 0.0265 0.8910
vn 0.8978 0.0063 -0.4404
vn 0.5744 0.0164 -0.8184
vn 0.1158 0.0151 -0.9932
vn -0.0702 0.0115 0.9975
vn 0.4876 0.0183 0.8729
vn 0.6102 0.0156 -0.7921
vn 0.2619 0.0116 -0.9650
vn -0.2619 0.0116 -0.9650
vn -0.6102 0.0156 -0.7921
vn -0.4876 0.0183 0.8729
vn 0.3080 -0.0172 0.9512
vn 0.8560 -0.0395 0.5155
vn 0.9515 -0.0507 -0.3033
vn 0.4875 -0.0270 -0.8727
vn 0.0702 -0.0115 -0.9975
vn -0.4534 -0.0000 -0.8913
vn -0.5744 -0.0110 0.8185
vn -0.1158 -0.0107 0.9932
vn -0.4532 -0.0265 -0.8910
vn -0.9515 -0.0507 -0.3033
vn -0.8978 -0.0063 0.4404
vn -0.5744 -0.0164 0.8184
vn -0.1158 -0.0151 0.9932
vn 0.1158 -0.0107 0.9932
vn 0.5745 -0.0000 0.8185
vn 0.4534 -0.0137 -0.8912
vn -0.0702 -0.0115 -0.9975
vn -0.4875 -0.0270 -0.8727
vn -0.8560 -0.0395 0.5155
vn -0.3080 -0.0172 0.9512
vn 0.1158 -0.0151 0.9932
vn 0.5744 -0.0164 0.8184
vn 0.8978 -0.0063 0.4404
vn 0.4532 -0.0265 -0.8910
vn 0.2619 -0.0116 0.9650
vn 0.6102 -0.0156 0.7921
vn 0.4876 -0.0183 -0.8729
vn -0.4876 -0.0183 -0.8729
vn -0.6102 -0.0156 0.7921
vn -0.2619 -0.0116 0.9650
vt 0.625000 0.000000
vt 0.375000 0.250000
vt 0.375000 0.000000
vt 0.625000 0.250000
vt 0.375000 0.500000
vt 0.625000 0.500000
vt 0.375000 0.750000
vt 0.625000 0.750000
vt 0.375000 1.000000
vt 0.125000 0.750000
vt 0.125000 0.500000
vt 0.875000 0.500000
vt 0.988758 1.000000
vt 0.959207 0.500000
vt 1.000000 0.500000
vt 0.906942 1.000000
vt 0.873479 0.500000
vt 0.771677 1.000000
vt 0.728324 0.500000
vt 0.626521 1.000000
vt 0.593058 0.500000
vt 0.540793 1.000000
vt 0.511242 0.500000
vt 0.477103 1.000000
vt 0.459207 0.500000
vt 0.373479 0.500000
vt 0.373479 1.000000
vt 0.228324 0.500000
vt 0.228324 1.000000
vt 0.135391 0.500000
vt 0.135391 1.000000
vt 0.071784 0.500000
vt 0.051580 1.000000
vt 0.011243 0.500000
vt 0.906942 1.000000
vt 0.771676 1.000000
vt 0.728324 0.500000
vt 0.448419 0.500000
vt 0.373479 1.000000
vt 0.364609 0.500000
vt 0.271676 0.500000
vt 0.228324 1.000000
vt 0.126521 0.500000
vt 0.022897 0.500000
vt 0.582696 0.414407
vt 0.716002 0.485071
vt 0.917304 0.414407
vt 0.948420 1.000000
vt 0.928216 0.500000
vt 0.988757 0.500000
vt 0.864609 0.500000
vt 0.864609 1.000000
vt 0.771676 0.500000
vt 0.771676 1.000000
vt 0.626521 0.500000
vt 0.626521 1.000000
vt 0.540793 0.500000
vt 0.522897 1.000000
vt 0.488757 0.500000
vt 0.459207 1.000000
vt 0.406942 0.500000
vt 0.373479 1.000000
vt 0.271676 0.500000
vt 0.228324 1.000000
vt 0.126521 0.500000
vt 0.093058 1.000000
vt 0.040793 0.500000
vt 0.429630 0.407612
vt 0.325586 0.475234
vt 0.120591 0.445901
vt 0.011243 1.000000
vt 0.000000 0.500000
vt 0.582696 0.414407
vt 0.689429 0.481218
vt 0.854171 0.465142
vt 0.873479 0.500000
vt 0.977103 0.500000
vt 0.771676 1.000000
vt 0.728324 0.500000
vt 0.626521 1.000000
vt 0.635391 0.500000
vt 0.551581 0.500000
vt 0.406942 0.500000
vt 0.271676 0.500000
vt 0.228324 1.000000
vt 0.093058 1.000000
vt 0.120591 0.445901
vt 0.917304 0.414407
vt 0.959207 0.500000
vt 0.928216 1.000000
vt 0.873479 0.500000
vt 0.771676 1.000000
vt 0.728324 0.500000
vt 0.626521 1.000000
vt 0.635391 0.500000
vt 0.571784 0.500000
vt 0.540793 1.000000
vt 0.511243 0.500000
vt 0.477103 1.000000
vt 0.459207 0.500000
vt 0.373479 0.500000
vt 0.373479 1.000000
vt 0.228324 0.500000
vt 0.228324 1.000000
vt 0.135392 0.500000
vt 0.135392 1.000000
vt 0.071784 0.500000
vt 0.429630 0.407612
vt 0.354171 0.465142
vt 0.070369 0.407612
vt 0.051581 1.000000
vt 0.011243 0.500000
vt 0.928216 1.000000
vt 0.771676 1.000000
vt 0.728324 0.500000
vt 0.571784 0.500000
vt 0.511242 0.500000
vt 0.477103 1.000000
vt 0.448420 0.500000
vt 0.373479 1.000000
vt 0.364609 0.500000
vt 0.126521 0.500000
vt 0.022897 0.500000
vt 0.354171 0.465142
vt 0.582696 0.414407
vt 0.716002 0.485071
vt 0.917304 0.414407
vt 0.948420 1.000000
vt 0.928216 0.500000
vt 0.988757 0.500000
vt 0.864608 0.500000
vt 0.864609 1.000000
vt 0.771676 0.500000
vt 0.771676 1.000000
vt 0.626521 0.500000
vt 0.540793 0.500000
vt 0.522897 1.000000
vt 0.488757 0.500000
vt 0.459207 1.000000
vt 0.428216 0.500000
vt 0.373479 1.000000
vt 0.364609 0.500000
vt 0.271676 0.500000
vt 0.228324 1.000000
vt 0.126521 0.500000
vt 0.071784 1.000000
vt 0.040793 0.500000
vt 0.429631 0.407612
vt 0.325586 0.475234
vt 0.070370 0.407612
vt 0.582696 0.414407
vt 0.689430 0.481218
vt 0.854171 0.465142
vt 0.873479 0.500000
vt 0.977103 0.500000
vt 0.771676 1.000000
vt 0.728324 0.500000
vt 0.626521 1.000000
vt 0.635391 0.500000
vt 0.551580 0.500000
vt 0.522897 1.000000
vt 0.488757 0.500000
vt 0.428216 0.500000
vt 0.271676 0.500000
vt 0.228324 1.000000
vt 0.071784 1.000000
vt 0.917304 0.414407
vt 0.625000 1.000000
vt 0.875000 0.750000
vt 0.379409 0.445901
vt 0.266844 0.488341
vt 0.174414 0.475234
vt 0.070370 0.407612
vt 0.018786 0.281825
vt 0.082696 0.085593
vt 0.417304 0.085593
vt 0.216002 0.014929
vt 0.310571 0.018782
vt 0.481214 0.281826
vt 0.000000 1.000000
vt 0.810570 0.481218
vt 0.645829 0.465142
vt 0.733155 0.488341
vt 0.981214 0.218174
vt 0.518786 0.281826
vt 0.570370 0.407612
vt 0.879410 0.054099
vt 0.582696 0.085593
vt 0.766844 0.011659
vt 0.689429 0.018782
vt 0.379409 0.445901
vt 0.018786 0.281825
vt 0.082696 0.085593
vt 0.216002 0.014929
vt 0.481214 0.281826
vt 0.981214 0.218174
vt 0.879409 0.054099
vt 0.518786 0.218175
vt 0.674413 0.024767
vt 0.570370 0.092388
vt 1.000000 1.000000
vt 0.233155 0.488341
vt 0.018786 0.281826
vt 0.082696 0.085593
vt 0.417304 0.085593
vt 0.189429 0.018782
vt 0.283998 0.014929
vt 0.481214 0.281825
vt 0.766845 0.488341
vt 0.929630 0.407612
vt 0.981214 0.281826
vt 0.917304 0.085593
vt 0.518786 0.218174
vt 0.810570 0.018782
vt 0.620590 0.054099
vt 0.733155 0.011659
vt 0.018786 0.281826
vt 0.417304 0.085593
vt 0.283998 0.014929
vt 0.481214 0.281825
vt 0.783997 0.485071
vt 0.981214 0.218175
vt 0.929630 0.092388
vt 0.518786 0.218174
vt 0.825586 0.024767
vt 0.620590 0.054099
vt 0.864609 1.000000
vt 0.174414 0.475234
vt 0.018786 0.281825
vt 0.082696 0.085593
vt 0.417304 0.085593
vt 0.216002 0.014929
vt 0.310570 0.018782
vt 0.481214 0.281826
vt 0.810570 0.481218
vt 0.645829 0.465142
vt 0.733155 0.488341
vt 0.981214 0.218174
vt 0.518786 0.281826
vt 0.570369 0.407612
vt 0.929630 0.092388
vt 0.582696 0.085593
vt 0.854171 0.034858
vt 0.766845 0.011659
vt 0.689430 0.018782
vt 0.018786 0.281825
vt 0.082696 0.085593
vt 0.216002 0.014929
vt 0.481214 0.281826
vt 0.981214 0.218174
vt 0.518786 0.218175
vt 0.854171 0.034858
vt 0.674414 0.024766
vt 0.766844 0.011659
vt 0.570369 0.092388
vt 0.135391 1.000000
vt 0.145829 0.465142
vt 0.018786 0.281826
vt 0.082696 0.085593
vt 0.417304 0.085593
vt 0.189429 0.018782
vt 0.283997 0.014929
vt 0.481214 0.281825
vt 0.766845 0.488341
vt 0.929631 0.407612
vt 0.981214 0.281826
vt 0.917304 0.085593
vt 0.518786 0.218174
vt 0.810570 0.018782
vt 0.645829 0.034858
vt 0.733155 0.011659
vt 0.570370 0.092388
vt 0.145829 0.465142
vt 0.018786 0.281826
vt 0.417304 0.085593
vt 0.283998 0.014929
vt 0.481214 0.281825
vt 0.783997 0.485071
vt 0.929631 0.092388
vt 0.518786 0.218174
vt 0.825586 0.024766
vt 0.645829 0.034858
vt 0.733155 0.011659
s 0
f 2/1/1 3/2/1 1/3/1
f 4/4/2 7/5/2 3/2/2
f 8/6/3 5/7/3 7/5/3
f 6/8/4 1/9/4 5/7/4
f 7/5/5 1/10/5 3/11/5
f 4/12/6 6/8/6 8/6/6
f 10/13/7 9/14/7 28/15/7
f 12/16/8 11/17/8 9/14/8
f 14/18/9 13/19/9 11/17/9
f 16/20/10 15/21/10 13/19/10
f 18/22/11 17/23/11 15/21/11
f 20/24/12 19/25/12 17/23/12
f 20/24/13 21/26/13 19/25/13
f 22/27/14 23/28/14 21/26/14
f 24/29/15 25/30/15 23/28/15
f 26/31/16 27/32/16 25/30/16
f 29/33/17 28/34/17 27/32/17
f 31/13/18 30/14/18 48/15/18
f 33/35/8 32/17/8 30/14/8
f 35/36/9 34/37/9 32/17/9
f 37/20/10 36/21/10 34/37/10
f 39/22/11 38/23/11 36/21/11
f 41/24/19 40/38/19 38/23/19
f 44/39/20 42/40/20 40/38/20
f 44/39/21 43/41/21 42/40/21
f 46/42/22 45/43/22 43/41/22
f 49/33/23 48/44/23 45/43/23
f 45/45/5 48/46/5 32/47/5
f 53/48/24 52/49/24 50/50/24
f 53/48/25 54/51/25 52/49/25
f 55/52/26 56/53/26 54/51/26
f 57/54/27 58/55/27 56/53/27
f 59/56/28 60/57/28 58/55/28
f 62/58/29 61/59/29 60/57/29
f 64/60/30 63/61/30 61/59/30
f 66/62/31 65/63/31 63/61/31
f 68/64/22 67/65/22 65/63/22
f 70/66/32 69/67/32 67/65/32
f 55/68/6 53/69/6 70/70/6
f 51/71/33 50/72/33 69/67/33
f 67/73/5 69/74/5 52/75/5
f 74/48/34 73/76/34 71/77/34
f 77/78/9 76/79/9 73/76/9
f 80/80/35 78/81/35 76/79/35
f 80/80/36 79/82/36 78/81/36
f 82/58/37 81/59/37 79/82/37
f 84/60/30 83/83/30 81/59/30
f 86/62/31 85/84/31 83/83/31
f 88/85/22 87/65/22 85/84/22
f 90/86/32 89/67/32 87/65/32
f 75/68/6 74/69/6 90/87/6
f 72/71/38 71/72/38 89/67/38
f 87/73/5 89/74/5 73/88/5
f 92/13/7 91/89/7 112/15/7
f 94/90/39 93/91/39 91/89/39
f 97/92/9 96/93/9 93/91/9
f 100/94/35 98/95/35 96/93/35
f 100/94/40 99/96/40 98/95/40
f 102/97/41 101/98/41 99/96/41
f 104/99/12 103/100/12 101/98/12
f 104/99/13 105/101/13 103/100/13
f 106/102/14 107/103/14 105/101/14
f 108/104/15 109/105/15 107/103/15
f 110/106/16 111/107/16 109/105/16
f 95/108/6 94/109/6 110/110/6
f 113/111/17 112/112/17 111/107/17
f 115/13/18 114/89/18 134/15/18
f 117/113/39 116/91/39 114/89/39
f 120/114/9 119/115/9 116/91/9
f 123/94/35 121/95/35 119/115/35
f 123/94/40 122/116/40 121/95/40
f 125/97/41 124/117/41 122/116/41
f 127/118/19 126/119/19 124/117/19
f 130/120/20 128/121/20 126/119/20
f 130/120/21 129/41/21 128/121/21
f 132/29/22 131/122/22 129/41/22
f 135/111/23 134/123/23 131/122/23
f 118/108/6 117/124/6 133/110/6
f 131/125/5 134/126/5 116/127/5
f 139/128/24 138/129/24 136/130/24
f 139/128/25 140/131/25 138/129/25
f 141/132/26 142/133/26 140/131/26
f 143/134/27 144/135/27 142/133/27
f 145/56/28 146/136/28 144/135/28
f 148/137/29 147/138/29 146/136/29
f 150/139/42 149/140/42 147/138/42
f 153/141/43 151/142/43 149/140/43
f 153/141/21 152/143/21 151/142/21
f 155/144/22 154/145/22 152/143/22
f 158/146/44 157/147/44 154/145/44
f 141/148/6 139/149/6 156/150/6
f 137/71/33 136/72/33 157/147/33
f 154/151/5 157/152/5 138/153/5
f 162/128/34 161/154/34 159/155/34
f 165/156/9 164/157/9 161/154/9
f 168/158/35 166/159/35 164/157/35
f 168/158/36 167/160/36 166/159/36
f 170/161/37 169/162/37 167/160/37
f 172/139/42 171/163/42 169/162/42
f 175/141/43 173/142/43 171/163/43
f 175/141/21 174/164/21 173/142/21
f 177/165/22 176/145/22 174/164/22
f 180/166/44 179/147/44 176/145/44
f 163/148/6 162/149/6 178/150/6
f 160/71/38 159/72/38 179/147/38
f 176/151/5 179/152/5 161/167/5
f 2/1/1 4/4/1 3/2/1
f 4/4/2 8/6/2 7/5/2
f 8/6/3 6/8/3 5/7/3
f 6/8/4 2/168/4 1/9/4
f 7/5/5 5/7/5 1/10/5
f 4/12/6 2/169/6 6/8/6
f 10/13/45 12/16/45 9/14/45
f 12/16/46 14/18/46 11/17/46
f 14/18/47 16/20/47 13/19/47
f 16/20/48 18/22/48 15/21/48
f 18/22/49 20/24/49 17/23/49
f 20/24/50 22/27/50 21/26/50
f 22/27/14 24/29/14 23/28/14
f 24/29/15 26/31/15 25/30/15
f 26/31/51 29/33/51 27/32/51
f 12/170/6 10/171/6 29/172/6
f 29/172/6 26/173/6 12/170/6
f 26/173/6 24/174/6 12/170/6
f 24/174/6 22/175/6 16/176/6
f 22/175/6 20/177/6 16/176/6
f 18/178/6 16/176/6 20/177/6
f 16/176/6 14/179/6 24/174/6
f 14/179/6 12/170/6 24/174/6
f 29/33/52 10/180/52 28/34/52
f 9/181/5 11/47/5 27/182/5
f 28/183/5 9/181/5 27/182/5
f 11/47/5 13/184/5 23/185/5
f 25/186/5 11/47/5 23/185/5
f 13/184/5 15/187/5 21/188/5
f 23/185/5 13/184/5 21/188/5
f 15/187/5 17/189/5 19/190/5
f 21/188/5 15/187/5 19/190/5
f 25/186/5 27/182/5 11/47/5
f 31/13/45 33/35/45 30/14/45
f 33/35/46 35/36/46 32/17/46
f 35/36/47 37/20/47 34/37/47
f 37/20/48 39/22/48 36/21/48
f 39/22/49 41/24/49 38/23/49
f 41/24/53 44/39/53 40/38/53
f 44/39/54 46/42/54 43/41/54
f 46/42/55 47/31/55 45/43/55
f 47/31/56 49/33/56 45/43/56
f 33/191/6 31/171/6 49/172/6
f 49/172/6 47/173/6 33/191/6
f 47/173/6 46/192/6 33/191/6
f 46/192/6 44/193/6 37/176/6
f 44/193/6 41/194/6 37/176/6
f 39/178/6 37/176/6 41/194/6
f 37/176/6 35/195/6 46/192/6
f 35/195/6 33/191/6 46/192/6
f 49/33/57 31/180/57 48/44/57
f 30/181/5 32/47/5 48/46/5
f 32/47/5 34/196/5 45/45/5
f 34/196/5 36/197/5 43/198/5
f 36/197/5 38/189/5 40/199/5
f 40/199/5 42/200/5 36/197/5
f 42/200/5 43/198/5 36/197/5
f 43/198/5 45/45/5 34/196/5
f 51/201/58 53/48/58 50/50/58
f 53/48/59 55/52/59 54/51/59
f 55/52/26 57/54/26 56/53/26
f 57/54/27 59/56/27 58/55/27
f 59/56/60 62/58/60 60/57/60
f 62/58/61 64/60/61 61/59/61
f 64/60/62 66/62/62 63/61/62
f 66/62/54 68/64/54 65/63/54
f 68/64/63 70/66/63 67/65/63
f 51/202/6 70/70/6 53/69/6
f 70/70/6 68/203/6 55/68/6
f 68/203/6 66/204/6 59/205/6
f 66/204/6 64/206/6 59/205/6
f 62/207/6 59/205/6 64/206/6
f 59/205/6 57/208/6 68/203/6
f 57/208/6 55/68/6 68/203/6
f 70/66/64 51/71/64 69/67/64
f 50/209/5 52/75/5 69/74/5
f 52/75/5 54/210/5 67/73/5
f 54/210/5 56/211/5 67/73/5
f 56/211/5 58/212/5 65/213/5
f 58/212/5 60/214/5 63/215/5
f 61/216/5 63/215/5 60/214/5
f 63/215/5 65/213/5 58/212/5
f 65/213/5 67/73/5 56/211/5
f 72/201/65 74/48/65 71/77/65
f 74/48/66 75/52/66 73/76/66
f 75/52/67 77/78/67 73/76/67
f 77/78/47 80/80/47 76/79/47
f 80/80/68 82/58/68 79/82/68
f 82/58/61 84/60/61 81/59/61
f 84/60/62 86/62/62 83/83/62
f 86/62/54 88/85/54 85/84/54
f 88/85/63 90/86/63 87/65/63
f 72/202/6 90/87/6 74/69/6
f 90/87/6 88/217/6 75/68/6
f 88/217/6 86/204/6 80/218/6
f 86/204/6 84/206/6 80/218/6
f 82/219/6 80/218/6 84/206/6
f 80/218/6 77/220/6 88/217/6
f 77/220/6 75/68/6 88/217/6
f 90/86/64 72/71/64 89/67/64
f 71/221/5 73/88/5 89/74/5
f 73/88/5 76/222/5 87/73/5
f 76/222/5 78/223/5 85/224/5
f 78/223/5 79/225/5 83/226/5
f 81/216/5 83/226/5 79/225/5
f 83/226/5 85/224/5 78/223/5
f 85/224/5 87/73/5 76/222/5
f 92/13/69 94/90/69 91/89/69
f 94/90/70 95/227/70 93/91/70
f 95/227/67 97/92/67 93/91/67
f 97/92/47 100/94/47 96/93/47
f 100/94/71 102/97/71 99/96/71
f 102/97/49 104/99/49 101/98/49
f 104/99/50 106/102/50 105/101/50
f 106/102/14 108/104/14 107/103/14
f 108/104/15 110/106/15 109/105/15
f 110/106/51 113/111/51 111/107/51
f 94/109/6 92/171/6 113/228/6
f 113/228/6 110/110/6 94/109/6
f 110/110/6 108/229/6 95/108/6
f 108/229/6 106/230/6 100/231/6
f 106/230/6 104/232/6 100/231/6
f 102/233/6 100/231/6 104/232/6
f 100/231/6 97/234/6 108/229/6
f 97/234/6 95/108/6 108/229/6
f 113/111/52 92/180/52 112/112/52
f 91/235/5 93/127/5 111/236/5
f 112/237/5 91/235/5 111/236/5
f 93/127/5 96/238/5 107/239/5
f 109/240/5 93/127/5 107/239/5
f 96/238/5 98/241/5 105/242/5
f 107/239/5 96/238/5 105/242/5
f 98/241/5 99/243/5 105/242/5
f 99/243/5 101/244/5 103/245/5
f 105/242/5 99/243/5 103/245/5
f 109/240/5 111/236/5 93/127/5
f 115/13/69 117/113/69 114/89/69
f 117/113/70 118/227/70 116/91/70
f 118/227/67 120/114/67 116/91/67
f 120/114/47 123/94/47 119/115/47
f 123/94/71 125/97/71 122/116/71
f 125/97/49 127/118/49 124/117/49
f 127/118/53 130/120/53 126/119/53
f 130/120/54 132/29/54 129/41/54
f 132/29/55 133/106/55 131/122/55
f 133/106/56 135/111/56 131/122/56
f 117/124/6 115/171/6 135/228/6
f 135/228/6 133/110/6 117/124/6
f 133/110/6 132/246/6 118/108/6
f 132/246/6 130/247/6 123/231/6
f 130/247/6 127/248/6 123/231/6
f 125/233/6 123/231/6 127/248/6
f 123/231/6 120/249/6 132/246/6
f 120/249/6 118/108/6 132/246/6
f 135/111/57 115/180/57 134/123/57
f 114/235/5 116/127/5 134/126/5
f 116/127/5 119/250/5 131/125/5
f 119/250/5 121/241/5 129/251/5
f 121/241/5 122/252/5 126/253/5
f 122/252/5 124/254/5 126/253/5
f 126/253/5 128/255/5 121/241/5
f 128/255/5 129/251/5 121/241/5
f 129/251/5 131/125/5 119/250/5
f 137/201/58 139/128/58 136/130/58
f 139/128/59 141/132/59 140/131/59
f 141/132/26 143/134/26 142/133/26
f 143/134/27 145/56/27 144/135/27
f 145/56/60 148/137/60 146/136/60
f 148/137/61 150/139/61 147/138/61
f 150/139/72 153/141/72 149/140/72
f 153/141/54 155/144/54 152/143/54
f 155/144/55 156/256/55 154/145/55
f 156/256/73 158/146/73 154/145/73
f 137/202/6 158/257/6 139/149/6
f 158/257/6 156/150/6 139/149/6
f 156/150/6 155/258/6 141/148/6
f 155/258/6 153/259/6 145/260/6
f 153/259/6 150/261/6 145/260/6
f 148/262/6 145/260/6 150/261/6
f 145/260/6 143/263/6 155/258/6
f 143/263/6 141/148/6 155/258/6
f 158/146/74 137/71/74 157/147/74
f 136/264/5 138/153/5 157/152/5
f 138/153/5 140/265/5 154/151/5
f 140/265/5 142/266/5 154/151/5
f 142/266/5 144/267/5 152/268/5
f 144/267/5 146/269/5 149/270/5
f 147/271/5 149/270/5 146/269/5
f 149/270/5 151/272/5 144/267/5
f 151/272/5 152/268/5 144/267/5
f 152/268/5 154/151/5 142/266/5
f 160/201/65 162/128/65 159/155/65
f 162/128/66 163/132/66 161/154/66
f 163/132/67 165/156/67 161/154/67
f 165/156/47 168/158/47 164/157/47
f 168/158/68 170/161/68 167/160/68
f 170/161/61 172/139/61 169/162/61
f 172/139/72 175/141/72 171/163/72
f 175/141/54 177/165/54 174/164/54
f 177/165/55 178/256/55 176/145/55
f 178/256/73 180/166/73 176/145/73
f 160/202/6 180/273/6 162/149/6
f 180/273/6 178/150/6 162/149/6
f 178/150/6 177/274/6 163/148/6
f 177/274/6 175/259/6 168/275/6
f 175/259/6 172/261/6 168/275/6
f 170/276/6 168/275/6 172/261/6
f 168/275/6 165/277/6 177/274/6
f 165/277/6 163/148/6 177/274/6
f 180/166/74 160/71/74 179/147/74
f 159/278/5 161/167/5 179/152/5
f 161/167/5 164/222/5 176/151/5
f 164/222/5 166/279/5 174/280/5
f 166/279/5 167/281/5 171/282/5
f 169/283/5 171/282/5 167/281/5
f 171/282/5 173/272/5 166/279/5
f 173/272/5 174/280/5 166/279/5
f 174/280/5 176/151/5 164/222/5
