# Blender 4.3.1
# www.blender.org
mtllib hammer.mtl
o Cube
v 1.157665 0.779575 -0.401954
v 0.868392 0.170728 -0.401954
v 1.157665 0.779575 0.401954
v 0.868392 0.170728 0.401954
v -0.342893 1.492513 -0.401954
v -0.632165 0.883666 -0.401954
v -0.342893 1.492513 0.401954
v -0.632165 0.883666 0.401954
vn 0.4291 0.9032 -0.0000
vn -0.0000 -0.0000 1.0000
vn -0.9032 0.4291 -0.0000
vn -0.4291 -0.9032 -0.0000
vn 0.9032 -0.4291 -0.0000
vn -0.0000 -0.0000 -1.0000
vt 0.625000 0.500000
vt 0.875000 0.500000
vt 0.875000 0.750000
vt 0.625000 0.750000
vt 0.375000 0.750000
vt 0.625000 1.000000
vt 0.375000 1.000000
vt 0.375000 0.000000
vt 0.625000 0.000000
vt 0.625000 0.250000
vt 0.375000 0.250000
vt 0.125000 0.500000
vt 0.375000 0.500000
vt 0.125000 0.750000
s 0
usemtl Material
f 1/1/1 5/2/1 7/3/1 3/4/1
f 4/5/2 3/4/2 7/6/2 8/7/2
f 8/8/3 7/9/3 5/10/3 6/11/3
f 6/12/4 2/13/4 4/5/4 8/14/4
f 2/13/5 1/1/5 3/4/5 4/5/5
f 6/11/6 5/10/6 1/1/6 2/13/6
o Cylinder
v -0.691891 -1.177663 -0.160774
v 0.166392 0.628812 -0.160774
v -0.652162 -1.196539 -0.157685
v 0.206122 0.609935 -0.157685
v -0.613958 -1.214690 -0.148536
v 0.244325 0.591784 -0.148536
v -0.578750 -1.231418 -0.133679
v 0.279533 0.575056 -0.133679
v -0.547890 -1.246080 -0.113685
v 0.310394 0.560394 -0.113685
v -0.522564 -1.258113 -0.089321
v 0.335720 0.548361 -0.089321
v -0.503744 -1.267054 -0.061526
v 0.354539 0.539420 -0.061526
v -0.492156 -1.272560 -0.031366
v 0.366128 0.533914 -0.031366
v -0.488243 -1.274419 0.000000
v 0.370041 0.532055 0.000000
v -0.492156 -1.272560 0.031366
v 0.366128 0.533914 0.031366
v -0.503744 -1.267054 0.061526
v 0.354539 0.539420 0.061526
v -0.522564 -1.258113 0.089321
v 0.335720 0.548361 0.089321
v -0.547890 -1.246080 0.113685
v 0.310394 0.560394 0.113685
v -0.578750 -1.231418 0.133679
v 0.279533 0.575056 0.133679
v -0.613958 -1.214690 0.148536
v 0.244325 0.591784 0.148536
v -0.652162 -1.196539 0.157685
v 0.206122 0.609935 0.157685
v -0.691891 -1.177663 0.160774
v 0.166392 0.628812 0.160774
v -0.731621 -1.158786 0.157685
v 0.126662 0.647688 0.157685
v -0.769825 -1.140635 0.148536
v 0.088459 0.665839 0.148536
v -0.805033 -1.123907 0.133679
v 0.053251 0.682567 0.133679
v -0.835893 -1.109245 0.113685
v 0.022391 0.697229 0.113685
v -0.861219 -1.097212 0.089321
v -0.002936 0.709262 0.089321
v -0.880038 -1.088271 0.061526
v -0.021755 0.718203 0.061526
v -0.891627 -1.082765 0.031366
v -0.033344 0.723709 0.031366
v -0.895540 -1.080906 0.000000
v -0.037257 0.725568 0.000000
v -0.891627 -1.082765 -0.031366
v -0.033344 0.723709 -0.031366
v -0.880038 -1.088271 -0.061526
v -0.021755 0.718203 -0.061526
v -0.861219 -1.097212 -0.089321
v -0.002936 0.709262 -0.089321
v -0.835893 -1.109245 -0.113685
v 0.022391 0.697229 -0.113685
v -0.805033 -1.123907 -0.133679
v 0.053251 0.682567 -0.133679
v -0.769825 -1.140635 -0.148536
v 0.088459 0.665839 -0.148536
v -0.731621 -1.158786 -0.157685
v 0.126662 0.647688 -0.157685
vn 0.0633 -0.0301 -0.9975
vn 0.1910 -0.0907 -0.9774
vn 0.3217 -0.1528 -0.9344
vn 0.4562 -0.2167 -0.8631
vn 0.5924 -0.2815 -0.7549
vn 0.7227 -0.3434 -0.5998
vn 0.8312 -0.3949 -0.3915
vn 0.8947 -0.4251 -0.1368
vn 0.8947 -0.4251 0.1368
vn 0.8312 -0.3949 0.3915
vn 0.7227 -0.3434 0.5998
vn 0.5924 -0.2815 0.7549
vn 0.4562 -0.2167 0.8631
vn 0.3217 -0.1528 0.9344
vn 0.1910 -0.0907 0.9774
vn 0.0633 -0.0301 0.9975
vn -0.0633 0.0301 0.9975
vn -0.1910 0.0907 0.9774
vn -0.3217 0.1528 0.9344
vn -0.4562 0.2167 0.8631
vn -0.5924 0.2815 0.7549
vn -0.7227 0.3434 0.5998
vn -0.8312 0.3949 0.3915
vn -0.8947 0.4251 0.1368
vn -0.8947 0.4251 -0.1368
vn -0.8312 0.3949 -0.3915
vn -0.7227 0.3434 -0.5998
vn -0.5924 0.2815 -0.7549
vn -0.4562 0.2167 -0.8631
vn -0.3217 0.1528 -0.9344
vn 0.4291 0.9032 -0.0000
vn -0.1910 0.0907 -0.9774
vn -0.0633 0.0301 -0.9975
vn -0.4291 -0.9032 -0.0000
vt 1.000000 0.500000
vt 1.000000 1.000000
vt 0.968750 1.000000
vt 0.968750 0.500000
vt 0.937500 1.000000
vt 0.937500 0.500000
vt 0.906250 1.000000
vt 0.906250 0.500000
vt 0.875000 1.000000
vt 0.875000 0.500000
vt 0.843750 1.000000
vt 0.843750 0.500000
vt 0.812500 1.000000
vt 0.812500 0.500000
vt 0.781250 1.000000
vt 0.781250 0.500000
vt 0.750000 1.000000
vt 0.750000 0.500000
vt 0.718750 1.000000
vt 0.718750 0.500000
vt 0.687500 1.000000
vt 0.687500 0.500000
vt 0.656250 1.000000
vt 0.656250 0.500000
vt 0.625000 1.000000
vt 0.625000 0.500000
vt 0.593750 1.000000
vt 0.593750 0.500000
vt 0.562500 1.000000
vt 0.562500 0.500000
vt 0.531250 1.000000
vt 0.531250 0.500000
vt 0.500000 1.000000
vt 0.500000 0.500000
vt 0.468750 1.000000
vt 0.468750 0.500000
vt 0.437500 1.000000
vt 0.437500 0.500000
vt 0.406250 1.000000
vt 0.406250 0.500000
vt 0.375000 1.000000
vt 0.375000 0.500000
vt 0.343750 1.000000
vt 0.343750 0.500000
vt 0.312500 1.000000
vt 0.312500 0.500000
vt 0.281250 1.000000
vt 0.281250 0.500000
vt 0.250000 1.000000
vt 0.250000 0.500000
vt 0.218750 1.000000
vt 0.218750 0.500000
vt 0.187500 1.000000
vt 0.187500 0.500000
vt 0.156250 1.000000
vt 0.156250 0.500000
vt 0.125000 1.000000
vt 0.125000 0.500000
vt 0.093750 1.000000
vt 0.093750 0.500000
vt 0.062500 1.000000
vt 0.062500 0.500000
vt 0.296822 0.485388
vt 0.250000 0.490000
vt 0.203178 0.485388
vt 0.158156 0.471731
vt 0.116663 0.449553
vt 0.080294 0.419706
vt 0.050447 0.383337
vt 0.028269 0.341844
vt 0.014612 0.296822
vt 0.010000 0.250000
vt 0.014612 0.203178
vt 0.028269 0.158156
vt 0.050447 0.116663
vt 0.080294 0.080294
vt 0.116663 0.050447
vt 0.158156 0.028269
vt 0.203178 0.014612
vt 0.250000 0.010000
vt 0.296822 0.014612
vt 0.341844 0.028269
vt 0.383337 0.050447
vt 0.419706 0.080294
vt 0.449553 0.116663
vt 0.471731 0.158156
vt 0.485388 0.203178
vt 0.490000 0.250000
vt 0.485388 0.296822
vt 0.471731 0.341844
vt 0.449553 0.383337
vt 0.419706 0.419706
vt 0.383337 0.449553
vt 0.341844 0.471731
vt 0.031250 1.000000
vt 0.031250 0.500000
vt 0.000000 1.000000
vt 0.000000 0.500000
vt 0.750000 0.490000
vt 0.796822 0.485388
vt 0.841844 0.471731
vt 0.883337 0.449553
vt 0.919706 0.419706
vt 0.949553 0.383337
vt 0.971731 0.341844
vt 0.985388 0.296822
vt 0.990000 0.250000
vt 0.985388 0.203178
vt 0.971731 0.158156
vt 0.949553 0.116663
vt 0.919706 0.080294
vt 0.883337 0.050447
vt 0.841844 0.028269
vt 0.796822 0.014612
vt 0.750000 0.010000
vt 0.703178 0.014612
vt 0.658156 0.028269
vt 0.616663 0.050447
vt 0.580294 0.080294
vt 0.550447 0.116663
vt 0.528269 0.158156
vt 0.514612 0.203178
vt 0.510000 0.250000
vt 0.514612 0.296822
vt 0.528269 0.341844
vt 0.550447 0.383337
vt 0.580294 0.419706
vt 0.616663 0.449553
vt 0.658156 0.471731
vt 0.703178 0.485388
s 0
f 9/15/7 10/16/7 12/17/7 11/18/7
f 11/18/8 12/17/8 14/19/8 13/20/8
f 13/20/9 14/19/9 16/21/9 15/22/9
f 15/22/10 16/21/10 18/23/10 17/24/10
f 17/24/11 18/23/11 20/25/11 19/26/11
f 19/26/12 20/25/12 22/27/12 21/28/12
f 21/28/13 22/27/13 24/29/13 23/30/13
f 23/30/14 24/29/14 26/31/14 25/32/14
f 25/32/15 26/31/15 28/33/15 27/34/15
f 27/34/16 28/33/16 30/35/16 29/36/16
f 29/36/17 30/35/17 32/37/17 31/38/17
f 31/38/18 32/37/18 34/39/18 33/40/18
f 33/40/19 34/39/19 36/41/19 35/42/19
f 35/42/20 36/41/20 38/43/20 37/44/20
f 37/44/21 38/43/21 40/45/21 39/46/21
f 39/46/22 40/45/22 42/47/22 41/48/22
f 41/48/23 42/47/23 44/49/23 43/50/23
f 43/50/24 44/49/24 46/51/24 45/52/24
f 45/52/25 46/51/25 48/53/25 47/54/25
f 47/54/26 48/53/26 50/55/26 49/56/26
f 49/56/27 50/55/27 52/57/27 51/58/27
f 51/58/28 52/57/28 54/59/28 53/60/28
f 53/60/29 54/59/29 56/61/29 55/62/29
f 55/62/30 56/61/30 58/63/30 57/64/30
f 57/64/31 58/63/31 60/65/31 59/66/31
f 59/66/32 60/65/32 62/67/32 61/68/32
f 61/68/33 62/67/33 64/69/33 63/70/33
f 63/70/34 64/69/34 66/71/34 65/72/34
f 65/72/35 66/71/35 68/73/35 67/74/35
f 67/74/36 68/73/36 70/75/36 69/76/36
f 12/77/37 10/78/37 72/79/37 70/80/37 68/81/37 66/82/37 64/83/37 62/84/37 60/85/37 58/86/37 56/87/37 54/88/37 52/89/37 50/90/37 48/91/37 46/92/37 44/93/37 42/94/37 40/95/37 38/96/37 36/97/37 34/98/37 32/99/37 30/100/37 28/101/37 26/102/37 24/103/37 22/104/37 20/105/37 18/106/37 16/107/37 14/108/37
f 69/76/38 70/75/38 72/109/38 71/110/38
f 71/110/39 72/109/39 10/111/39 9/112/39
f 9/113/40 11/114/40 13/115/40 15/116/40 17/117/40 19/118/40 21/119/40 23/120/40 25/121/40 27/122/40 29/123/40 31/124/40 33/125/40 35/126/40 37/127/40 39/128/40 41/129/40 43/130/40 45/131/40 47/132/40 49/133/40 51/134/40 53/135/40 55/136/40 57/137/40 59/138/40 61/139/40 63/140/40 65/141/40 67/142/40 69/143/40 71/144/40
