# Blender 4.3.1
# www.blender.org
mtllib Wand_Mit_Tuer.mtl
o Cube.001
v 6.000000 6.000000 -1.000000
v 5.880000 5.880000 -0.900000
v 6.000000 0.000000 -1.000000
v 5.880000 0.120000 -0.900000
v 6.000000 6.000000 0.000000
v 6.000000 0.000000 0.000000
v 0.000000 6.000000 -1.000000
v 0.120000 5.880000 -0.900000
v 0.000000 0.000000 -1.000000
v 0.120000 0.120000 -0.900000
v 0.000000 6.000000 0.000000
v 0.000000 0.000000 0.000000
v 5.880000 0.120000 0.000000
v 0.120000 5.880000 0.000000
v 5.880000 5.880000 0.000000
v 0.120000 0.120000 0.000000
v 3.139047 4.610000 -1.000000
v 4.460953 4.610000 -1.000000
v 3.139047 1.390000 -1.000000
v 4.460953 1.390000 -1.000000
v 3.139047 1.390000 -0.900000
v 4.460953 1.390000 -0.900000
v 3.139047 4.610000 -0.900000
v 4.460953 4.610000 -0.900000
v 1.539047 4.610000 -1.000000
v 2.860953 4.610000 -1.000000
v 1.539047 1.390000 -1.000000
v 2.860953 1.390000 -1.000000
v 1.539047 1.390000 -0.900000
v 2.860953 1.390000 -0.900000
v 1.539047 4.610000 -0.900000
v 2.860953 4.610000 -0.900000
vn -0.0000 1.0000 -0.0000
vn -0.0000 -0.0000 1.0000
vn -1.0000 -0.0000 -0.0000
vn -0.0000 -1.0000 -0.0000
vn 1.0000 -0.0000 -0.0000
vn -0.0000 -0.0000 -1.0000
vt 0.875000 0.500000
vt 0.625000 0.750000
vt 0.625000 0.500000
vt 0.620000 0.755000
vt 0.625000 1.000000
vt 0.375000 1.000000
vt 0.380000 0.755000
vt 0.380000 0.995000
vt 0.625000 0.000000
vt 0.375000 0.250000
vt 0.375000 0.000000
vt 0.375000 0.500000
vt 0.125000 0.750000
vt 0.125000 0.500000
vt 0.375000 0.750000
vt 0.567083 0.435873
vt 0.625000 0.250000
vt 0.432917 0.314127
vt 0.432917 0.380794
vt 0.567083 0.369206
vt 0.567083 0.380794
vt 0.625000 0.725000
vt 0.875000 0.725000
vt 0.375000 0.025000
vt 0.125000 0.725000
vt 0.375000 0.725000
vt 0.569878 0.438409
vt 0.430122 0.438409
vt 0.569878 0.311591
vt 0.430122 0.381035
vt 0.569878 0.368965
vt 0.430122 0.368965
vt 0.375000 0.057382
vt 0.625000 0.044882
vt 0.375000 0.044882
vt 0.375000 0.705118
vt 0.625000 0.692618
vt 0.375000 0.692618
vt 0.125000 0.705118
vt 0.875000 0.705118
vt 0.875000 0.692618
vt 0.625000 0.705118
vt 0.875000 0.750000
vt 0.620000 0.995000
vt 0.432917 0.435873
vt 0.432917 0.369206
vt 0.567083 0.314127
vt 0.625000 0.025000
vt 0.569878 0.381035
vt 0.430121 0.311591
vt 0.625000 0.057382
vt 0.125000 0.692618
s 0
usemtl Material.001
f 7/1/1 5/2/1 1/3/1
f 15/4/2 5/2/2 11/5/2
f 12/6/2 13/7/2 16/8/2
f 11/9/3 9/10/3 12/11/3
f 3/12/4 12/13/4 9/14/4
f 1/3/5 6/15/5 3/12/5
f 3/12/6 18/16/6 1/3/6
f 9/10/6 7/17/6 27/18/6
f 19/19/6 26/20/6 17/21/6
f 8/1/4 15/22/4 14/23/4
f 8/17/5 16/24/5 10/10/5
f 4/12/1 16/25/1 13/26/1
f 4/12/3 15/22/3 2/3/3
f 4/12/2 24/27/2 22/28/2
f 8/17/2 10/10/2 31/29/2
f 21/30/2 32/31/2 30/32/2
f 19/33/5 23/34/5 21/35/5
f 22/36/3 18/37/3 20/38/3
f 20/38/1 21/39/1 22/36/1
f 18/37/4 23/40/4 17/41/4
f 27/33/5 31/34/5 29/35/5
f 26/37/3 30/36/3 32/42/3
f 28/38/1 29/39/1 30/36/1
f 26/37/4 31/40/4 25/41/4
f 7/1/1 11/43/1 5/2/1
f 15/4/2 13/7/2 6/15/2
f 11/5/2 12/6/2 16/8/2
f 11/5/2 16/8/2 14/44/2
f 15/4/2 6/15/2 5/2/2
f 11/5/2 14/44/2 15/4/2
f 12/6/2 6/15/2 13/7/2
f 11/9/3 7/17/3 9/10/3
f 3/12/4 6/15/4 12/13/4
f 1/3/5 5/2/5 6/15/5
f 3/12/6 20/45/6 18/16/6
f 19/19/6 20/45/6 3/12/6
f 7/17/6 1/3/6 17/21/6
f 1/3/6 18/16/6 17/21/6
f 19/19/6 3/12/6 9/10/6
f 28/46/6 19/19/6 9/10/6
f 7/17/6 17/21/6 26/20/6
f 7/17/6 26/20/6 25/47/6
f 27/18/6 28/46/6 9/10/6
f 7/17/6 25/47/6 27/18/6
f 19/19/6 28/46/6 26/20/6
f 8/1/4 2/3/4 15/22/4
f 8/17/5 14/48/5 16/24/5
f 4/12/1 10/14/1 16/25/1
f 4/12/3 13/26/3 15/22/3
f 4/12/2 2/3/2 24/27/2
f 23/49/2 24/27/2 2/3/2
f 10/10/2 4/12/2 21/30/2
f 4/12/2 22/28/2 21/30/2
f 23/49/2 2/3/2 8/17/2
f 32/31/2 23/49/2 8/17/2
f 10/10/2 21/30/2 30/32/2
f 10/10/2 30/32/2 29/50/2
f 31/29/2 32/31/2 8/17/2
f 10/10/2 29/50/2 31/29/2
f 21/30/2 23/49/2 32/31/2
f 19/33/5 17/51/5 23/34/5
f 22/36/3 24/42/3 18/37/3
f 20/38/1 19/52/1 21/39/1
f 18/37/4 24/42/4 23/40/4
f 27/33/5 25/51/5 31/34/5
f 26/37/3 28/38/3 30/36/3
f 28/38/1 27/52/1 29/39/1
f 26/37/4 32/42/4 31/40/4
o Cylinder.002
v 0.500000 -0.450000 -0.750000
v 0.500000 -0.050000 -0.750000
v 0.548773 -0.450000 -0.745196
v 0.548773 -0.050000 -0.745196
v 0.595671 -0.450000 -0.730970
v 0.595671 -0.050000 -0.730970
v 0.638893 -0.450000 -0.707867
v 0.638893 -0.050000 -0.707867
v 0.676777 -0.450000 -0.676777
v 0.676777 -0.050000 -0.676777
v 0.707867 -0.450000 -0.638893
v 0.707867 -0.050000 -0.638893
v 0.730970 -0.450000 -0.595671
v 0.730970 -0.050000 -0.595671
v 0.745196 -0.450000 -0.548773
v 0.745196 -0.050000 -0.548773
v 0.750000 -0.450000 -0.500000
v 0.750000 -0.050000 -0.500000
v 0.745196 -0.450000 -0.451227
v 0.745196 -0.050000 -0.451227
v 0.730970 -0.450000 -0.404329
v 0.730970 -0.050000 -0.404329
v 0.707867 -0.450000 -0.361107
v 0.707867 -0.050000 -0.361107
v 0.676777 -0.450000 -0.323223
v 0.676777 -0.050000 -0.323223
v 0.638893 -0.450000 -0.292133
v 0.638893 -0.050000 -0.292133
v 0.595671 -0.450000 -0.269030
v 0.595671 -0.050000 -0.269030
v 0.548773 -0.450000 -0.254804
v 0.548773 -0.050000 -0.254804
v 0.500000 -0.450000 -0.250000
v 0.500000 -0.050000 -0.250000
v 0.451227 -0.450000 -0.254804
v 0.451227 -0.050000 -0.254804
v 0.404329 -0.450000 -0.269030
v 0.404329 -0.050000 -0.269030
v 0.361107 -0.450000 -0.292133
v 0.361107 -0.050000 -0.292133
v 0.323223 -0.450000 -0.323223
v 0.323223 -0.050000 -0.323223
v 0.292133 -0.450000 -0.361107
v 0.292133 -0.050000 -0.361107
v 0.269030 -0.450000 -0.404329
v 0.269030 -0.050000 -0.404329
v 0.254804 -0.450000 -0.451227
v 0.254804 -0.050000 -0.451227
v 0.250000 -0.450000 -0.500000
v 0.250000 -0.050000 -0.500000
v 0.254804 -0.450000 -0.548773
v 0.254804 -0.050000 -0.548773
v 0.269030 -0.450000 -0.595671
v 0.269030 -0.050000 -0.595671
v 0.292133 -0.450000 -0.638893
v 0.292133 -0.050000 -0.638893
v 0.323223 -0.450000 -0.676777
v 0.323223 -0.050000 -0.676777
v 0.361107 -0.450000 -0.707867
v 0.361107 -0.050000 -0.707867
v 0.404329 -0.450000 -0.730970
v 0.404329 -0.050000 -0.730970
v 0.451227 -0.450000 -0.745196
v 0.451227 -0.050000 -0.745196
vn 0.0980 -0.0000 -0.9952
vn 0.2903 -0.0000 -0.9569
vn 0.4714 -0.0000 -0.8819
vn 0.6344 -0.0000 -0.7730
vn 0.7730 -0.0000 -0.6344
vn 0.8819 -0.0000 -0.4714
vn 0.9569 -0.0000 -0.2903
vn 0.9952 -0.0000 -0.0980
vn 0.9952 -0.0000 0.0980
vn 0.9569 -0.0000 0.2903
vn 0.8819 -0.0000 0.4714
vn 0.7730 -0.0000 0.6344
vn 0.6344 -0.0000 0.7730
vn 0.4714 -0.0000 0.8819
vn 0.2903 -0.0000 0.9569
vn 0.0980 -0.0000 0.9952
vn -0.0980 -0.0000 0.9952
vn -0.2903 -0.0000 0.9569
vn -0.4714 -0.0000 0.8819
vn -0.6344 -0.0000 0.7730
vn -0.7730 -0.0000 0.6344
vn -0.8819 -0.0000 0.4714
vn -0.9569 -0.0000 0.2903
vn -0.9952 -0.0000 0.0980
vn -0.9952 -0.0000 -0.0980
vn -0.9569 -0.0000 -0.2903
vn -0.8819 -0.0000 -0.4714
vn -0.7730 -0.0000 -0.6344
vn -0.6344 -0.0000 -0.7730
vn -0.4714 -0.0000 -0.8819
vn -0.0000 1.0000 -0.0000
vn -0.2903 -0.0000 -0.9569
vn -0.0980 -0.0000 -0.9952
vn -0.0000 -1.0000 -0.0000
vt 1.000000 1.000000
vt 0.968750 0.500000
vt 1.000000 0.500000
vt 0.968750 1.000000
vt 0.937500 0.500000
vt 0.937500 1.000000
vt 0.906250 0.500000
vt 0.906250 1.000000
vt 0.875000 0.500000
vt 0.875000 1.000000
vt 0.843750 0.500000
vt 0.843750 1.000000
vt 0.812500 0.500000
vt 0.812500 1.000000
vt 0.781250 0.500000
vt 0.781250 1.000000
vt 0.750000 0.500000
vt 0.750000 1.000000
vt 0.718750 0.500000
vt 0.718750 1.000000
vt 0.687500 0.500000
vt 0.687500 1.000000
vt 0.656250 0.500000
vt 0.656250 1.000000
vt 0.625000 0.500000
vt 0.625000 1.000000
vt 0.593750 0.500000
vt 0.593750 1.000000
vt 0.562500 0.500000
vt 0.562500 1.000000
vt 0.531250 0.500000
vt 0.531250 1.000000
vt 0.500000 0.500000
vt 0.500000 1.000000
vt 0.468750 0.500000
vt 0.468750 1.000000
vt 0.437500 0.500000
vt 0.437500 1.000000
vt 0.406250 0.500000
vt 0.406250 1.000000
vt 0.375000 0.500000
vt 0.375000 1.000000
vt 0.343750 0.500000
vt 0.343750 1.000000
vt 0.312500 0.500000
vt 0.312500 1.000000
vt 0.281250 0.500000
vt 0.281250 1.000000
vt 0.250000 0.500000
vt 0.250000 1.000000
vt 0.218750 0.500000
vt 0.218750 1.000000
vt 0.187500 0.500000
vt 0.187500 1.000000
vt 0.156250 0.500000
vt 0.156250 1.000000
vt 0.125000 0.500000
vt 0.125000 1.000000
vt 0.093750 0.500000
vt 0.093750 1.000000
vt 0.062500 0.500000
vt 0.158156 0.028269
vt 0.471731 0.158156
vt 0.341844 0.471731
vt 0.062500 1.000000
vt 0.031250 0.500000
vt 0.031250 1.000000
vt 0.000000 0.500000
vt 0.796822 0.014612
vt 0.514612 0.203178
vt 0.703178 0.485388
vt 0.296822 0.485388
vt 0.250000 0.490000
vt 0.203178 0.485388
vt 0.158156 0.471731
vt 0.116663 0.449553
vt 0.080294 0.419706
vt 0.050447 0.383337
vt 0.028269 0.341844
vt 0.014612 0.296822
vt 0.010000 0.250000
vt 0.014612 0.203178
vt 0.028269 0.158156
vt 0.050447 0.116663
vt 0.080294 0.080294
vt 0.116663 0.050447
vt 0.203178 0.014612
vt 0.341844 0.028269
vt 0.250000 0.010000
vt 0.296822 0.014612
vt 0.383337 0.050447
vt 0.419706 0.080294
vt 0.449553 0.116663
vt 0.485388 0.203178
vt 0.471731 0.341844
vt 0.490000 0.250000
vt 0.485388 0.296822
vt 0.449553 0.383337
vt 0.419706 0.419706
vt 0.383337 0.449553
vt 0.000000 1.000000
vt 0.750000 0.490000
vt 0.796822 0.485388
vt 0.841844 0.471731
vt 0.883337 0.449553
vt 0.919706 0.419706
vt 0.949553 0.383337
vt 0.971731 0.341844
vt 0.985388 0.296822
vt 0.990000 0.250000
vt 0.985388 0.203178
vt 0.971731 0.158156
vt 0.949553 0.116663
vt 0.919706 0.080294
vt 0.883337 0.050447
vt 0.841844 0.028269
vt 0.750000 0.010000
vt 0.703178 0.014612
vt 0.658156 0.028269
vt 0.616663 0.050447
vt 0.580294 0.080294
vt 0.550447 0.116663
vt 0.528269 0.158156
vt 0.510000 0.250000
vt 0.514612 0.296822
vt 0.528269 0.341844
vt 0.550447 0.383337
vt 0.580294 0.419706
vt 0.616663 0.449553
vt 0.658156 0.471731
s 0
f 34/53/7 35/54/7 33/55/7
f 36/56/8 37/57/8 35/54/8
f 38/58/9 39/59/9 37/57/9
f 40/60/10 41/61/10 39/59/10
f 42/62/11 43/63/11 41/61/11
f 44/64/12 45/65/12 43/63/12
f 46/66/13 47/67/13 45/65/13
f 48/68/14 49/69/14 47/67/14
f 50/70/15 51/71/15 49/69/15
f 52/72/16 53/73/16 51/71/16
f 54/74/17 55/75/17 53/73/17
f 56/76/18 57/77/18 55/75/18
f 58/78/19 59/79/19 57/77/19
f 60/80/20 61/81/20 59/79/20
f 62/82/21 63/83/21 61/81/21
f 64/84/22 65/85/22 63/83/22
f 66/86/23 67/87/23 65/85/23
f 68/88/24 69/89/24 67/87/24
f 70/90/25 71/91/25 69/89/25
f 72/92/26 73/93/26 71/91/26
f 74/94/27 75/95/27 73/93/27
f 76/96/28 77/97/28 75/95/28
f 78/98/29 79/99/29 77/97/29
f 80/100/30 81/101/30 79/99/30
f 82/102/31 83/103/31 81/101/31
f 84/104/32 85/105/32 83/103/32
f 86/106/33 87/107/33 85/105/33
f 88/108/34 89/109/34 87/107/34
f 90/110/35 91/111/35 89/109/35
f 92/112/36 93/113/36 91/111/36
f 70/114/37 54/115/37 38/116/37
f 94/117/38 95/118/38 93/113/38
f 96/119/39 33/120/39 95/118/39
f 63/121/40 79/122/40 95/123/40
f 34/53/7 36/56/7 35/54/7
f 36/56/8 38/58/8 37/57/8
f 38/58/9 40/60/9 39/59/9
f 40/60/10 42/62/10 41/61/10
f 42/62/11 44/64/11 43/63/11
f 44/64/12 46/66/12 45/65/12
f 46/66/13 48/68/13 47/67/13
f 48/68/14 50/70/14 49/69/14
f 50/70/15 52/72/15 51/71/15
f 52/72/16 54/74/16 53/73/16
f 54/74/17 56/76/17 55/75/17
f 56/76/18 58/78/18 57/77/18
f 58/78/19 60/80/19 59/79/19
f 60/80/20 62/82/20 61/81/20
f 62/82/21 64/84/21 63/83/21
f 64/84/22 66/86/22 65/85/22
f 66/86/23 68/88/23 67/87/23
f 68/88/24 70/90/24 69/89/24
f 70/90/25 72/92/25 71/91/25
f 72/92/26 74/94/26 73/93/26
f 74/94/27 76/96/27 75/95/27
f 76/96/28 78/98/28 77/97/28
f 78/98/29 80/100/29 79/99/29
f 80/100/30 82/102/30 81/101/30
f 82/102/31 84/104/31 83/103/31
f 84/104/32 86/106/32 85/105/32
f 86/106/33 88/108/33 87/107/33
f 88/108/34 90/110/34 89/109/34
f 90/110/35 92/112/35 91/111/35
f 92/112/36 94/117/36 93/113/36
f 38/116/37 36/124/37 34/125/37
f 34/125/37 96/126/37 38/116/37
f 96/126/37 94/127/37 38/116/37
f 94/127/37 92/128/37 90/129/37
f 90/129/37 88/130/37 86/131/37
f 86/131/37 84/132/37 82/133/37
f 82/133/37 80/134/37 86/131/37
f 80/134/37 78/135/37 86/131/37
f 78/135/37 76/136/37 74/137/37
f 74/137/37 72/138/37 70/114/37
f 70/114/37 68/139/37 62/140/37
f 68/139/37 66/141/37 62/140/37
f 66/141/37 64/142/37 62/140/37
f 62/140/37 60/143/37 58/144/37
f 58/144/37 56/145/37 54/115/37
f 54/115/37 52/146/37 46/147/37
f 52/146/37 50/148/37 46/147/37
f 50/148/37 48/149/37 46/147/37
f 46/147/37 44/150/37 42/151/37
f 42/151/37 40/152/37 38/116/37
f 94/127/37 90/129/37 38/116/37
f 90/129/37 86/131/37 38/116/37
f 78/135/37 74/137/37 86/131/37
f 74/137/37 70/114/37 86/131/37
f 62/140/37 58/144/37 70/114/37
f 58/144/37 54/115/37 70/114/37
f 46/147/37 42/151/37 54/115/37
f 42/151/37 38/116/37 54/115/37
f 38/116/37 86/131/37 70/114/37
f 94/117/38 96/119/38 95/118/38
f 96/119/39 34/153/39 33/120/39
f 95/123/40 33/154/40 35/155/40
f 35/155/40 37/156/40 39/157/40
f 39/157/40 41/158/40 43/159/40
f 43/159/40 45/160/40 47/161/40
f 47/161/40 49/162/40 51/163/40
f 51/163/40 53/164/40 55/165/40
f 55/165/40 57/166/40 59/167/40
f 59/167/40 61/168/40 63/121/40
f 63/121/40 65/169/40 67/170/40
f 67/170/40 69/171/40 71/172/40
f 71/172/40 73/173/40 75/174/40
f 75/174/40 77/175/40 79/122/40
f 79/122/40 81/176/40 83/177/40
f 83/177/40 85/178/40 87/179/40
f 87/179/40 89/180/40 91/181/40
f 91/181/40 93/182/40 95/123/40
f 95/123/40 35/155/40 47/161/40
f 35/155/40 39/157/40 47/161/40
f 39/157/40 43/159/40 47/161/40
f 47/161/40 51/163/40 63/121/40
f 51/163/40 55/165/40 63/121/40
f 55/165/40 59/167/40 63/121/40
f 63/121/40 67/170/40 79/122/40
f 67/170/40 71/172/40 79/122/40
f 71/172/40 75/174/40 79/122/40
f 79/122/40 83/177/40 95/123/40
f 83/177/40 87/179/40 95/123/40
f 87/179/40 91/181/40 95/123/40
f 95/123/40 47/161/40 63/121/40
o Cylinder.001
v 5.500000 -0.450000 -0.750000
v 5.500000 -0.050000 -0.750000
v 5.548773 -0.450000 -0.745196
v 5.548773 -0.050000 -0.745196
v 5.595671 -0.450000 -0.730970
v 5.595671 -0.050000 -0.730970
v 5.638893 -0.450000 -0.707867
v 5.638893 -0.050000 -0.707867
v 5.676777 -0.450000 -0.676777
v 5.676777 -0.050000 -0.676777
v 5.707868 -0.450000 -0.638893
v 5.707868 -0.050000 -0.638893
v 5.730970 -0.450000 -0.595671
v 5.730970 -0.050000 -0.595671
v 5.745196 -0.450000 -0.548773
v 5.745196 -0.050000 -0.548773
v 5.750000 -0.450000 -0.500000
v 5.750000 -0.050000 -0.500000
v 5.745196 -0.450000 -0.451227
v 5.745196 -0.050000 -0.451227
v 5.730970 -0.450000 -0.404329
v 5.730970 -0.050000 -0.404329
v 5.707868 -0.450000 -0.361107
v 5.707868 -0.050000 -0.361107
v 5.676777 -0.450000 -0.323223
v 5.676777 -0.050000 -0.323223
v 5.638893 -0.450000 -0.292133
v 5.638893 -0.050000 -0.292133
v 5.595671 -0.450000 -0.269030
v 5.595671 -0.050000 -0.269030
v 5.548773 -0.450000 -0.254804
v 5.548773 -0.050000 -0.254804
v 5.500000 -0.450000 -0.250000
v 5.500000 -0.050000 -0.250000
v 5.451227 -0.450000 -0.254804
v 5.451227 -0.050000 -0.254804
v 5.404329 -0.450000 -0.269030
v 5.404329 -0.050000 -0.269030
v 5.361107 -0.450000 -0.292133
v 5.361107 -0.050000 -0.292133
v 5.323223 -0.450000 -0.323223
v 5.323223 -0.050000 -0.323223
v 5.292132 -0.450000 -0.361107
v 5.292132 -0.050000 -0.361107
v 5.269030 -0.450000 -0.404329
v 5.269030 -0.050000 -0.404329
v 5.254804 -0.450000 -0.451227
v 5.254804 -0.050000 -0.451227
v 5.250000 -0.450000 -0.500000
v 5.250000 -0.050000 -0.500000
v 5.254804 -0.450000 -0.548773
v 5.254804 -0.050000 -0.548773
v 5.269030 -0.450000 -0.595671
v 5.269030 -0.050000 -0.595671
v 5.292132 -0.450000 -0.638893
v 5.292132 -0.050000 -0.638893
v 5.323223 -0.450000 -0.676777
v 5.323223 -0.050000 -0.676777
v 5.361107 -0.450000 -0.707867
v 5.361107 -0.050000 -0.707867
v 5.404329 -0.450000 -0.730970
v 5.404329 -0.050000 -0.730970
v 5.451227 -0.450000 -0.745196
v 5.451227 -0.050000 -0.745196
vn 0.0980 -0.0000 -0.9952
vn 0.2903 -0.0000 -0.9569
vn 0.4714 -0.0000 -0.8819
vn 0.6344 -0.0000 -0.7730
vn 0.7730 -0.0000 -0.6344
vn 0.8819 -0.0000 -0.4714
vn 0.9569 -0.0000 -0.2903
vn 0.9952 -0.0000 -0.0980
vn 0.9952 -0.0000 0.0980
vn 0.9569 -0.0000 0.2903
vn 0.8819 -0.0000 0.4714
vn 0.7730 -0.0000 0.6344
vn 0.6344 -0.0000 0.7730
vn 0.4714 -0.0000 0.8819
vn 0.2903 -0.0000 0.9569
vn 0.0980 -0.0000 0.9952
vn -0.0980 -0.0000 0.9952
vn -0.2903 -0.0000 0.9569
vn -0.4714 -0.0000 0.8819
vn -0.6344 -0.0000 0.7730
vn -0.7730 -0.0000 0.6344
vn -0.8819 -0.0000 0.4714
vn -0.9569 -0.0000 0.2903
vn -0.9952 -0.0000 0.0980
vn -0.9952 -0.0000 -0.0980
vn -0.9569 -0.0000 -0.2903
vn -0.8819 -0.0000 -0.4714
vn -0.7730 -0.0000 -0.6344
vn -0.6344 -0.0000 -0.7730
vn -0.4714 -0.0000 -0.8819
vn -0.0000 1.0000 -0.0000
vn -0.2903 -0.0000 -0.9569
vn -0.0980 -0.0000 -0.9952
vn -0.0000 -1.0000 -0.0000
vt 1.000000 1.000000
vt 0.968750 0.500000
vt 1.000000 0.500000
vt 0.968750 1.000000
vt 0.937500 0.500000
vt 0.937500 1.000000
vt 0.906250 0.500000
vt 0.906250 1.000000
vt 0.875000 0.500000
vt 0.875000 1.000000
vt 0.843750 0.500000
vt 0.843750 1.000000
vt 0.812500 0.500000
vt 0.812500 1.000000
vt 0.781250 0.500000
vt 0.781250 1.000000
vt 0.750000 0.500000
vt 0.750000 1.000000
vt 0.718750 0.500000
vt 0.718750 1.000000
vt 0.687500 0.500000
vt 0.687500 1.000000
vt 0.656250 0.500000
vt 0.656250 1.000000
vt 0.625000 0.500000
vt 0.625000 1.000000
vt 0.593750 0.500000
vt 0.593750 1.000000
vt 0.562500 0.500000
vt 0.562500 1.000000
vt 0.531250 0.500000
vt 0.531250 1.000000
vt 0.500000 0.500000
vt 0.500000 1.000000
vt 0.468750 0.500000
vt 0.468750 1.000000
vt 0.437500 0.500000
vt 0.437500 1.000000
vt 0.406250 0.500000
vt 0.406250 1.000000
vt 0.375000 0.500000
vt 0.375000 1.000000
vt 0.343750 0.500000
vt 0.343750 1.000000
vt 0.312500 0.500000
vt 0.312500 1.000000
vt 0.281250 0.500000
vt 0.281250 1.000000
vt 0.250000 0.500000
vt 0.250000 1.000000
vt 0.218750 0.500000
vt 0.218750 1.000000
vt 0.187500 0.500000
vt 0.187500 1.000000
vt 0.156250 0.500000
vt 0.156250 1.000000
vt 0.125000 0.500000
vt 0.125000 1.000000
vt 0.093750 0.500000
vt 0.093750 1.000000
vt 0.062500 0.500000
vt 0.158156 0.028269
vt 0.471731 0.158156
vt 0.341844 0.471731
vt 0.062500 1.000000
vt 0.031250 0.500000
vt 0.031250 1.000000
vt 0.000000 0.500000
vt 0.796822 0.014612
vt 0.514612 0.203178
vt 0.703178 0.485388
vt 0.296822 0.485388
vt 0.250000 0.490000
vt 0.203178 0.485388
vt 0.158156 0.471731
vt 0.116663 0.449553
vt 0.080294 0.419706
vt 0.050447 0.383337
vt 0.028269 0.341844
vt 0.014612 0.296822
vt 0.010000 0.250000
vt 0.014612 0.203178
vt 0.028269 0.158156
vt 0.050447 0.116663
vt 0.080294 0.080294
vt 0.116663 0.050447
vt 0.203178 0.014612
vt 0.341844 0.028269
vt 0.250000 0.010000
vt 0.296822 0.014612
vt 0.383337 0.050447
vt 0.419706 0.080294
vt 0.449553 0.116663
vt 0.485388 0.203178
vt 0.471731 0.341844
vt 0.490000 0.250000
vt 0.485388 0.296822
vt 0.449553 0.383337
vt 0.419706 0.419706
vt 0.383337 0.449553
vt 0.000000 1.000000
vt 0.750000 0.490000
vt 0.796822 0.485388
vt 0.841844 0.471731
vt 0.883337 0.449553
vt 0.919706 0.419706
vt 0.949553 0.383337
vt 0.971731 0.341844
vt 0.985388 0.296822
vt 0.990000 0.250000
vt 0.985388 0.203178
vt 0.971731 0.158156
vt 0.949553 0.116663
vt 0.919706 0.080294
vt 0.883337 0.050447
vt 0.841844 0.028269
vt 0.750000 0.010000
vt 0.703178 0.014612
vt 0.658156 0.028269
vt 0.616663 0.050447
vt 0.580294 0.080294
vt 0.550447 0.116663
vt 0.528269 0.158156
vt 0.510000 0.250000
vt 0.514612 0.296822
vt 0.528269 0.341844
vt 0.550447 0.383337
vt 0.580294 0.419706
vt 0.616663 0.449553
vt 0.658156 0.471731
s 0
f 98/183/41 99/184/41 97/185/41
f 100/186/42 101/187/42 99/184/42
f 102/188/43 103/189/43 101/187/43
f 104/190/44 105/191/44 103/189/44
f 106/192/45 107/193/45 105/191/45
f 108/194/46 109/195/46 107/193/46
f 110/196/47 111/197/47 109/195/47
f 112/198/48 113/199/48 111/197/48
f 114/200/49 115/201/49 113/199/49
f 116/202/50 117/203/50 115/201/50
f 118/204/51 119/205/51 117/203/51
f 120/206/52 121/207/52 119/205/52
f 122/208/53 123/209/53 121/207/53
f 124/210/54 125/211/54 123/209/54
f 126/212/55 127/213/55 125/211/55
f 128/214/56 129/215/56 127/213/56
f 130/216/57 131/217/57 129/215/57
f 132/218/58 133/219/58 131/217/58
f 134/220/59 135/221/59 133/219/59
f 136/222/60 137/223/60 135/221/60
f 138/224/61 139/225/61 137/223/61
f 140/226/62 141/227/62 139/225/62
f 142/228/63 143/229/63 141/227/63
f 144/230/64 145/231/64 143/229/64
f 146/232/65 147/233/65 145/231/65
f 148/234/66 149/235/66 147/233/66
f 150/236/67 151/237/67 149/235/67
f 152/238/68 153/239/68 151/237/68
f 154/240/69 155/241/69 153/239/69
f 156/242/70 157/243/70 155/241/70
f 134/244/71 118/245/71 102/246/71
f 158/247/72 159/248/72 157/243/72
f 160/249/73 97/250/73 159/248/73
f 127/251/74 143/252/74 159/253/74
f 98/183/41 100/186/41 99/184/41
f 100/186/42 102/188/42 101/187/42
f 102/188/43 104/190/43 103/189/43
f 104/190/44 106/192/44 105/191/44
f 106/192/45 108/194/45 107/193/45
f 108/194/46 110/196/46 109/195/46
f 110/196/47 112/198/47 111/197/47
f 112/198/48 114/200/48 113/199/48
f 114/200/49 116/202/49 115/201/49
f 116/202/50 118/204/50 117/203/50
f 118/204/51 120/206/51 119/205/51
f 120/206/52 122/208/52 121/207/52
f 122/208/53 124/210/53 123/209/53
f 124/210/54 126/212/54 125/211/54
f 126/212/55 128/214/55 127/213/55
f 128/214/56 130/216/56 129/215/56
f 130/216/57 132/218/57 131/217/57
f 132/218/58 134/220/58 133/219/58
f 134/220/59 136/222/59 135/221/59
f 136/222/60 138/224/60 137/223/60
f 138/224/61 140/226/61 139/225/61
f 140/226/62 142/228/62 141/227/62
f 142/228/63 144/230/63 143/229/63
f 144/230/64 146/232/64 145/231/64
f 146/232/65 148/234/65 147/233/65
f 148/234/66 150/236/66 149/235/66
f 150/236/67 152/238/67 151/237/67
f 152/238/68 154/240/68 153/239/68
f 154/240/69 156/242/69 155/241/69
f 156/242/70 158/247/70 157/243/70
f 102/246/71 100/254/71 98/255/71
f 98/255/71 160/256/71 102/246/71
f 160/256/71 158/257/71 102/246/71
f 158/257/71 156/258/71 154/259/71
f 154/259/71 152/260/71 150/261/71
f 150/261/71 148/262/71 146/263/71
f 146/263/71 144/264/71 150/261/71
f 144/264/71 142/265/71 150/261/71
f 142/265/71 140/266/71 138/267/71
f 138/267/71 136/268/71 134/244/71
f 134/244/71 132/269/71 126/270/71
f 132/269/71 130/271/71 126/270/71
f 130/271/71 128/272/71 126/270/71
f 126/270/71 124/273/71 122/274/71
f 122/274/71 120/275/71 118/245/71
f 118/245/71 116/276/71 110/277/71
f 116/276/71 114/278/71 110/277/71
f 114/278/71 112/279/71 110/277/71
f 110/277/71 108/280/71 106/281/71
f 106/281/71 104/282/71 102/246/71
f 158/257/71 154/259/71 102/246/71
f 154/259/71 150/261/71 102/246/71
f 142/265/71 138/267/71 150/261/71
f 138/267/71 134/244/71 150/261/71
f 126/270/71 122/274/71 134/244/71
f 122/274/71 118/245/71 134/244/71
f 110/277/71 106/281/71 118/245/71
f 106/281/71 102/246/71 118/245/71
f 102/246/71 150/261/71 134/244/71
f 158/247/72 160/249/72 159/248/72
f 160/249/73 98/283/73 97/250/73
f 159/253/74 97/284/74 99/285/74
f 99/285/74 101/286/74 103/287/74
f 103/287/74 105/288/74 107/289/74
f 107/289/74 109/290/74 111/291/74
f 111/291/74 113/292/74 115/293/74
f 115/293/74 117/294/74 119/295/74
f 119/295/74 121/296/74 123/297/74
f 123/297/74 125/298/74 127/251/74
f 127/251/74 129/299/74 131/300/74
f 131/300/74 133/301/74 135/302/74
f 135/302/74 137/303/74 139/304/74
f 139/304/74 141/305/74 143/252/74
f 143/252/74 145/306/74 147/307/74
f 147/307/74 149/308/74 151/309/74
f 151/309/74 153/310/74 155/311/74
f 155/311/74 157/312/74 159/253/74
f 159/253/74 99/285/74 111/291/74
f 99/285/74 103/287/74 111/291/74
f 103/287/74 107/289/74 111/291/74
f 111/291/74 115/293/74 127/251/74
f 115/293/74 119/295/74 127/251/74
f 119/295/74 123/297/74 127/251/74
f 127/251/74 131/300/74 143/252/74
f 131/300/74 135/302/74 143/252/74
f 135/302/74 139/304/74 143/252/74
f 143/252/74 147/307/74 159/253/74
f 147/307/74 151/309/74 159/253/74
f 151/309/74 155/311/74 159/253/74
f 159/253/74 111/291/74 127/251/74
o Cylinder.003
v 5.500000 6.050000 -0.750000
v 5.500000 6.450000 -0.750000
v 5.548773 6.050000 -0.745196
v 5.548773 6.450000 -0.745196
v 5.595671 6.050000 -0.730970
v 5.595671 6.450000 -0.730970
v 5.638893 6.050000 -0.707867
v 5.638893 6.450000 -0.707867
v 5.676777 6.050000 -0.676777
v 5.676777 6.450000 -0.676777
v 5.707868 6.050000 -0.638893
v 5.707868 6.450000 -0.638893
v 5.730970 6.050000 -0.595671
v 5.730970 6.450000 -0.595671
v 5.745196 6.050000 -0.548773
v 5.745196 6.450000 -0.548773
v 5.750000 6.050000 -0.500000
v 5.750000 6.450000 -0.500000
v 5.745196 6.050000 -0.451227
v 5.745196 6.450000 -0.451227
v 5.730970 6.050000 -0.404329
v 5.730970 6.450000 -0.404329
v 5.707868 6.050000 -0.361107
v 5.707868 6.450000 -0.361107
v 5.676777 6.050000 -0.323223
v 5.676777 6.450000 -0.323223
v 5.638893 6.050000 -0.292133
v 5.638893 6.450000 -0.292133
v 5.595671 6.050000 -0.269030
v 5.595671 6.450000 -0.269030
v 5.548773 6.050000 -0.254804
v 5.548773 6.450000 -0.254804
v 5.500000 6.050000 -0.250000
v 5.500000 6.450000 -0.250000
v 5.451227 6.050000 -0.254804
v 5.451227 6.450000 -0.254804
v 5.404329 6.050000 -0.269030
v 5.404329 6.450000 -0.269030
v 5.361107 6.050000 -0.292133
v 5.361107 6.450000 -0.292133
v 5.323223 6.050000 -0.323223
v 5.323223 6.450000 -0.323223
v 5.292132 6.050000 -0.361107
v 5.292132 6.450000 -0.361107
v 5.269030 6.050000 -0.404329
v 5.269030 6.450000 -0.404329
v 5.254804 6.050000 -0.451227
v 5.254804 6.450000 -0.451227
v 5.250000 6.050000 -0.500000
v 5.250000 6.450000 -0.500000
v 5.254804 6.050000 -0.548773
v 5.254804 6.450000 -0.548773
v 5.269030 6.050000 -0.595671
v 5.269030 6.450000 -0.595671
v 5.292132 6.050000 -0.638893
v 5.292132 6.450000 -0.638893
v 5.323223 6.050000 -0.676777
v 5.323223 6.450000 -0.676777
v 5.361107 6.050000 -0.707867
v 5.361107 6.450000 -0.707867
v 5.404329 6.050000 -0.730970
v 5.404329 6.450000 -0.730970
v 5.451227 6.050000 -0.745196
v 5.451227 6.450000 -0.745196
vn 0.0980 -0.0000 -0.9952
vn 0.2903 -0.0000 -0.9569
vn 0.4714 -0.0000 -0.8819
vn 0.6344 -0.0000 -0.7730
vn 0.7730 -0.0000 -0.6344
vn 0.8819 -0.0000 -0.4714
vn 0.9569 -0.0000 -0.2903
vn 0.9952 -0.0000 -0.0980
vn 0.9952 -0.0000 0.0980
vn 0.9569 -0.0000 0.2903
vn 0.8819 -0.0000 0.4714
vn 0.7730 -0.0000 0.6344
vn 0.6344 -0.0000 0.7730
vn 0.4714 -0.0000 0.8819
vn 0.2903 -0.0000 0.9569
vn 0.0980 -0.0000 0.9952
vn -0.0980 -0.0000 0.9952
vn -0.2903 -0.0000 0.9569
vn -0.4714 -0.0000 0.8819
vn -0.6344 -0.0000 0.7730
vn -0.7730 -0.0000 0.6344
vn -0.8819 -0.0000 0.4714
vn -0.9569 -0.0000 0.2903
vn -0.9952 -0.0000 0.0980
vn -0.9952 -0.0000 -0.0980
vn -0.9569 -0.0000 -0.2903
vn -0.8819 -0.0000 -0.4714
vn -0.7730 -0.0000 -0.6344
vn -0.6344 -0.0000 -0.7730
vn -0.4714 -0.0000 -0.8819
vn -0.0000 1.0000 -0.0000
vn -0.2903 -0.0000 -0.9569
vn -0.0980 -0.0000 -0.9952
vn -0.0000 -1.0000 -0.0000
vt 1.000000 1.000000
vt 0.968750 0.500000
vt 1.000000 0.500000
vt 0.968750 1.000000
vt 0.937500 0.500000
vt 0.937500 1.000000
vt 0.906250 0.500000
vt 0.906250 1.000000
vt 0.875000 0.500000
vt 0.875000 1.000000
vt 0.843750 0.500000
vt 0.843750 1.000000
vt 0.812500 0.500000
vt 0.812500 1.000000
vt 0.781250 0.500000
vt 0.781250 1.000000
vt 0.750000 0.500000
vt 0.750000 1.000000
vt 0.718750 0.500000
vt 0.718750 1.000000
vt 0.687500 0.500000
vt 0.687500 1.000000
vt 0.656250 0.500000
vt 0.656250 1.000000
vt 0.625000 0.500000
vt 0.625000 1.000000
vt 0.593750 0.500000
vt 0.593750 1.000000
vt 0.562500 0.500000
vt 0.562500 1.000000
vt 0.531250 0.500000
vt 0.531250 1.000000
vt 0.500000 0.500000
vt 0.500000 1.000000
vt 0.468750 0.500000
vt 0.468750 1.000000
vt 0.437500 0.500000
vt 0.437500 1.000000
vt 0.406250 0.500000
vt 0.406250 1.000000
vt 0.375000 0.500000
vt 0.375000 1.000000
vt 0.343750 0.500000
vt 0.343750 1.000000
vt 0.312500 0.500000
vt 0.312500 1.000000
vt 0.281250 0.500000
vt 0.281250 1.000000
vt 0.250000 0.500000
vt 0.250000 1.000000
vt 0.218750 0.500000
vt 0.218750 1.000000
vt 0.187500 0.500000
vt 0.187500 1.000000
vt 0.156250 0.500000
vt 0.156250 1.000000
vt 0.125000 0.500000
vt 0.125000 1.000000
vt 0.093750 0.500000
vt 0.093750 1.000000
vt 0.062500 0.500000
vt 0.158156 0.028269
vt 0.471731 0.158156
vt 0.341844 0.471731
vt 0.062500 1.000000
vt 0.031250 0.500000
vt 0.031250 1.000000
vt 0.000000 0.500000
vt 0.796822 0.014612
vt 0.514612 0.203178
vt 0.703178 0.485388
vt 0.296822 0.485388
vt 0.250000 0.490000
vt 0.203178 0.485388
vt 0.158156 0.471731
vt 0.116663 0.449553
vt 0.080294 0.419706
vt 0.050447 0.383337
vt 0.028269 0.341844
vt 0.014612 0.296822
vt 0.010000 0.250000
vt 0.014612 0.203178
vt 0.028269 0.158156
vt 0.050447 0.116663
vt 0.080294 0.080294
vt 0.116663 0.050447
vt 0.203178 0.014612
vt 0.341844 0.028269
vt 0.250000 0.010000
vt 0.296822 0.014612
vt 0.383337 0.050447
vt 0.419706 0.080294
vt 0.449553 0.116663
vt 0.485388 0.203178
vt 0.471731 0.341844
vt 0.490000 0.250000
vt 0.485388 0.296822
vt 0.449553 0.383337
vt 0.419706 0.419706
vt 0.383337 0.449553
vt 0.000000 1.000000
vt 0.750000 0.490000
vt 0.796822 0.485388
vt 0.841844 0.471731
vt 0.883337 0.449553
vt 0.919706 0.419706
vt 0.949553 0.383337
vt 0.971731 0.341844
vt 0.985388 0.296822
vt 0.990000 0.250000
vt 0.985388 0.203178
vt 0.971731 0.158156
vt 0.949553 0.116663
vt 0.919706 0.080294
vt 0.883337 0.050447
vt 0.841844 0.028269
vt 0.750000 0.010000
vt 0.703178 0.014612
vt 0.658156 0.028269
vt 0.616663 0.050447
vt 0.580294 0.080294
vt 0.550447 0.116663
vt 0.528269 0.158156
vt 0.510000 0.250000
vt 0.514612 0.296822
vt 0.528269 0.341844
vt 0.550447 0.383337
vt 0.580294 0.419706
vt 0.616663 0.449553
vt 0.658156 0.471731
s 0
f 162/313/75 163/314/75 161/315/75
f 164/316/76 165/317/76 163/314/76
f 166/318/77 167/319/77 165/317/77
f 168/320/78 169/321/78 167/319/78
f 170/322/79 171/323/79 169/321/79
f 172/324/80 173/325/80 171/323/80
f 174/326/81 175/327/81 173/325/81
f 176/328/82 177/329/82 175/327/82
f 178/330/83 179/331/83 177/329/83
f 180/332/84 181/333/84 179/331/84
f 182/334/85 183/335/85 181/333/85
f 184/336/86 185/337/86 183/335/86
f 186/338/87 187/339/87 185/337/87
f 188/340/88 189/341/88 187/339/88
f 190/342/89 191/343/89 189/341/89
f 192/344/90 193/345/90 191/343/90
f 194/346/91 195/347/91 193/345/91
f 196/348/92 197/349/92 195/347/92
f 198/350/93 199/351/93 197/349/93
f 200/352/94 201/353/94 199/351/94
f 202/354/95 203/355/95 201/353/95
f 204/356/96 205/357/96 203/355/96
f 206/358/97 207/359/97 205/357/97
f 208/360/98 209/361/98 207/359/98
f 210/362/99 211/363/99 209/361/99
f 212/364/100 213/365/100 211/363/100
f 214/366/101 215/367/101 213/365/101
f 216/368/102 217/369/102 215/367/102
f 218/370/103 219/371/103 217/369/103
f 220/372/104 221/373/104 219/371/104
f 198/374/105 182/375/105 166/376/105
f 222/377/106 223/378/106 221/373/106
f 224/379/107 161/380/107 223/378/107
f 191/381/108 207/382/108 223/383/108
f 162/313/75 164/316/75 163/314/75
f 164/316/76 166/318/76 165/317/76
f 166/318/77 168/320/77 167/319/77
f 168/320/78 170/322/78 169/321/78
f 170/322/79 172/324/79 171/323/79
f 172/324/80 174/326/80 173/325/80
f 174/326/81 176/328/81 175/327/81
f 176/328/82 178/330/82 177/329/82
f 178/330/83 180/332/83 179/331/83
f 180/332/84 182/334/84 181/333/84
f 182/334/85 184/336/85 183/335/85
f 184/336/86 186/338/86 185/337/86
f 186/338/87 188/340/87 187/339/87
f 188/340/88 190/342/88 189/341/88
f 190/342/89 192/344/89 191/343/89
f 192/344/90 194/346/90 193/345/90
f 194/346/91 196/348/91 195/347/91
f 196/348/92 198/350/92 197/349/92
f 198/350/93 200/352/93 199/351/93
f 200/352/94 202/354/94 201/353/94
f 202/354/95 204/356/95 203/355/95
f 204/356/96 206/358/96 205/357/96
f 206/358/97 208/360/97 207/359/97
f 208/360/98 210/362/98 209/361/98
f 210/362/99 212/364/99 211/363/99
f 212/364/100 214/366/100 213/365/100
f 214/366/101 216/368/101 215/367/101
f 216/368/102 218/370/102 217/369/102
f 218/370/103 220/372/103 219/371/103
f 220/372/104 222/377/104 221/373/104
f 166/376/105 164/384/105 162/385/105
f 162/385/105 224/386/105 166/376/105
f 224/386/105 222/387/105 166/376/105
f 222/387/105 220/388/105 218/389/105
f 218/389/105 216/390/105 214/391/105
f 214/391/105 212/392/105 210/393/105
f 210/393/105 208/394/105 214/391/105
f 208/394/105 206/395/105 214/391/105
f 206/395/105 204/396/105 202/397/105
f 202/397/105 200/398/105 198/374/105
f 198/374/105 196/399/105 190/400/105
f 196/399/105 194/401/105 190/400/105
f 194/401/105 192/402/105 190/400/105
f 190/400/105 188/403/105 186/404/105
f 186/404/105 184/405/105 182/375/105
f 182/375/105 180/406/105 174/407/105
f 180/406/105 178/408/105 174/407/105
f 178/408/105 176/409/105 174/407/105
f 174/407/105 172/410/105 170/411/105
f 170/411/105 168/412/105 166/376/105
f 222/387/105 218/389/105 166/376/105
f 218/389/105 214/391/105 166/376/105
f 206/395/105 202/397/105 214/391/105
f 202/397/105 198/374/105 214/391/105
f 190/400/105 186/404/105 198/374/105
f 186/404/105 182/375/105 198/374/105
f 174/407/105 170/411/105 182/375/105
f 170/411/105 166/376/105 182/375/105
f 166/376/105 214/391/105 198/374/105
f 222/377/106 224/379/106 223/378/106
f 224/379/107 162/413/107 161/380/107
f 223/383/108 161/414/108 163/415/108
f 163/415/108 165/416/108 167/417/108
f 167/417/108 169/418/108 171/419/108
f 171/419/108 173/420/108 175/421/108
f 175/421/108 177/422/108 179/423/108
f 179/423/108 181/424/108 183/425/108
f 183/425/108 185/426/108 187/427/108
f 187/427/108 189/428/108 191/381/108
f 191/381/108 193/429/108 195/430/108
f 195/430/108 197/431/108 199/432/108
f 199/432/108 201/433/108 203/434/108
f 203/434/108 205/435/108 207/382/108
f 207/382/108 209/436/108 211/437/108
f 211/437/108 213/438/108 215/439/108
f 215/439/108 217/440/108 219/441/108
f 219/441/108 221/442/108 223/383/108
f 223/383/108 163/415/108 175/421/108
f 163/415/108 167/417/108 175/421/108
f 167/417/108 171/419/108 175/421/108
f 175/421/108 179/423/108 191/381/108
f 179/423/108 183/425/108 191/381/108
f 183/425/108 187/427/108 191/381/108
f 191/381/108 195/430/108 207/382/108
f 195/430/108 199/432/108 207/382/108
f 199/432/108 203/434/108 207/382/108
f 207/382/108 211/437/108 223/383/108
f 211/437/108 215/439/108 223/383/108
f 215/439/108 219/441/108 223/383/108
f 223/383/108 175/421/108 191/381/108
o Cylinder.004
v 0.500000 6.050000 -0.750000
v 0.500000 6.450000 -0.750000
v 0.548773 6.050000 -0.745196
v 0.548773 6.450000 -0.745196
v 0.595671 6.050000 -0.730970
v 0.595671 6.450000 -0.730970
v 0.638893 6.050000 -0.707867
v 0.638893 6.450000 -0.707867
v 0.676777 6.050000 -0.676777
v 0.676777 6.450000 -0.676777
v 0.707867 6.050000 -0.638893
v 0.707867 6.450000 -0.638893
v 0.730970 6.050000 -0.595671
v 0.730970 6.450000 -0.595671
v 0.745196 6.050000 -0.548773
v 0.745196 6.450000 -0.548773
v 0.750000 6.050000 -0.500000
v 0.750000 6.450000 -0.500000
v 0.745196 6.050000 -0.451227
v 0.745196 6.450000 -0.451227
v 0.730970 6.050000 -0.404329
v 0.730970 6.450000 -0.404329
v 0.707867 6.050000 -0.361107
v 0.707867 6.450000 -0.361107
v 0.676777 6.050000 -0.323223
v 0.676777 6.450000 -0.323223
v 0.638893 6.050000 -0.292133
v 0.638893 6.450000 -0.292133
v 0.595671 6.050000 -0.269030
v 0.595671 6.450000 -0.269030
v 0.548773 6.050000 -0.254804
v 0.548773 6.450000 -0.254804
v 0.500000 6.050000 -0.250000
v 0.500000 6.450000 -0.250000
v 0.451227 6.050000 -0.254804
v 0.451227 6.450000 -0.254804
v 0.404329 6.050000 -0.269030
v 0.404329 6.450000 -0.269030
v 0.361107 6.050000 -0.292133
v 0.361107 6.450000 -0.292133
v 0.323223 6.050000 -0.323223
v 0.323223 6.450000 -0.323223
v 0.292133 6.050000 -0.361107
v 0.292133 6.450000 -0.361107
v 0.269030 6.050000 -0.404329
v 0.269030 6.450000 -0.404329
v 0.254804 6.050000 -0.451227
v 0.254804 6.450000 -0.451227
v 0.250000 6.050000 -0.500000
v 0.250000 6.450000 -0.500000
v 0.254804 6.050000 -0.548773
v 0.254804 6.450000 -0.548773
v 0.269030 6.050000 -0.595671
v 0.269030 6.450000 -0.595671
v 0.292133 6.050000 -0.638893
v 0.292133 6.450000 -0.638893
v 0.323223 6.050000 -0.676777
v 0.323223 6.450000 -0.676777
v 0.361107 6.050000 -0.707867
v 0.361107 6.450000 -0.707867
v 0.404329 6.050000 -0.730970
v 0.404329 6.450000 -0.730970
v 0.451227 6.050000 -0.745196
v 0.451227 6.450000 -0.745196
vn 0.0980 -0.0000 -0.9952
vn 0.2903 -0.0000 -0.9569
vn 0.4714 -0.0000 -0.8819
vn 0.6344 -0.0000 -0.7730
vn 0.7730 -0.0000 -0.6344
vn 0.8819 -0.0000 -0.4714
vn 0.9569 -0.0000 -0.2903
vn 0.9952 -0.0000 -0.0980
vn 0.9952 -0.0000 0.0980
vn 0.9569 -0.0000 0.2903
vn 0.8819 -0.0000 0.4714
vn 0.7730 -0.0000 0.6344
vn 0.6344 -0.0000 0.7730
vn 0.4714 -0.0000 0.8819
vn 0.2903 -0.0000 0.9569
vn 0.0980 -0.0000 0.9952
vn -0.0980 -0.0000 0.9952
vn -0.2903 -0.0000 0.9569
vn -0.4714 -0.0000 0.8819
vn -0.6344 -0.0000 0.7730
vn -0.7730 -0.0000 0.6344
vn -0.8819 -0.0000 0.4714
vn -0.9569 -0.0000 0.2903
vn -0.9952 -0.0000 0.0980
vn -0.9952 -0.0000 -0.0980
vn -0.9569 -0.0000 -0.2903
vn -0.8819 -0.0000 -0.4714
vn -0.7730 -0.0000 -0.6344
vn -0.6344 -0.0000 -0.7730
vn -0.4714 -0.0000 -0.8819
vn -0.0000 1.0000 -0.0000
vn -0.2903 -0.0000 -0.9569
vn -0.0980 -0.0000 -0.9952
vn -0.0000 -1.0000 -0.0000
vt 1.000000 1.000000
vt 0.968750 0.500000
vt 1.000000 0.500000
vt 0.968750 1.000000
vt 0.937500 0.500000
vt 0.937500 1.000000
vt 0.906250 0.500000
vt 0.906250 1.000000
vt 0.875000 0.500000
vt 0.875000 1.000000
vt 0.843750 0.500000
vt 0.843750 1.000000
vt 0.812500 0.500000
vt 0.812500 1.000000
vt 0.781250 0.500000
vt 0.781250 1.000000
vt 0.750000 0.500000
vt 0.750000 1.000000
vt 0.718750 0.500000
vt 0.718750 1.000000
vt 0.687500 0.500000
vt 0.687500 1.000000
vt 0.656250 0.500000
vt 0.656250 1.000000
vt 0.625000 0.500000
vt 0.625000 1.000000
vt 0.593750 0.500000
vt 0.593750 1.000000
vt 0.562500 0.500000
vt 0.562500 1.000000
vt 0.531250 0.500000
vt 0.531250 1.000000
vt 0.500000 0.500000
vt 0.500000 1.000000
vt 0.468750 0.500000
vt 0.468750 1.000000
vt 0.437500 0.500000
vt 0.437500 1.000000
vt 0.406250 0.500000
vt 0.406250 1.000000
vt 0.375000 0.500000
vt 0.375000 1.000000
vt 0.343750 0.500000
vt 0.343750 1.000000
vt 0.312500 0.500000
vt 0.312500 1.000000
vt 0.281250 0.500000
vt 0.281250 1.000000
vt 0.250000 0.500000
vt 0.250000 1.000000
vt 0.218750 0.500000
vt 0.218750 1.000000
vt 0.187500 0.500000
vt 0.187500 1.000000
vt 0.156250 0.500000
vt 0.156250 1.000000
vt 0.125000 0.500000
vt 0.125000 1.000000
vt 0.093750 0.500000
vt 0.093750 1.000000
vt 0.062500 0.500000
vt 0.158156 0.028269
vt 0.471731 0.158156
vt 0.341844 0.471731
vt 0.062500 1.000000
vt 0.031250 0.500000
vt 0.031250 1.000000
vt 0.000000 0.500000
vt 0.796822 0.014612
vt 0.514612 0.203178
vt 0.703178 0.485388
vt 0.296822 0.485388
vt 0.250000 0.490000
vt 0.203178 0.485388
vt 0.158156 0.471731
vt 0.116663 0.449553
vt 0.080294 0.419706
vt 0.050447 0.383337
vt 0.028269 0.341844
vt 0.014612 0.296822
vt 0.010000 0.250000
vt 0.014612 0.203178
vt 0.028269 0.158156
vt 0.050447 0.116663
vt 0.080294 0.080294
vt 0.116663 0.050447
vt 0.203178 0.014612
vt 0.341844 0.028269
vt 0.250000 0.010000
vt 0.296822 0.014612
vt 0.383337 0.050447
vt 0.419706 0.080294
vt 0.449553 0.116663
vt 0.485388 0.203178
vt 0.471731 0.341844
vt 0.490000 0.250000
vt 0.485388 0.296822
vt 0.449553 0.383337
vt 0.419706 0.419706
vt 0.383337 0.449553
vt 0.000000 1.000000
vt 0.750000 0.490000
vt 0.796822 0.485388
vt 0.841844 0.471731
vt 0.883337 0.449553
vt 0.919706 0.419706
vt 0.949553 0.383337
vt 0.971731 0.341844
vt 0.985388 0.296822
vt 0.990000 0.250000
vt 0.985388 0.203178
vt 0.971731 0.158156
vt 0.949553 0.116663
vt 0.919706 0.080294
vt 0.883337 0.050447
vt 0.841844 0.028269
vt 0.750000 0.010000
vt 0.703178 0.014612
vt 0.658156 0.028269
vt 0.616663 0.050447
vt 0.580294 0.080294
vt 0.550447 0.116663
vt 0.528269 0.158156
vt 0.510000 0.250000
vt 0.514612 0.296822
vt 0.528269 0.341844
vt 0.550447 0.383337
vt 0.580294 0.419706
vt 0.616663 0.449553
vt 0.658156 0.471731
s 0
f 226/443/109 227/444/109 225/445/109
f 228/446/110 229/447/110 227/444/110
f 230/448/111 231/449/111 229/447/111
f 232/450/112 233/451/112 231/449/112
f 234/452/113 235/453/113 233/451/113
f 236/454/114 237/455/114 235/453/114
f 238/456/115 239/457/115 237/455/115
f 240/458/116 241/459/116 239/457/116
f 242/460/117 243/461/117 241/459/117
f 244/462/118 245/463/118 243/461/118
f 246/464/119 247/465/119 245/463/119
f 248/466/120 249/467/120 247/465/120
f 250/468/121 251/469/121 249/467/121
f 252/470/122 253/471/122 251/469/122
f 254/472/123 255/473/123 253/471/123
f 256/474/124 257/475/124 255/473/124
f 258/476/125 259/477/125 257/475/125
f 260/478/126 261/479/126 259/477/126
f 262/480/127 263/481/127 261/479/127
f 264/482/128 265/483/128 263/481/128
f 266/484/129 267/485/129 265/483/129
f 268/486/130 269/487/130 267/485/130
f 270/488/131 271/489/131 269/487/131
f 272/490/132 273/491/132 271/489/132
f 274/492/133 275/493/133 273/491/133
f 276/494/134 277/495/134 275/493/134
f 278/496/135 279/497/135 277/495/135
f 280/498/136 281/499/136 279/497/136
f 282/500/137 283/501/137 281/499/137
f 284/502/138 285/503/138 283/501/138
f 262/504/139 246/505/139 230/506/139
f 286/507/140 287/508/140 285/503/140
f 288/509/141 225/510/141 287/508/141
f 255/511/142 271/512/142 287/513/142
f 226/443/109 228/446/109 227/444/109
f 228/446/110 230/448/110 229/447/110
f 230/448/111 232/450/111 231/449/111
f 232/450/112 234/452/112 233/451/112
f 234/452/113 236/454/113 235/453/113
f 236/454/114 238/456/114 237/455/114
f 238/456/115 240/458/115 239/457/115
f 240/458/116 242/460/116 241/459/116
f 242/460/117 244/462/117 243/461/117
f 244/462/118 246/464/118 245/463/118
f 246/464/119 248/466/119 247/465/119
f 248/466/120 250/468/120 249/467/120
f 250/468/121 252/470/121 251/469/121
f 252/470/122 254/472/122 253/471/122
f 254/472/123 256/474/123 255/473/123
f 256/474/124 258/476/124 257/475/124
f 258/476/125 260/478/125 259/477/125
f 260/478/126 262/480/126 261/479/126
f 262/480/127 264/482/127 263/481/127
f 264/482/128 266/484/128 265/483/128
f 266/484/129 268/486/129 267/485/129
f 268/486/130 270/488/130 269/487/130
f 270/488/131 272/490/131 271/489/131
f 272/490/132 274/492/132 273/491/132
f 274/492/133 276/494/133 275/493/133
f 276/494/134 278/496/134 277/495/134
f 278/496/135 280/498/135 279/497/135
f 280/498/136 282/500/136 281/499/136
f 282/500/137 284/502/137 283/501/137
f 284/502/138 286/507/138 285/503/138
f 230/506/139 228/514/139 226/515/139
f 226/515/139 288/516/139 230/506/139
f 288/516/139 286/517/139 230/506/139
f 286/517/139 284/518/139 282/519/139
f 282/519/139 280/520/139 278/521/139
f 278/521/139 276/522/139 274/523/139
f 274/523/139 272/524/139 278/521/139
f 272/524/139 270/525/139 278/521/139
f 270/525/139 268/526/139 266/527/139
f 266/527/139 264/528/139 262/504/139
f 262/504/139 260/529/139 254/530/139
f 260/529/139 258/531/139 254/530/139
f 258/531/139 256/532/139 254/530/139
f 254/530/139 252/533/139 250/534/139
f 250/534/139 248/535/139 246/505/139
f 246/505/139 244/536/139 238/537/139
f 244/536/139 242/538/139 238/537/139
f 242/538/139 240/539/139 238/537/139
f 238/537/139 236/540/139 234/541/139
f 234/541/139 232/542/139 230/506/139
f 286/517/139 282/519/139 230/506/139
f 282/519/139 278/521/139 230/506/139
f 270/525/139 266/527/139 278/521/139
f 266/527/139 262/504/139 278/521/139
f 254/530/139 250/534/139 262/504/139
f 250/534/139 246/505/139 262/504/139
f 238/537/139 234/541/139 246/505/139
f 234/541/139 230/506/139 246/505/139
f 230/506/139 278/521/139 262/504/139
f 286/507/140 288/509/140 287/508/140
f 288/509/141 226/543/141 225/510/141
f 287/513/142 225/544/142 227/545/142
f 227/545/142 229/546/142 231/547/142
f 231/547/142 233/548/142 235/549/142
f 235/549/142 237/550/142 239/551/142
f 239/551/142 241/552/142 243/553/142
f 243/553/142 245/554/142 247/555/142
f 247/555/142 249/556/142 251/557/142
f 251/557/142 253/558/142 255/511/142
f 255/511/142 257/559/142 259/560/142
f 259/560/142 261/561/142 263/562/142
f 263/562/142 265/563/142 267/564/142
f 267/564/142 269/565/142 271/512/142
f 271/512/142 273/566/142 275/567/142
f 275/567/142 277/568/142 279/569/142
f 279/569/142 281/570/142 283/571/142
f 283/571/142 285/572/142 287/513/142
f 287/513/142 227/545/142 239/551/142
f 227/545/142 231/547/142 239/551/142
f 231/547/142 235/549/142 239/551/142
f 239/551/142 243/553/142 255/511/142
f 243/553/142 247/555/142 255/511/142
f 247/555/142 251/557/142 255/511/142
f 255/511/142 259/560/142 271/512/142
f 259/560/142 263/562/142 271/512/142
f 263/562/142 267/564/142 271/512/142
f 271/512/142 275/567/142 287/513/142
f 275/567/142 279/569/142 287/513/142
f 279/569/142 283/571/142 287/513/142
f 287/513/142 239/551/142 255/511/142
o Cube.004
v 1.323774 0.000000 -0.955163
v 1.323774 4.800000 -0.955163
v 1.323774 0.000000 -1.044837
v 1.323774 4.800000 -1.044837
v 1.503774 0.000000 -0.955163
v 1.503774 4.800000 -0.955163
v 1.503774 0.000000 -1.044837
v 1.503774 4.800000 -1.044837
vn -1.0000 -0.0000 -0.0000
vn -0.0000 -0.0000 -1.0000
vn 1.0000 -0.0000 -0.0000
vn -0.0000 -0.0000 1.0000
vn -0.0000 -1.0000 -0.0000
vn -0.0000 1.0000 -0.0000
vt 0.625000 0.000000
vt 0.375000 0.250000
vt 0.375000 0.000000
vt 0.625000 0.250000
vt 0.375000 0.500000
vt 0.625000 0.500000
vt 0.375000 0.750000
vt 0.625000 0.750000
vt 0.375000 1.000000
vt 0.125000 0.750000
vt 0.125000 0.500000
vt 0.875000 0.500000
vt 0.625000 1.000000
vt 0.875000 0.750000
s 0
f 290/573/143 291/574/143 289/575/143
f 292/576/144 295/577/144 291/574/144
f 296/578/145 293/579/145 295/577/145
f 294/580/146 289/581/146 293/579/146
f 295/577/147 289/582/147 291/583/147
f 292/584/148 294/580/148 296/578/148
f 290/573/143 292/576/143 291/574/143
f 292/576/144 296/578/144 295/577/144
f 296/578/145 294/580/145 293/579/145
f 294/580/146 290/585/146 289/581/146
f 295/577/147 293/579/147 289/582/147
f 292/584/148 290/586/148 294/580/148
o Cube.002
v 4.496716 0.000000 -0.955163
v 4.496716 4.800000 -0.955163
v 4.496716 0.000000 -1.044837
v 4.496716 4.800000 -1.044837
v 4.676716 0.000000 -0.955163
v 4.676716 4.800000 -0.955163
v 4.676716 0.000000 -1.044837
v 4.676716 4.800000 -1.044837
vn -1.0000 -0.0000 -0.0000
vn -0.0000 -0.0000 -1.0000
vn 1.0000 -0.0000 -0.0000
vn -0.0000 -0.0000 1.0000
vn -0.0000 -1.0000 -0.0000
vn -0.0000 1.0000 -0.0000
vt 0.625000 0.000000
vt 0.375000 0.250000
vt 0.375000 0.000000
vt 0.625000 0.250000
vt 0.375000 0.500000
vt 0.625000 0.500000
vt 0.375000 0.750000
vt 0.625000 0.750000
vt 0.375000 1.000000
vt 0.125000 0.750000
vt 0.125000 0.500000
vt 0.875000 0.500000
vt 0.625000 1.000000
vt 0.875000 0.750000
s 0
f 298/587/149 299/588/149 297/589/149
f 300/590/150 303/591/150 299/588/150
f 304/592/151 301/593/151 303/591/151
f 302/594/152 297/595/152 301/593/152
f 303/591/153 297/596/153 299/597/153
f 300/598/154 302/594/154 304/592/154
f 298/587/149 300/590/149 299/588/149
f 300/590/150 304/592/150 303/591/150
f 304/592/151 302/594/151 301/593/151
f 302/594/152 298/599/152 297/595/152
f 303/591/153 301/593/153 297/596/153
f 300/598/154 298/600/154 302/594/154
o Cube
v 1.500000 4.620000 -0.955163
v 1.500000 4.800000 -0.955163
v 1.500000 4.620000 -1.044837
v 1.500000 4.800000 -1.044837
v 4.500000 4.620000 -0.955163
v 4.500000 4.800000 -0.955163
v 4.500000 4.620000 -1.044837
v 4.500000 4.800000 -1.044837
vn -1.0000 -0.0000 -0.0000
vn -0.0000 -0.0000 -1.0000
vn 1.0000 -0.0000 -0.0000
vn -0.0000 -0.0000 1.0000
vn -0.0000 -1.0000 -0.0000
vn -0.0000 1.0000 -0.0000
vt 0.625000 0.000000
vt 0.375000 0.250000
vt 0.375000 0.000000
vt 0.625000 0.250000
vt 0.375000 0.500000
vt 0.625000 0.500000
vt 0.375000 0.750000
vt 0.625000 0.750000
vt 0.375000 1.000000
vt 0.125000 0.750000
vt 0.125000 0.500000
vt 0.875000 0.500000
vt 0.625000 1.000000
vt 0.875000 0.750000
s 0
f 306/601/155 307/602/155 305/603/155
f 308/604/156 311/605/156 307/602/156
f 312/606/157 309/607/157 311/605/157
f 310/608/158 305/609/158 309/607/158
f 311/605/159 305/610/159 307/611/159
f 308/612/160 310/608/160 312/606/160
f 306/601/155 308/604/155 307/602/155
f 308/604/156 312/606/156 311/605/156
f 312/606/157 310/608/157 309/607/157
f 310/608/158 306/613/158 305/609/158
f 311/605/159 309/607/159 305/610/159
f 308/612/160 306/614/160 310/608/160
o Cube.003
v 2.910000 0.000000 -0.955163
v 2.910000 4.800000 -0.955163
v 2.910000 0.000000 -1.044837
v 2.910000 4.800000 -1.044837
v 3.090000 0.000000 -0.955163
v 3.090000 4.800000 -0.955163
v 3.090000 0.000000 -1.044837
v 3.090000 4.800000 -1.044837
vn -1.0000 -0.0000 -0.0000
vn -0.0000 -0.0000 -1.0000
vn 1.0000 -0.0000 -0.0000
vn -0.0000 -0.0000 1.0000
vn -0.0000 -1.0000 -0.0000
vn -0.0000 1.0000 -0.0000
vt 0.625000 0.000000
vt 0.375000 0.250000
vt 0.375000 0.000000
vt 0.625000 0.250000
vt 0.375000 0.500000
vt 0.625000 0.500000
vt 0.375000 0.750000
vt 0.625000 0.750000
vt 0.375000 1.000000
vt 0.125000 0.750000
vt 0.125000 0.500000
vt 0.875000 0.500000
vt 0.625000 1.000000
vt 0.875000 0.750000
s 0
f 314/615/161 315/616/161 313/617/161
f 316/618/162 319/619/162 315/616/162
f 320/620/163 317/621/163 319/619/163
f 318/622/164 313/623/164 317/621/164
f 319/619/165 313/624/165 315/625/165
f 316/626/166 318/622/166 320/620/166
f 314/615/161 316/618/161 315/616/161
f 316/618/162 320/620/162 319/619/162
f 320/620/163 318/622/163 317/621/163
f 318/622/164 314/627/164 313/623/164
f 319/619/165 317/621/165 313/624/165
f 316/626/166 314/628/166 318/622/166
o Cube.007
v 1.500000 1.210000 -0.955163
v 1.500000 1.390000 -0.955163
v 1.500000 1.210000 -1.044837
v 1.500000 1.390000 -1.044837
v 4.500000 1.210000 -0.955163
v 4.500000 1.390000 -0.955163
v 4.500000 1.210000 -1.044837
v 4.500000 1.390000 -1.044837
vn -1.0000 -0.0000 -0.0000
vn -0.0000 -0.0000 -1.0000
vn 1.0000 -0.0000 -0.0000
vn -0.0000 -0.0000 1.0000
vn -0.0000 -1.0000 -0.0000
vn -0.0000 1.0000 -0.0000
vt 0.625000 0.000000
vt 0.375000 0.250000
vt 0.375000 0.000000
vt 0.625000 0.250000
vt 0.375000 0.500000
vt 0.625000 0.500000
vt 0.375000 0.750000
vt 0.625000 0.750000
vt 0.375000 1.000000
vt 0.125000 0.750000
vt 0.125000 0.500000
vt 0.875000 0.500000
vt 0.625000 1.000000
vt 0.875000 0.750000
s 0
f 322/629/167 323/630/167 321/631/167
f 324/632/168 327/633/168 323/630/168
f 328/634/169 325/635/169 327/633/169
f 326/636/170 321/637/170 325/635/170
f 327/633/171 321/638/171 323/639/171
f 324/640/172 326/636/172 328/634/172
f 322/629/167 324/632/167 323/630/167
f 324/632/168 328/634/168 327/633/168
f 328/634/169 326/636/169 325/635/169
f 326/636/170 322/641/170 321/637/170
f 327/633/171 325/635/171 321/638/171
f 324/640/172 322/642/172 326/636/172
