# Blender 4.3.1
# www.blender.org
mtllib Wand_Mit_Fenster.mtl
o Cube
v 6.000167 5.999120 -1.000850
v 5.880167 5.879121 -0.900850
v 0.753253 2.137534 -1.033795
v 6.000167 -0.000879 -1.000850
v 0.753253 4.512467 -1.033795
v 5.880167 0.119121 -0.900850
v 6.000167 5.999120 -0.000850
v 6.000167 -0.000879 -0.000850
v 5.141747 2.137534 -1.033795
v 0.000168 5.999120 -1.000850
v 0.120167 5.879121 -0.900850
v 5.141747 4.512467 -1.033795
v 0.000168 -0.000879 -1.000850
v 0.120167 0.119121 -0.900850
v 0.000168 5.999120 -0.000850
v 0.000168 -0.000879 -0.000850
v 5.880167 0.119121 -0.000850
v 0.120167 5.879121 -0.000850
v 5.880167 5.879121 -0.000850
v 0.120167 0.119121 -0.000850
v 3.898826 2.295300 -0.900850
v 4.998827 4.391209 -0.900850
v 3.898826 4.391209 -0.900850
v 0.753253 4.512467 -1.000850
v 0.753253 2.137534 -1.000850
v 5.141747 4.512467 -1.000850
v 5.141747 2.137534 -1.000850
v 3.898826 4.391209 -0.992205
v 4.998827 4.391209 -0.992205
v 3.898826 2.295300 -0.992205
v 5.067627 2.137534 -1.000850
v 5.074342 4.512467 -1.000850
v 0.898826 2.295300 -1.033795
v 0.898826 4.391209 -1.033795
v 1.998827 4.391209 -1.033795
v 2.398826 4.391209 -1.033795
v 3.898827 4.391209 -1.033795
v 3.498826 4.391209 -1.033795
v 1.998827 2.295300 -1.033795
v 2.398826 2.295300 -1.033795
v 3.898827 2.295300 -1.033795
v 4.998827 2.295300 -1.033795
v 4.998827 4.391209 -1.033795
v 3.498826 2.295300 -1.033795
v 3.898827 2.295300 -0.992205
v 3.898827 4.391209 -0.992205
v 4.998827 4.391209 -0.992205
v 2.398826 4.391209 -0.900850
v 1.998827 4.391209 -0.900850
v 3.498826 4.391209 -0.900850
v 4.998827 4.391209 -0.900850
v 3.898827 2.295300 -0.900850
v 3.898827 2.295300 -0.900850
v 4.998827 4.391209 -0.900850
v 4.998827 2.295300 -0.900850
v 4.998827 2.295300 -0.900850
v 0.898826 4.391209 -0.900850
v 0.898826 2.295300 -0.900850
v 1.998827 2.295300 -0.900850
v 2.398826 2.295300 -0.900850
v 3.498826 2.295300 -0.900850
v 3.498826 2.500462 -0.900850
vn -1.0000 -0.0000 -0.0000
vn -0.0000 -0.0000 -1.0000
vn 1.0000 -0.0000 -0.0000
vn -0.0000 -0.0010 1.0000
vn -0.0000 -1.0000 -0.0000
vn -0.0000 1.0000 -0.0000
vn -0.0000 -0.0000 1.0000
vn -0.0000 -1.0000 -0.0008
vn -0.0000 -1.0000 0.0008
vt 0.625000 0.250000
vt 0.375000 0.051964
vt 0.625000 0.051964
vt 0.391607 0.258293
vt 0.612236 0.258293
vt 0.612236 0.429194
vt 0.391607 0.429194
vt 0.391607 0.406407
vt 0.612235 0.343744
vt 0.391607 0.320957
vt 0.612235 0.320957
vt 0.625000 0.500000
vt 0.391607 0.491858
vt 0.612235 0.491858
vt 0.375000 0.698036
vt 0.375000 0.500000
vt 0.612236 0.820806
vt 0.612236 0.758142
vt 0.612236 0.820806
vt 0.370778 0.698036
vt 0.875000 0.500000
vt 0.875000 0.698036
vt 0.628840 0.698036
vt 0.625000 0.750000
vt 0.620000 0.755000
vt 0.625000 1.000000
vt 0.375000 1.000000
vt 0.380000 0.755000
vt 0.380000 0.995000
vt 0.625000 0.000000
vt 0.375000 0.250000
vt 0.375000 0.000000
vt 0.125000 0.750000
vt 0.125000 0.500000
vt 0.375000 0.750000
vt 0.464101 0.281379
vt 0.464101 0.464233
vt 0.625000 0.725000
vt 0.875000 0.725000
vt 0.375000 0.025000
vt 0.125000 0.725000
vt 0.375000 0.725000
vt 0.560421 0.461747
vt 0.469452 0.283796
vt 0.560421 0.331539
vt 0.469452 0.348900
vt 0.560421 0.348900
vt 0.478357 0.396643
vt 0.560421 0.414004
vt 0.560420 0.396643
vt 0.625000 0.102059
vt 0.375000 0.113479
vt 0.625000 0.113479
vt 0.625000 0.647941
vt 0.625000 0.636521
vt 0.625000 0.647941
vt 0.125000 0.647941
vt 0.125000 0.636521
vt 0.125000 0.636521
vt 0.875000 0.647941
vt 0.375000 0.079412
vt 0.625000 0.074214
vt 0.375000 0.074214
vt 0.625000 0.670588
vt 0.375000 0.687206
vt 0.625000 0.687206
vt 0.375000 0.670588
vt 0.125000 0.687206
vt 0.625000 0.675786
vt 0.875000 0.670588
vt 0.375000 0.149674
vt 0.625000 0.133055
vt 0.375000 0.133055
vt 0.375000 0.600326
vt 0.625000 0.616945
vt 0.625000 0.600326
vt 0.125000 0.616945
vt 0.375000 0.616945
vt 0.875000 0.616945
vt 0.875000 0.600326
vt 0.375000 0.062462
vt 0.625000 0.045844
vt 0.375000 0.045844
vt 0.375000 0.687538
vt 0.375000 0.704157
vt 0.399472 0.704156
vt 0.125000 0.704156
vt 0.625000 0.687538
vt 0.875000 0.704157
vt 0.875000 0.687538
vt 0.391607 0.343744
vt 0.612235 0.406407
vt 0.625000 0.698036
vt 0.391607 0.820806
vt 0.125000 0.698036
vt 0.875000 0.750000
vt 0.620000 0.995000
vt 0.464101 0.461144
vt 0.563056 0.461424
vt 0.563056 0.281379
vt 0.563056 0.464233
vt 0.625000 0.025000
vt 0.469452 0.461747
vt 0.469452 0.414004
vt 0.469452 0.396643
vt 0.469452 0.331539
vt 0.560420 0.283796
vt 0.375000 0.102059
vt 0.875000 0.636521
vt 0.375000 0.062794
vt 0.625000 0.079412
vt 0.125000 0.670588
vt 0.875000 0.675786
vt 0.625000 0.149674
vt 0.125000 0.600326
vt 0.625000 0.062462
vt 0.625000 0.704157
vt 0.125000 0.687538
s 0
f 5/1/1 25/2/1 24/3/1
f 33/4/2 5/1/2 34/5/2
f 37/6/2 41/7/2 44/8/2
f 36/9/2 39/10/2 35/11/2
f 12/12/2 42/13/2 43/14/2
f 12/12/3 27/15/3 9/16/3
f 46/17/4 29/18/4 28/19/4
f 9/16/5 27/15/5 31/20/5
f 5/21/6 24/22/6 32/23/6
f 10/21/6 7/24/6 1/12/6
f 19/25/7 7/24/7 15/26/7
f 16/27/7 17/28/7 20/29/7
f 15/30/1 13/31/1 16/32/1
f 4/16/5 16/33/5 13/34/5
f 1/12/3 8/35/3 4/16/3
f 13/31/2 10/1/2 25/36/2
f 1/12/2 4/16/2 27/37/2
f 11/21/5 19/38/5 18/39/5
f 11/1/3 20/40/3 14/31/3
f 6/16/6 20/41/6 17/42/6
f 6/16/1 19/38/1 2/12/1
f 2/12/7 51/43/7 54/43/7
f 58/44/7 11/1/7 14/31/7
f 49/45/7 60/46/7 48/47/7
f 62/48/7 23/49/7 50/50/7
f 23/51/3 30/52/3 28/53/3
f 22/54/1 47/55/1 51/56/1
f 21/57/6 45/58/6 30/59/6
f 23/60/5 29/55/5 22/54/5
f 41/61/3 46/62/3 45/63/3
f 43/64/1 55/65/1 54/66/1
f 42/67/6 53/68/6 56/65/6
f 47/69/5 37/70/5 43/64/5
f 33/71/3 57/72/3 58/73/3
f 39/74/1 49/75/1 35/76/1
f 39/74/6 58/77/6 59/78/6
f 35/76/5 57/79/5 34/80/5
f 40/81/3 48/82/3 60/83/3
f 44/84/1 61/85/1 62/86/1
f 44/84/6 60/87/6 61/85/6
f 38/88/5 48/89/5 36/90/5
f 5/1/1 3/31/1 25/2/1
f 33/4/2 3/31/2 5/1/2
f 34/5/2 5/1/2 35/11/2
f 5/1/2 12/12/2 36/9/2
f 35/11/2 5/1/2 36/9/2
f 12/12/2 43/14/2 37/6/2
f 41/7/2 42/13/2 9/16/2
f 41/7/2 9/16/2 44/8/2
f 9/16/2 3/31/2 40/91/2
f 44/8/2 9/16/2 40/91/2
f 3/31/2 33/4/2 39/10/2
f 3/31/2 39/10/2 40/91/2
f 38/92/2 36/9/2 12/12/2
f 38/92/2 12/12/2 37/6/2
f 44/8/2 38/92/2 37/6/2
f 36/9/2 40/91/2 39/10/2
f 12/12/2 9/16/2 42/13/2
f 12/12/3 26/93/3 27/15/3
f 46/17/4 47/18/4 29/18/4
f 28/19/4 30/94/4 46/17/4
f 30/94/4 45/94/4 46/17/4
f 25/95/5 3/34/5 31/20/5
f 3/34/5 9/16/5 31/20/5
f 32/23/6 26/93/6 12/12/6
f 12/12/6 5/21/6 32/23/6
f 10/21/6 15/96/6 7/24/6
f 19/25/7 17/28/7 8/35/7
f 15/26/7 16/27/7 20/29/7
f 15/26/7 20/29/7 18/97/7
f 19/25/7 8/35/7 7/24/7
f 15/26/7 18/97/7 19/25/7
f 16/27/7 8/35/7 17/28/7
f 15/30/1 10/1/1 13/31/1
f 4/16/5 8/35/5 16/33/5
f 1/12/3 7/24/3 8/35/3
f 25/36/2 31/98/2 13/31/2
f 31/98/2 4/16/2 13/31/2
f 10/1/2 1/12/2 32/99/2
f 10/1/2 32/99/2 24/100/2
f 10/1/2 24/100/2 25/36/2
f 26/101/2 32/99/2 1/12/2
f 4/16/2 31/98/2 27/37/2
f 27/37/2 26/101/2 1/12/2
f 11/21/5 2/12/5 19/38/5
f 11/1/3 18/102/3 20/40/3
f 6/16/6 14/34/6 20/41/6
f 6/16/1 17/42/1 19/38/1
f 55/103/7 56/103/7 6/16/7
f 2/12/7 22/43/7 51/43/7
f 54/43/7 55/103/7 2/12/7
f 55/103/7 6/16/7 2/12/7
f 53/104/7 52/104/7 21/104/7
f 21/104/7 62/48/7 61/105/7
f 53/104/7 21/104/7 61/105/7
f 6/16/7 56/103/7 53/104/7
f 22/43/7 2/12/7 23/49/7
f 2/12/7 11/1/7 50/50/7
f 23/49/7 2/12/7 50/50/7
f 48/47/7 50/50/7 11/1/7
f 14/31/7 6/16/7 61/105/7
f 6/16/7 53/104/7 61/105/7
f 49/45/7 48/47/7 11/1/7
f 14/31/7 61/105/7 60/46/7
f 14/31/7 60/46/7 59/106/7
f 57/107/7 49/45/7 11/1/7
f 14/31/7 59/106/7 58/44/7
f 58/44/7 57/107/7 11/1/7
f 49/45/7 59/106/7 60/46/7
f 62/48/7 21/104/7 23/49/7
f 23/51/3 21/108/3 30/52/3
f 22/54/1 29/55/1 47/55/1
f 21/57/6 52/57/6 45/58/6
f 23/60/5 28/109/5 29/55/5
f 45/63/3 52/110/3 53/110/3
f 41/61/3 37/111/3 46/62/3
f 45/63/3 53/110/3 41/61/3
f 43/64/1 42/67/1 55/65/1
f 56/65/6 55/65/6 42/67/6
f 42/67/6 41/112/6 53/68/6
f 43/64/8 54/66/9 47/69/8
f 54/66/5 51/66/5 47/69/5
f 47/69/5 46/113/5 37/70/5
f 33/71/3 34/114/3 57/72/3
f 39/74/1 59/78/1 49/75/1
f 39/74/6 33/115/6 58/77/6
f 35/76/5 49/75/5 57/79/5
f 40/81/3 36/116/3 48/82/3
f 62/86/1 50/117/1 38/88/1
f 38/88/1 44/84/1 62/86/1
f 44/84/6 40/118/6 60/87/6
f 38/88/5 50/117/5 48/89/5
o Cylinder.001
v 5.500000 -0.350000 -0.750000
v 5.500000 0.050000 -0.750000
v 5.548773 -0.350000 -0.745196
v 5.548773 0.050000 -0.745196
v 5.595671 -0.350000 -0.730970
v 5.595671 0.050000 -0.730970
v 5.638893 -0.350000 -0.707867
v 5.638893 0.050000 -0.707867
v 5.676777 -0.350000 -0.676777
v 5.676777 0.050000 -0.676777
v 5.707868 -0.350000 -0.638893
v 5.707868 0.050000 -0.638893
v 5.730970 -0.350000 -0.595671
v 5.730970 0.050000 -0.595671
v 5.745196 -0.350000 -0.548773
v 5.745196 0.050000 -0.548773
v 5.750000 -0.350000 -0.500000
v 5.750000 0.050000 -0.500000
v 5.745196 -0.350000 -0.451227
v 5.745196 0.050000 -0.451227
v 5.730970 -0.350000 -0.404329
v 5.730970 0.050000 -0.404329
v 5.707868 -0.350000 -0.361107
v 5.707868 0.050000 -0.361107
v 5.676777 -0.350000 -0.323223
v 5.676777 0.050000 -0.323223
v 5.638893 -0.350000 -0.292133
v 5.638893 0.050000 -0.292133
v 5.595671 -0.350000 -0.269030
v 5.595671 0.050000 -0.269030
v 5.548773 -0.350000 -0.254804
v 5.548773 0.050000 -0.254804
v 5.500000 -0.350000 -0.250000
v 5.500000 0.050000 -0.250000
v 5.451227 -0.350000 -0.254804
v 5.451227 0.050000 -0.254804
v 5.404329 -0.350000 -0.269030
v 5.404329 0.050000 -0.269030
v 5.361107 -0.350000 -0.292133
v 5.361107 0.050000 -0.292133
v 5.323223 -0.350000 -0.323223
v 5.323223 0.050000 -0.323223
v 5.292132 -0.350000 -0.361107
v 5.292132 0.050000 -0.361107
v 5.269030 -0.350000 -0.404329
v 5.269030 0.050000 -0.404329
v 5.254804 -0.350000 -0.451227
v 5.254804 0.050000 -0.451227
v 5.250000 -0.350000 -0.500000
v 5.250000 0.050000 -0.500000
v 5.254804 -0.350000 -0.548773
v 5.254804 0.050000 -0.548773
v 5.269030 -0.350000 -0.595671
v 5.269030 0.050000 -0.595671
v 5.292132 -0.350000 -0.638893
v 5.292132 0.050000 -0.638893
v 5.323223 -0.350000 -0.676777
v 5.323223 0.050000 -0.676777
v 5.361107 -0.350000 -0.707867
v 5.361107 0.050000 -0.707867
v 5.404329 -0.350000 -0.730970
v 5.404329 0.050000 -0.730970
v 5.451227 -0.350000 -0.745196
v 5.451227 0.050000 -0.745196
vn 0.0980 -0.0000 -0.9952
vn 0.2903 -0.0000 -0.9569
vn 0.4714 -0.0000 -0.8819
vn 0.6344 -0.0000 -0.7730
vn 0.7730 -0.0000 -0.6344
vn 0.8819 -0.0000 -0.4714
vn 0.9569 -0.0000 -0.2903
vn 0.9952 -0.0000 -0.0980
vn 0.9952 -0.0000 0.0980
vn 0.9569 -0.0000 0.2903
vn 0.8819 -0.0000 0.4714
vn 0.7730 -0.0000 0.6344
vn 0.6344 -0.0000 0.7730
vn 0.4714 -0.0000 0.8819
vn 0.2903 -0.0000 0.9569
vn 0.0980 -0.0000 0.9952
vn -0.0980 -0.0000 0.9952
vn -0.2903 -0.0000 0.9569
vn -0.4714 -0.0000 0.8819
vn -0.6344 -0.0000 0.7730
vn -0.7730 -0.0000 0.6344
vn -0.8819 -0.0000 0.4714
vn -0.9569 -0.0000 0.2903
vn -0.9952 -0.0000 0.0980
vn -0.9952 -0.0000 -0.0980
vn -0.9569 -0.0000 -0.2903
vn -0.8819 -0.0000 -0.4714
vn -0.7730 -0.0000 -0.6344
vn -0.6344 -0.0000 -0.7730
vn -0.4714 -0.0000 -0.8819
vn -0.0000 1.0000 -0.0000
vn -0.2903 -0.0000 -0.9569
vn -0.0980 -0.0000 -0.9952
vn -0.0000 -1.0000 -0.0000
vt 1.000000 1.000000
vt 0.968750 0.500000
vt 1.000000 0.500000
vt 0.968750 1.000000
vt 0.937500 0.500000
vt 0.937500 1.000000
vt 0.906250 0.500000
vt 0.906250 1.000000
vt 0.875000 0.500000
vt 0.875000 1.000000
vt 0.843750 0.500000
vt 0.843750 1.000000
vt 0.812500 0.500000
vt 0.812500 1.000000
vt 0.781250 0.500000
vt 0.781250 1.000000
vt 0.750000 0.500000
vt 0.750000 1.000000
vt 0.718750 0.500000
vt 0.718750 1.000000
vt 0.687500 0.500000
vt 0.687500 1.000000
vt 0.656250 0.500000
vt 0.656250 1.000000
vt 0.625000 0.500000
vt 0.625000 1.000000
vt 0.593750 0.500000
vt 0.593750 1.000000
vt 0.562500 0.500000
vt 0.562500 1.000000
vt 0.531250 0.500000
vt 0.531250 1.000000
vt 0.500000 0.500000
vt 0.500000 1.000000
vt 0.468750 0.500000
vt 0.468750 1.000000
vt 0.437500 0.500000
vt 0.437500 1.000000
vt 0.406250 0.500000
vt 0.406250 1.000000
vt 0.375000 0.500000
vt 0.375000 1.000000
vt 0.343750 0.500000
vt 0.343750 1.000000
vt 0.312500 0.500000
vt 0.312500 1.000000
vt 0.281250 0.500000
vt 0.281250 1.000000
vt 0.250000 0.500000
vt 0.250000 1.000000
vt 0.218750 0.500000
vt 0.218750 1.000000
vt 0.187500 0.500000
vt 0.187500 1.000000
vt 0.156250 0.500000
vt 0.156250 1.000000
vt 0.125000 0.500000
vt 0.125000 1.000000
vt 0.093750 0.500000
vt 0.093750 1.000000
vt 0.062500 0.500000
vt 0.158156 0.028269
vt 0.471731 0.158156
vt 0.341844 0.471731
vt 0.062500 1.000000
vt 0.031250 0.500000
vt 0.031250 1.000000
vt 0.000000 0.500000
vt 0.796822 0.014612
vt 0.514612 0.203178
vt 0.703178 0.485388
vt 0.296822 0.485388
vt 0.250000 0.490000
vt 0.203178 0.485388
vt 0.158156 0.471731
vt 0.116663 0.449553
vt 0.080294 0.419706
vt 0.050447 0.383337
vt 0.028269 0.341844
vt 0.014612 0.296822
vt 0.010000 0.250000
vt 0.014612 0.203178
vt 0.028269 0.158156
vt 0.050447 0.116663
vt 0.080294 0.080294
vt 0.116663 0.050447
vt 0.203178 0.014612
vt 0.341844 0.028269
vt 0.250000 0.010000
vt 0.296822 0.014612
vt 0.383337 0.050447
vt 0.419706 0.080294
vt 0.449553 0.116663
vt 0.485388 0.203178
vt 0.471731 0.341844
vt 0.490000 0.250000
vt 0.485388 0.296822
vt 0.449553 0.383337
vt 0.419706 0.419706
vt 0.383337 0.449553
vt 0.000000 1.000000
vt 0.750000 0.490000
vt 0.796822 0.485388
vt 0.841844 0.471731
vt 0.883337 0.449553
vt 0.919706 0.419706
vt 0.949553 0.383337
vt 0.971731 0.341844
vt 0.985388 0.296822
vt 0.990000 0.250000
vt 0.985388 0.203178
vt 0.971731 0.158156
vt 0.949553 0.116663
vt 0.919706 0.080294
vt 0.883337 0.050447
vt 0.841844 0.028269
vt 0.750000 0.010000
vt 0.703178 0.014612
vt 0.658156 0.028269
vt 0.616663 0.050447
vt 0.580294 0.080294
vt 0.550447 0.116663
vt 0.528269 0.158156
vt 0.510000 0.250000
vt 0.514612 0.296822
vt 0.528269 0.341844
vt 0.550447 0.383337
vt 0.580294 0.419706
vt 0.616663 0.449553
vt 0.658156 0.471731
s 0
f 64/119/10 65/120/10 63/121/10
f 66/122/11 67/123/11 65/120/11
f 68/124/12 69/125/12 67/123/12
f 70/126/13 71/127/13 69/125/13
f 72/128/14 73/129/14 71/127/14
f 74/130/15 75/131/15 73/129/15
f 76/132/16 77/133/16 75/131/16
f 78/134/17 79/135/17 77/133/17
f 80/136/18 81/137/18 79/135/18
f 82/138/19 83/139/19 81/137/19
f 84/140/20 85/141/20 83/139/20
f 86/142/21 87/143/21 85/141/21
f 88/144/22 89/145/22 87/143/22
f 90/146/23 91/147/23 89/145/23
f 92/148/24 93/149/24 91/147/24
f 94/150/25 95/151/25 93/149/25
f 96/152/26 97/153/26 95/151/26
f 98/154/27 99/155/27 97/153/27
f 100/156/28 101/157/28 99/155/28
f 102/158/29 103/159/29 101/157/29
f 104/160/30 105/161/30 103/159/30
f 106/162/31 107/163/31 105/161/31
f 108/164/32 109/165/32 107/163/32
f 110/166/33 111/167/33 109/165/33
f 112/168/34 113/169/34 111/167/34
f 114/170/35 115/171/35 113/169/35
f 116/172/36 117/173/36 115/171/36
f 118/174/37 119/175/37 117/173/37
f 120/176/38 121/177/38 119/175/38
f 122/178/39 123/179/39 121/177/39
f 100/180/40 84/181/40 68/182/40
f 124/183/41 125/184/41 123/179/41
f 126/185/42 63/186/42 125/184/42
f 93/187/43 109/188/43 125/189/43
f 64/119/10 66/122/10 65/120/10
f 66/122/11 68/124/11 67/123/11
f 68/124/12 70/126/12 69/125/12
f 70/126/13 72/128/13 71/127/13
f 72/128/14 74/130/14 73/129/14
f 74/130/15 76/132/15 75/131/15
f 76/132/16 78/134/16 77/133/16
f 78/134/17 80/136/17 79/135/17
f 80/136/18 82/138/18 81/137/18
f 82/138/19 84/140/19 83/139/19
f 84/140/20 86/142/20 85/141/20
f 86/142/21 88/144/21 87/143/21
f 88/144/22 90/146/22 89/145/22
f 90/146/23 92/148/23 91/147/23
f 92/148/24 94/150/24 93/149/24
f 94/150/25 96/152/25 95/151/25
f 96/152/26 98/154/26 97/153/26
f 98/154/27 100/156/27 99/155/27
f 100/156/28 102/158/28 101/157/28
f 102/158/29 104/160/29 103/159/29
f 104/160/30 106/162/30 105/161/30
f 106/162/31 108/164/31 107/163/31
f 108/164/32 110/166/32 109/165/32
f 110/166/33 112/168/33 111/167/33
f 112/168/34 114/170/34 113/169/34
f 114/170/35 116/172/35 115/171/35
f 116/172/36 118/174/36 117/173/36
f 118/174/37 120/176/37 119/175/37
f 120/176/38 122/178/38 121/177/38
f 122/178/39 124/183/39 123/179/39
f 68/182/40 66/190/40 64/191/40
f 64/191/40 126/192/40 68/182/40
f 126/192/40 124/193/40 68/182/40
f 124/193/40 122/194/40 120/195/40
f 120/195/40 118/196/40 116/197/40
f 116/197/40 114/198/40 112/199/40
f 112/199/40 110/200/40 116/197/40
f 110/200/40 108/201/40 116/197/40
f 108/201/40 106/202/40 104/203/40
f 104/203/40 102/204/40 100/180/40
f 100/180/40 98/205/40 92/206/40
f 98/205/40 96/207/40 92/206/40
f 96/207/40 94/208/40 92/206/40
f 92/206/40 90/209/40 88/210/40
f 88/210/40 86/211/40 84/181/40
f 84/181/40 82/212/40 76/213/40
f 82/212/40 80/214/40 76/213/40
f 80/214/40 78/215/40 76/213/40
f 76/213/40 74/216/40 72/217/40
f 72/217/40 70/218/40 68/182/40
f 124/193/40 120/195/40 68/182/40
f 120/195/40 116/197/40 68/182/40
f 108/201/40 104/203/40 116/197/40
f 104/203/40 100/180/40 116/197/40
f 92/206/40 88/210/40 100/180/40
f 88/210/40 84/181/40 100/180/40
f 76/213/40 72/217/40 84/181/40
f 72/217/40 68/182/40 84/181/40
f 68/182/40 116/197/40 100/180/40
f 124/183/41 126/185/41 125/184/41
f 126/185/42 64/219/42 63/186/42
f 125/189/43 63/220/43 65/221/43
f 65/221/43 67/222/43 69/223/43
f 69/223/43 71/224/43 73/225/43
f 73/225/43 75/226/43 77/227/43
f 77/227/43 79/228/43 81/229/43
f 81/229/43 83/230/43 85/231/43
f 85/231/43 87/232/43 89/233/43
f 89/233/43 91/234/43 93/187/43
f 93/187/43 95/235/43 97/236/43
f 97/236/43 99/237/43 101/238/43
f 101/238/43 103/239/43 105/240/43
f 105/240/43 107/241/43 109/188/43
f 109/188/43 111/242/43 113/243/43
f 113/243/43 115/244/43 117/245/43
f 117/245/43 119/246/43 121/247/43
f 121/247/43 123/248/43 125/189/43
f 125/189/43 65/221/43 77/227/43
f 65/221/43 69/223/43 77/227/43
f 69/223/43 73/225/43 77/227/43
f 77/227/43 81/229/43 93/187/43
f 81/229/43 85/231/43 93/187/43
f 85/231/43 89/233/43 93/187/43
f 93/187/43 97/236/43 109/188/43
f 97/236/43 101/238/43 109/188/43
f 101/238/43 105/240/43 109/188/43
f 109/188/43 113/243/43 125/189/43
f 113/243/43 117/245/43 125/189/43
f 117/245/43 121/247/43 125/189/43
f 125/189/43 77/227/43 93/187/43
o Cylinder.002
v 0.500000 -0.350000 -0.750000
v 0.500000 0.050000 -0.750000
v 0.548773 -0.350000 -0.745196
v 0.548773 0.050000 -0.745196
v 0.595671 -0.350000 -0.730970
v 0.595671 0.050000 -0.730970
v 0.638893 -0.350000 -0.707867
v 0.638893 0.050000 -0.707867
v 0.676777 -0.350000 -0.676777
v 0.676777 0.050000 -0.676777
v 0.707867 -0.350000 -0.638893
v 0.707867 0.050000 -0.638893
v 0.730970 -0.350000 -0.595671
v 0.730970 0.050000 -0.595671
v 0.745196 -0.350000 -0.548773
v 0.745196 0.050000 -0.548773
v 0.750000 -0.350000 -0.500000
v 0.750000 0.050000 -0.500000
v 0.745196 -0.350000 -0.451227
v 0.745196 0.050000 -0.451227
v 0.730970 -0.350000 -0.404329
v 0.730970 0.050000 -0.404329
v 0.707867 -0.350000 -0.361107
v 0.707867 0.050000 -0.361107
v 0.676777 -0.350000 -0.323223
v 0.676777 0.050000 -0.323223
v 0.638893 -0.350000 -0.292133
v 0.638893 0.050000 -0.292133
v 0.595671 -0.350000 -0.269030
v 0.595671 0.050000 -0.269030
v 0.548773 -0.350000 -0.254804
v 0.548773 0.050000 -0.254804
v 0.500000 -0.350000 -0.250000
v 0.500000 0.050000 -0.250000
v 0.451227 -0.350000 -0.254804
v 0.451227 0.050000 -0.254804
v 0.404329 -0.350000 -0.269030
v 0.404329 0.050000 -0.269030
v 0.361107 -0.350000 -0.292133
v 0.361107 0.050000 -0.292133
v 0.323223 -0.350000 -0.323223
v 0.323223 0.050000 -0.323223
v 0.292133 -0.350000 -0.361107
v 0.292133 0.050000 -0.361107
v 0.269030 -0.350000 -0.404329
v 0.269030 0.050000 -0.404329
v 0.254804 -0.350000 -0.451227
v 0.254804 0.050000 -0.451227
v 0.250000 -0.350000 -0.500000
v 0.250000 0.050000 -0.500000
v 0.254804 -0.350000 -0.548773
v 0.254804 0.050000 -0.548773
v 0.269030 -0.350000 -0.595671
v 0.269030 0.050000 -0.595671
v 0.292133 -0.350000 -0.638893
v 0.292133 0.050000 -0.638893
v 0.323223 -0.350000 -0.676777
v 0.323223 0.050000 -0.676777
v 0.361107 -0.350000 -0.707867
v 0.361107 0.050000 -0.707867
v 0.404329 -0.350000 -0.730970
v 0.404329 0.050000 -0.730970
v 0.451227 -0.350000 -0.745196
v 0.451227 0.050000 -0.745196
vn 0.0980 -0.0000 -0.9952
vn 0.2903 -0.0000 -0.9569
vn 0.4714 -0.0000 -0.8819
vn 0.6344 -0.0000 -0.7730
vn 0.7730 -0.0000 -0.6344
vn 0.8819 -0.0000 -0.4714
vn 0.9569 -0.0000 -0.2903
vn 0.9952 -0.0000 -0.0980
vn 0.9952 -0.0000 0.0980
vn 0.9569 -0.0000 0.2903
vn 0.8819 -0.0000 0.4714
vn 0.7730 -0.0000 0.6344
vn 0.6344 -0.0000 0.7730
vn 0.4714 -0.0000 0.8819
vn 0.2903 -0.0000 0.9569
vn 0.0980 -0.0000 0.9952
vn -0.0980 -0.0000 0.9952
vn -0.2903 -0.0000 0.9569
vn -0.4714 -0.0000 0.8819
vn -0.6344 -0.0000 0.7730
vn -0.7730 -0.0000 0.6344
vn -0.8819 -0.0000 0.4714
vn -0.9569 -0.0000 0.2903
vn -0.9952 -0.0000 0.0980
vn -0.9952 -0.0000 -0.0980
vn -0.9569 -0.0000 -0.2903
vn -0.8819 -0.0000 -0.4714
vn -0.7730 -0.0000 -0.6344
vn -0.6344 -0.0000 -0.7730
vn -0.4714 -0.0000 -0.8819
vn -0.0000 1.0000 -0.0000
vn -0.2903 -0.0000 -0.9569
vn -0.0980 -0.0000 -0.9952
vn -0.0000 -1.0000 -0.0000
vt 1.000000 1.000000
vt 0.968750 0.500000
vt 1.000000 0.500000
vt 0.968750 1.000000
vt 0.937500 0.500000
vt 0.937500 1.000000
vt 0.906250 0.500000
vt 0.906250 1.000000
vt 0.875000 0.500000
vt 0.875000 1.000000
vt 0.843750 0.500000
vt 0.843750 1.000000
vt 0.812500 0.500000
vt 0.812500 1.000000
vt 0.781250 0.500000
vt 0.781250 1.000000
vt 0.750000 0.500000
vt 0.750000 1.000000
vt 0.718750 0.500000
vt 0.718750 1.000000
vt 0.687500 0.500000
vt 0.687500 1.000000
vt 0.656250 0.500000
vt 0.656250 1.000000
vt 0.625000 0.500000
vt 0.625000 1.000000
vt 0.593750 0.500000
vt 0.593750 1.000000
vt 0.562500 0.500000
vt 0.562500 1.000000
vt 0.531250 0.500000
vt 0.531250 1.000000
vt 0.500000 0.500000
vt 0.500000 1.000000
vt 0.468750 0.500000
vt 0.468750 1.000000
vt 0.437500 0.500000
vt 0.437500 1.000000
vt 0.406250 0.500000
vt 0.406250 1.000000
vt 0.375000 0.500000
vt 0.375000 1.000000
vt 0.343750 0.500000
vt 0.343750 1.000000
vt 0.312500 0.500000
vt 0.312500 1.000000
vt 0.281250 0.500000
vt 0.281250 1.000000
vt 0.250000 0.500000
vt 0.250000 1.000000
vt 0.218750 0.500000
vt 0.218750 1.000000
vt 0.187500 0.500000
vt 0.187500 1.000000
vt 0.156250 0.500000
vt 0.156250 1.000000
vt 0.125000 0.500000
vt 0.125000 1.000000
vt 0.093750 0.500000
vt 0.093750 1.000000
vt 0.062500 0.500000
vt 0.158156 0.028269
vt 0.471731 0.158156
vt 0.341844 0.471731
vt 0.062500 1.000000
vt 0.031250 0.500000
vt 0.031250 1.000000
vt 0.000000 0.500000
vt 0.796822 0.014612
vt 0.514612 0.203178
vt 0.703178 0.485388
vt 0.296822 0.485388
vt 0.250000 0.490000
vt 0.203178 0.485388
vt 0.158156 0.471731
vt 0.116663 0.449553
vt 0.080294 0.419706
vt 0.050447 0.383337
vt 0.028269 0.341844
vt 0.014612 0.296822
vt 0.010000 0.250000
vt 0.014612 0.203178
vt 0.028269 0.158156
vt 0.050447 0.116663
vt 0.080294 0.080294
vt 0.116663 0.050447
vt 0.203178 0.014612
vt 0.341844 0.028269
vt 0.250000 0.010000
vt 0.296822 0.014612
vt 0.383337 0.050447
vt 0.419706 0.080294
vt 0.449553 0.116663
vt 0.485388 0.203178
vt 0.471731 0.341844
vt 0.490000 0.250000
vt 0.485388 0.296822
vt 0.449553 0.383337
vt 0.419706 0.419706
vt 0.383337 0.449553
vt 0.000000 1.000000
vt 0.750000 0.490000
vt 0.796822 0.485388
vt 0.841844 0.471731
vt 0.883337 0.449553
vt 0.919706 0.419706
vt 0.949553 0.383337
vt 0.971731 0.341844
vt 0.985388 0.296822
vt 0.990000 0.250000
vt 0.985388 0.203178
vt 0.971731 0.158156
vt 0.949553 0.116663
vt 0.919706 0.080294
vt 0.883337 0.050447
vt 0.841844 0.028269
vt 0.750000 0.010000
vt 0.703178 0.014612
vt 0.658156 0.028269
vt 0.616663 0.050447
vt 0.580294 0.080294
vt 0.550447 0.116663
vt 0.528269 0.158156
vt 0.510000 0.250000
vt 0.514612 0.296822
vt 0.528269 0.341844
vt 0.550447 0.383337
vt 0.580294 0.419706
vt 0.616663 0.449553
vt 0.658156 0.471731
s 0
f 128/249/44 129/250/44 127/251/44
f 130/252/45 131/253/45 129/250/45
f 132/254/46 133/255/46 131/253/46
f 134/256/47 135/257/47 133/255/47
f 136/258/48 137/259/48 135/257/48
f 138/260/49 139/261/49 137/259/49
f 140/262/50 141/263/50 139/261/50
f 142/264/51 143/265/51 141/263/51
f 144/266/52 145/267/52 143/265/52
f 146/268/53 147/269/53 145/267/53
f 148/270/54 149/271/54 147/269/54
f 150/272/55 151/273/55 149/271/55
f 152/274/56 153/275/56 151/273/56
f 154/276/57 155/277/57 153/275/57
f 156/278/58 157/279/58 155/277/58
f 158/280/59 159/281/59 157/279/59
f 160/282/60 161/283/60 159/281/60
f 162/284/61 163/285/61 161/283/61
f 164/286/62 165/287/62 163/285/62
f 166/288/63 167/289/63 165/287/63
f 168/290/64 169/291/64 167/289/64
f 170/292/65 171/293/65 169/291/65
f 172/294/66 173/295/66 171/293/66
f 174/296/67 175/297/67 173/295/67
f 176/298/68 177/299/68 175/297/68
f 178/300/69 179/301/69 177/299/69
f 180/302/70 181/303/70 179/301/70
f 182/304/71 183/305/71 181/303/71
f 184/306/72 185/307/72 183/305/72
f 186/308/73 187/309/73 185/307/73
f 164/310/74 148/311/74 132/312/74
f 188/313/75 189/314/75 187/309/75
f 190/315/76 127/316/76 189/314/76
f 157/317/77 173/318/77 189/319/77
f 128/249/44 130/252/44 129/250/44
f 130/252/45 132/254/45 131/253/45
f 132/254/46 134/256/46 133/255/46
f 134/256/47 136/258/47 135/257/47
f 136/258/48 138/260/48 137/259/48
f 138/260/49 140/262/49 139/261/49
f 140/262/50 142/264/50 141/263/50
f 142/264/51 144/266/51 143/265/51
f 144/266/52 146/268/52 145/267/52
f 146/268/53 148/270/53 147/269/53
f 148/270/54 150/272/54 149/271/54
f 150/272/55 152/274/55 151/273/55
f 152/274/56 154/276/56 153/275/56
f 154/276/57 156/278/57 155/277/57
f 156/278/58 158/280/58 157/279/58
f 158/280/59 160/282/59 159/281/59
f 160/282/60 162/284/60 161/283/60
f 162/284/61 164/286/61 163/285/61
f 164/286/62 166/288/62 165/287/62
f 166/288/63 168/290/63 167/289/63
f 168/290/64 170/292/64 169/291/64
f 170/292/65 172/294/65 171/293/65
f 172/294/66 174/296/66 173/295/66
f 174/296/67 176/298/67 175/297/67
f 176/298/68 178/300/68 177/299/68
f 178/300/69 180/302/69 179/301/69
f 180/302/70 182/304/70 181/303/70
f 182/304/71 184/306/71 183/305/71
f 184/306/72 186/308/72 185/307/72
f 186/308/73 188/313/73 187/309/73
f 132/312/74 130/320/74 128/321/74
f 128/321/74 190/322/74 132/312/74
f 190/322/74 188/323/74 132/312/74
f 188/323/74 186/324/74 184/325/74
f 184/325/74 182/326/74 180/327/74
f 180/327/74 178/328/74 176/329/74
f 176/329/74 174/330/74 180/327/74
f 174/330/74 172/331/74 180/327/74
f 172/331/74 170/332/74 168/333/74
f 168/333/74 166/334/74 164/310/74
f 164/310/74 162/335/74 156/336/74
f 162/335/74 160/337/74 156/336/74
f 160/337/74 158/338/74 156/336/74
f 156/336/74 154/339/74 152/340/74
f 152/340/74 150/341/74 148/311/74
f 148/311/74 146/342/74 140/343/74
f 146/342/74 144/344/74 140/343/74
f 144/344/74 142/345/74 140/343/74
f 140/343/74 138/346/74 136/347/74
f 136/347/74 134/348/74 132/312/74
f 188/323/74 184/325/74 132/312/74
f 184/325/74 180/327/74 132/312/74
f 172/331/74 168/333/74 180/327/74
f 168/333/74 164/310/74 180/327/74
f 156/336/74 152/340/74 164/310/74
f 152/340/74 148/311/74 164/310/74
f 140/343/74 136/347/74 148/311/74
f 136/347/74 132/312/74 148/311/74
f 132/312/74 180/327/74 164/310/74
f 188/313/75 190/315/75 189/314/75
f 190/315/76 128/349/76 127/316/76
f 189/319/77 127/350/77 129/351/77
f 129/351/77 131/352/77 133/353/77
f 133/353/77 135/354/77 137/355/77
f 137/355/77 139/356/77 141/357/77
f 141/357/77 143/358/77 145/359/77
f 145/359/77 147/360/77 149/361/77
f 149/361/77 151/362/77 153/363/77
f 153/363/77 155/364/77 157/317/77
f 157/317/77 159/365/77 161/366/77
f 161/366/77 163/367/77 165/368/77
f 165/368/77 167/369/77 169/370/77
f 169/370/77 171/371/77 173/318/77
f 173/318/77 175/372/77 177/373/77
f 177/373/77 179/374/77 181/375/77
f 181/375/77 183/376/77 185/377/77
f 185/377/77 187/378/77 189/319/77
f 189/319/77 129/351/77 141/357/77
f 129/351/77 133/353/77 141/357/77
f 133/353/77 137/355/77 141/357/77
f 141/357/77 145/359/77 157/317/77
f 145/359/77 149/361/77 157/317/77
f 149/361/77 153/363/77 157/317/77
f 157/317/77 161/366/77 173/318/77
f 161/366/77 165/368/77 173/318/77
f 165/368/77 169/370/77 173/318/77
f 173/318/77 177/373/77 189/319/77
f 177/373/77 181/375/77 189/319/77
f 181/375/77 185/377/77 189/319/77
f 189/319/77 141/357/77 157/317/77
o Cylinder.003
v 5.500000 5.949998 -0.750000
v 5.500000 6.349998 -0.750000
v 5.548773 5.949998 -0.745196
v 5.548773 6.349998 -0.745196
v 5.595671 5.949998 -0.730970
v 5.595671 6.349998 -0.730970
v 5.638893 5.949998 -0.707867
v 5.638893 6.349998 -0.707867
v 5.676777 5.949998 -0.676777
v 5.676777 6.349998 -0.676777
v 5.707868 5.949998 -0.638893
v 5.707868 6.349998 -0.638893
v 5.730970 5.949998 -0.595671
v 5.730970 6.349998 -0.595671
v 5.745196 5.949998 -0.548773
v 5.745196 6.349998 -0.548773
v 5.750000 5.949998 -0.500000
v 5.750000 6.349998 -0.500000
v 5.745196 5.949998 -0.451227
v 5.745196 6.349998 -0.451227
v 5.730970 5.949998 -0.404329
v 5.730970 6.349998 -0.404329
v 5.707868 5.949998 -0.361107
v 5.707868 6.349998 -0.361107
v 5.676777 5.949998 -0.323223
v 5.676777 6.349998 -0.323223
v 5.638893 5.949998 -0.292133
v 5.638893 6.349998 -0.292133
v 5.595671 5.949998 -0.269030
v 5.595671 6.349998 -0.269030
v 5.548773 5.949998 -0.254804
v 5.548773 6.349998 -0.254804
v 5.500000 5.949998 -0.250000
v 5.500000 6.349998 -0.250000
v 5.451227 5.949998 -0.254804
v 5.451227 6.349998 -0.254804
v 5.404329 5.949998 -0.269030
v 5.404329 6.349998 -0.269030
v 5.361107 5.949998 -0.292133
v 5.361107 6.349998 -0.292133
v 5.323223 5.949998 -0.323223
v 5.323223 6.349998 -0.323223
v 5.292132 5.949998 -0.361107
v 5.292132 6.349998 -0.361107
v 5.269030 5.949998 -0.404329
v 5.269030 6.349998 -0.404329
v 5.254804 5.949998 -0.451227
v 5.254804 6.349998 -0.451227
v 5.250000 5.949998 -0.500000
v 5.250000 6.349998 -0.500000
v 5.254804 5.949998 -0.548773
v 5.254804 6.349998 -0.548773
v 5.269030 5.949998 -0.595671
v 5.269030 6.349998 -0.595671
v 5.292132 5.949998 -0.638893
v 5.292132 6.349998 -0.638893
v 5.323223 5.949998 -0.676777
v 5.323223 6.349998 -0.676777
v 5.361107 5.949998 -0.707867
v 5.361107 6.349998 -0.707867
v 5.404329 5.949998 -0.730970
v 5.404329 6.349998 -0.730970
v 5.451227 5.949998 -0.745196
v 5.451227 6.349998 -0.745196
vn 0.0980 -0.0000 -0.9952
vn 0.2903 -0.0000 -0.9569
vn 0.4714 -0.0000 -0.8819
vn 0.6344 -0.0000 -0.7730
vn 0.7730 -0.0000 -0.6344
vn 0.8819 -0.0000 -0.4714
vn 0.9569 -0.0000 -0.2903
vn 0.9952 -0.0000 -0.0980
vn 0.9952 -0.0000 0.0980
vn 0.9569 -0.0000 0.2903
vn 0.8819 -0.0000 0.4714
vn 0.7730 -0.0000 0.6344
vn 0.6344 -0.0000 0.7730
vn 0.4714 -0.0000 0.8819
vn 0.2903 -0.0000 0.9569
vn 0.0980 -0.0000 0.9952
vn -0.0980 -0.0000 0.9952
vn -0.2903 -0.0000 0.9569
vn -0.4714 -0.0000 0.8819
vn -0.6344 -0.0000 0.7730
vn -0.7730 -0.0000 0.6344
vn -0.8819 -0.0000 0.4714
vn -0.9569 -0.0000 0.2903
vn -0.9952 -0.0000 0.0980
vn -0.9952 -0.0000 -0.0980
vn -0.9569 -0.0000 -0.2903
vn -0.8819 -0.0000 -0.4714
vn -0.7730 -0.0000 -0.6344
vn -0.6344 -0.0000 -0.7730
vn -0.4714 -0.0000 -0.8819
vn -0.0000 1.0000 -0.0000
vn -0.2903 -0.0000 -0.9569
vn -0.0980 -0.0000 -0.9952
vn -0.0000 -1.0000 -0.0000
vt 1.000000 1.000000
vt 0.968750 0.500000
vt 1.000000 0.500000
vt 0.968750 1.000000
vt 0.937500 0.500000
vt 0.937500 1.000000
vt 0.906250 0.500000
vt 0.906250 1.000000
vt 0.875000 0.500000
vt 0.875000 1.000000
vt 0.843750 0.500000
vt 0.843750 1.000000
vt 0.812500 0.500000
vt 0.812500 1.000000
vt 0.781250 0.500000
vt 0.781250 1.000000
vt 0.750000 0.500000
vt 0.750000 1.000000
vt 0.718750 0.500000
vt 0.718750 1.000000
vt 0.687500 0.500000
vt 0.687500 1.000000
vt 0.656250 0.500000
vt 0.656250 1.000000
vt 0.625000 0.500000
vt 0.625000 1.000000
vt 0.593750 0.500000
vt 0.593750 1.000000
vt 0.562500 0.500000
vt 0.562500 1.000000
vt 0.531250 0.500000
vt 0.531250 1.000000
vt 0.500000 0.500000
vt 0.500000 1.000000
vt 0.468750 0.500000
vt 0.468750 1.000000
vt 0.437500 0.500000
vt 0.437500 1.000000
vt 0.406250 0.500000
vt 0.406250 1.000000
vt 0.375000 0.500000
vt 0.375000 1.000000
vt 0.343750 0.500000
vt 0.343750 1.000000
vt 0.312500 0.500000
vt 0.312500 1.000000
vt 0.281250 0.500000
vt 0.281250 1.000000
vt 0.250000 0.500000
vt 0.250000 1.000000
vt 0.218750 0.500000
vt 0.218750 1.000000
vt 0.187500 0.500000
vt 0.187500 1.000000
vt 0.156250 0.500000
vt 0.156250 1.000000
vt 0.125000 0.500000
vt 0.125000 1.000000
vt 0.093750 0.500000
vt 0.093750 1.000000
vt 0.062500 0.500000
vt 0.158156 0.028269
vt 0.471731 0.158156
vt 0.341844 0.471731
vt 0.062500 1.000000
vt 0.031250 0.500000
vt 0.031250 1.000000
vt 0.000000 0.500000
vt 0.796822 0.014612
vt 0.514612 0.203178
vt 0.703178 0.485388
vt 0.296822 0.485388
vt 0.250000 0.490000
vt 0.203178 0.485388
vt 0.158156 0.471731
vt 0.116663 0.449553
vt 0.080294 0.419706
vt 0.050447 0.383337
vt 0.028269 0.341844
vt 0.014612 0.296822
vt 0.010000 0.250000
vt 0.014612 0.203178
vt 0.028269 0.158156
vt 0.050447 0.116663
vt 0.080294 0.080294
vt 0.116663 0.050447
vt 0.203178 0.014612
vt 0.341844 0.028269
vt 0.250000 0.010000
vt 0.296822 0.014612
vt 0.383337 0.050447
vt 0.419706 0.080294
vt 0.449553 0.116663
vt 0.485388 0.203178
vt 0.471731 0.341844
vt 0.490000 0.250000
vt 0.485388 0.296822
vt 0.449553 0.383337
vt 0.419706 0.419706
vt 0.383337 0.449553
vt 0.000000 1.000000
vt 0.750000 0.490000
vt 0.796822 0.485388
vt 0.841844 0.471731
vt 0.883337 0.449553
vt 0.919706 0.419706
vt 0.949553 0.383337
vt 0.971731 0.341844
vt 0.985388 0.296822
vt 0.990000 0.250000
vt 0.985388 0.203178
vt 0.971731 0.158156
vt 0.949553 0.116663
vt 0.919706 0.080294
vt 0.883337 0.050447
vt 0.841844 0.028269
vt 0.750000 0.010000
vt 0.703178 0.014612
vt 0.658156 0.028269
vt 0.616663 0.050447
vt 0.580294 0.080294
vt 0.550447 0.116663
vt 0.528269 0.158156
vt 0.510000 0.250000
vt 0.514612 0.296822
vt 0.528269 0.341844
vt 0.550447 0.383337
vt 0.580294 0.419706
vt 0.616663 0.449553
vt 0.658156 0.471731
s 0
f 192/379/78 193/380/78 191/381/78
f 194/382/79 195/383/79 193/380/79
f 196/384/80 197/385/80 195/383/80
f 198/386/81 199/387/81 197/385/81
f 200/388/82 201/389/82 199/387/82
f 202/390/83 203/391/83 201/389/83
f 204/392/84 205/393/84 203/391/84
f 206/394/85 207/395/85 205/393/85
f 208/396/86 209/397/86 207/395/86
f 210/398/87 211/399/87 209/397/87
f 212/400/88 213/401/88 211/399/88
f 214/402/89 215/403/89 213/401/89
f 216/404/90 217/405/90 215/403/90
f 218/406/91 219/407/91 217/405/91
f 220/408/92 221/409/92 219/407/92
f 222/410/93 223/411/93 221/409/93
f 224/412/94 225/413/94 223/411/94
f 226/414/95 227/415/95 225/413/95
f 228/416/96 229/417/96 227/415/96
f 230/418/97 231/419/97 229/417/97
f 232/420/98 233/421/98 231/419/98
f 234/422/99 235/423/99 233/421/99
f 236/424/100 237/425/100 235/423/100
f 238/426/101 239/427/101 237/425/101
f 240/428/102 241/429/102 239/427/102
f 242/430/103 243/431/103 241/429/103
f 244/432/104 245/433/104 243/431/104
f 246/434/105 247/435/105 245/433/105
f 248/436/106 249/437/106 247/435/106
f 250/438/107 251/439/107 249/437/107
f 228/440/108 212/441/108 196/442/108
f 252/443/109 253/444/109 251/439/109
f 254/445/110 191/446/110 253/444/110
f 221/447/111 237/448/111 253/449/111
f 192/379/78 194/382/78 193/380/78
f 194/382/79 196/384/79 195/383/79
f 196/384/80 198/386/80 197/385/80
f 198/386/81 200/388/81 199/387/81
f 200/388/82 202/390/82 201/389/82
f 202/390/83 204/392/83 203/391/83
f 204/392/84 206/394/84 205/393/84
f 206/394/85 208/396/85 207/395/85
f 208/396/86 210/398/86 209/397/86
f 210/398/87 212/400/87 211/399/87
f 212/400/88 214/402/88 213/401/88
f 214/402/89 216/404/89 215/403/89
f 216/404/90 218/406/90 217/405/90
f 218/406/91 220/408/91 219/407/91
f 220/408/92 222/410/92 221/409/92
f 222/410/93 224/412/93 223/411/93
f 224/412/94 226/414/94 225/413/94
f 226/414/95 228/416/95 227/415/95
f 228/416/96 230/418/96 229/417/96
f 230/418/97 232/420/97 231/419/97
f 232/420/98 234/422/98 233/421/98
f 234/422/99 236/424/99 235/423/99
f 236/424/100 238/426/100 237/425/100
f 238/426/101 240/428/101 239/427/101
f 240/428/102 242/430/102 241/429/102
f 242/430/103 244/432/103 243/431/103
f 244/432/104 246/434/104 245/433/104
f 246/434/105 248/436/105 247/435/105
f 248/436/106 250/438/106 249/437/106
f 250/438/107 252/443/107 251/439/107
f 196/442/108 194/450/108 192/451/108
f 192/451/108 254/452/108 196/442/108
f 254/452/108 252/453/108 196/442/108
f 252/453/108 250/454/108 248/455/108
f 248/455/108 246/456/108 244/457/108
f 244/457/108 242/458/108 240/459/108
f 240/459/108 238/460/108 244/457/108
f 238/460/108 236/461/108 244/457/108
f 236/461/108 234/462/108 232/463/108
f 232/463/108 230/464/108 228/440/108
f 228/440/108 226/465/108 220/466/108
f 226/465/108 224/467/108 220/466/108
f 224/467/108 222/468/108 220/466/108
f 220/466/108 218/469/108 216/470/108
f 216/470/108 214/471/108 212/441/108
f 212/441/108 210/472/108 204/473/108
f 210/472/108 208/474/108 204/473/108
f 208/474/108 206/475/108 204/473/108
f 204/473/108 202/476/108 200/477/108
f 200/477/108 198/478/108 196/442/108
f 252/453/108 248/455/108 196/442/108
f 248/455/108 244/457/108 196/442/108
f 236/461/108 232/463/108 244/457/108
f 232/463/108 228/440/108 244/457/108
f 220/466/108 216/470/108 228/440/108
f 216/470/108 212/441/108 228/440/108
f 204/473/108 200/477/108 212/441/108
f 200/477/108 196/442/108 212/441/108
f 196/442/108 244/457/108 228/440/108
f 252/443/109 254/445/109 253/444/109
f 254/445/110 192/479/110 191/446/110
f 253/449/111 191/480/111 193/481/111
f 193/481/111 195/482/111 197/483/111
f 197/483/111 199/484/111 201/485/111
f 201/485/111 203/486/111 205/487/111
f 205/487/111 207/488/111 209/489/111
f 209/489/111 211/490/111 213/491/111
f 213/491/111 215/492/111 217/493/111
f 217/493/111 219/494/111 221/447/111
f 221/447/111 223/495/111 225/496/111
f 225/496/111 227/497/111 229/498/111
f 229/498/111 231/499/111 233/500/111
f 233/500/111 235/501/111 237/448/111
f 237/448/111 239/502/111 241/503/111
f 241/503/111 243/504/111 245/505/111
f 245/505/111 247/506/111 249/507/111
f 249/507/111 251/508/111 253/449/111
f 253/449/111 193/481/111 205/487/111
f 193/481/111 197/483/111 205/487/111
f 197/483/111 201/485/111 205/487/111
f 205/487/111 209/489/111 221/447/111
f 209/489/111 213/491/111 221/447/111
f 213/491/111 217/493/111 221/447/111
f 221/447/111 225/496/111 237/448/111
f 225/496/111 229/498/111 237/448/111
f 229/498/111 233/500/111 237/448/111
f 237/448/111 241/503/111 253/449/111
f 241/503/111 245/505/111 253/449/111
f 245/505/111 249/507/111 253/449/111
f 253/449/111 205/487/111 221/447/111
o Cylinder.004
v 0.500000 5.949998 -0.750000
v 0.500000 6.349998 -0.750000
v 0.548773 5.949998 -0.745196
v 0.548773 6.349998 -0.745196
v 0.595671 5.949998 -0.730970
v 0.595671 6.349998 -0.730970
v 0.638893 5.949998 -0.707867
v 0.638893 6.349998 -0.707867
v 0.676777 5.949998 -0.676777
v 0.676777 6.349998 -0.676777
v 0.707867 5.949998 -0.638893
v 0.707867 6.349998 -0.638893
v 0.730970 5.949998 -0.595671
v 0.730970 6.349998 -0.595671
v 0.745196 5.949998 -0.548773
v 0.745196 6.349998 -0.548773
v 0.750000 5.949998 -0.500000
v 0.750000 6.349998 -0.500000
v 0.745196 5.949998 -0.451227
v 0.745196 6.349998 -0.451227
v 0.730970 5.949998 -0.404329
v 0.730970 6.349998 -0.404329
v 0.707867 5.949998 -0.361107
v 0.707867 6.349998 -0.361107
v 0.676777 5.949998 -0.323223
v 0.676777 6.349998 -0.323223
v 0.638893 5.949998 -0.292133
v 0.638893 6.349998 -0.292133
v 0.595671 5.949998 -0.269030
v 0.595671 6.349998 -0.269030
v 0.548773 5.949998 -0.254804
v 0.548773 6.349998 -0.254804
v 0.500000 5.949998 -0.250000
v 0.500000 6.349998 -0.250000
v 0.451227 5.949998 -0.254804
v 0.451227 6.349998 -0.254804
v 0.404329 5.949998 -0.269030
v 0.404329 6.349998 -0.269030
v 0.361107 5.949998 -0.292133
v 0.361107 6.349998 -0.292133
v 0.323223 5.949998 -0.323223
v 0.323223 6.349998 -0.323223
v 0.292133 5.949998 -0.361107
v 0.292133 6.349998 -0.361107
v 0.269030 5.949998 -0.404329
v 0.269030 6.349998 -0.404329
v 0.254804 5.949998 -0.451227
v 0.254804 6.349998 -0.451227
v 0.250000 5.949998 -0.500000
v 0.250000 6.349998 -0.500000
v 0.254804 5.949998 -0.548773
v 0.254804 6.349998 -0.548773
v 0.269030 5.949998 -0.595671
v 0.269030 6.349998 -0.595671
v 0.292133 5.949998 -0.638893
v 0.292133 6.349998 -0.638893
v 0.323223 5.949998 -0.676777
v 0.323223 6.349998 -0.676777
v 0.361107 5.949998 -0.707867
v 0.361107 6.349998 -0.707867
v 0.404329 5.949998 -0.730970
v 0.404329 6.349998 -0.730970
v 0.451227 5.949998 -0.745196
v 0.451227 6.349998 -0.745196
vn 0.0980 -0.0000 -0.9952
vn 0.2903 -0.0000 -0.9569
vn 0.4714 -0.0000 -0.8819
vn 0.6344 -0.0000 -0.7730
vn 0.7730 -0.0000 -0.6344
vn 0.8819 -0.0000 -0.4714
vn 0.9569 -0.0000 -0.2903
vn 0.9952 -0.0000 -0.0980
vn 0.9952 -0.0000 0.0980
vn 0.9569 -0.0000 0.2903
vn 0.8819 -0.0000 0.4714
vn 0.7730 -0.0000 0.6344
vn 0.6344 -0.0000 0.7730
vn 0.4714 -0.0000 0.8819
vn 0.2903 -0.0000 0.9569
vn 0.0980 -0.0000 0.9952
vn -0.0980 -0.0000 0.9952
vn -0.2903 -0.0000 0.9569
vn -0.4714 -0.0000 0.8819
vn -0.6344 -0.0000 0.7730
vn -0.7730 -0.0000 0.6344
vn -0.8819 -0.0000 0.4714
vn -0.9569 -0.0000 0.2903
vn -0.9952 -0.0000 0.0980
vn -0.9952 -0.0000 -0.0980
vn -0.9569 -0.0000 -0.2903
vn -0.8819 -0.0000 -0.4714
vn -0.7730 -0.0000 -0.6344
vn -0.6344 -0.0000 -0.7730
vn -0.4714 -0.0000 -0.8819
vn -0.0000 1.0000 -0.0000
vn -0.2903 -0.0000 -0.9569
vn -0.0980 -0.0000 -0.9952
vn -0.0000 -1.0000 -0.0000
vt 1.000000 1.000000
vt 0.968750 0.500000
vt 1.000000 0.500000
vt 0.968750 1.000000
vt 0.937500 0.500000
vt 0.937500 1.000000
vt 0.906250 0.500000
vt 0.906250 1.000000
vt 0.875000 0.500000
vt 0.875000 1.000000
vt 0.843750 0.500000
vt 0.843750 1.000000
vt 0.812500 0.500000
vt 0.812500 1.000000
vt 0.781250 0.500000
vt 0.781250 1.000000
vt 0.750000 0.500000
vt 0.750000 1.000000
vt 0.718750 0.500000
vt 0.718750 1.000000
vt 0.687500 0.500000
vt 0.687500 1.000000
vt 0.656250 0.500000
vt 0.656250 1.000000
vt 0.625000 0.500000
vt 0.625000 1.000000
vt 0.593750 0.500000
vt 0.593750 1.000000
vt 0.562500 0.500000
vt 0.562500 1.000000
vt 0.531250 0.500000
vt 0.531250 1.000000
vt 0.500000 0.500000
vt 0.500000 1.000000
vt 0.468750 0.500000
vt 0.468750 1.000000
vt 0.437500 0.500000
vt 0.437500 1.000000
vt 0.406250 0.500000
vt 0.406250 1.000000
vt 0.375000 0.500000
vt 0.375000 1.000000
vt 0.343750 0.500000
vt 0.343750 1.000000
vt 0.312500 0.500000
vt 0.312500 1.000000
vt 0.281250 0.500000
vt 0.281250 1.000000
vt 0.250000 0.500000
vt 0.250000 1.000000
vt 0.218750 0.500000
vt 0.218750 1.000000
vt 0.187500 0.500000
vt 0.187500 1.000000
vt 0.156250 0.500000
vt 0.156250 1.000000
vt 0.125000 0.500000
vt 0.125000 1.000000
vt 0.093750 0.500000
vt 0.093750 1.000000
vt 0.062500 0.500000
vt 0.158156 0.028269
vt 0.471731 0.158156
vt 0.341844 0.471731
vt 0.062500 1.000000
vt 0.031250 0.500000
vt 0.031250 1.000000
vt 0.000000 0.500000
vt 0.796822 0.014612
vt 0.514612 0.203178
vt 0.703178 0.485388
vt 0.296822 0.485388
vt 0.250000 0.490000
vt 0.203178 0.485388
vt 0.158156 0.471731
vt 0.116663 0.449553
vt 0.080294 0.419706
vt 0.050447 0.383337
vt 0.028269 0.341844
vt 0.014612 0.296822
vt 0.010000 0.250000
vt 0.014612 0.203178
vt 0.028269 0.158156
vt 0.050447 0.116663
vt 0.080294 0.080294
vt 0.116663 0.050447
vt 0.203178 0.014612
vt 0.341844 0.028269
vt 0.250000 0.010000
vt 0.296822 0.014612
vt 0.383337 0.050447
vt 0.419706 0.080294
vt 0.449553 0.116663
vt 0.485388 0.203178
vt 0.471731 0.341844
vt 0.490000 0.250000
vt 0.485388 0.296822
vt 0.449553 0.383337
vt 0.419706 0.419706
vt 0.383337 0.449553
vt 0.000000 1.000000
vt 0.750000 0.490000
vt 0.796822 0.485388
vt 0.841844 0.471731
vt 0.883337 0.449553
vt 0.919706 0.419706
vt 0.949553 0.383337
vt 0.971731 0.341844
vt 0.985388 0.296822
vt 0.990000 0.250000
vt 0.985388 0.203178
vt 0.971731 0.158156
vt 0.949553 0.116663
vt 0.919706 0.080294
vt 0.883337 0.050447
vt 0.841844 0.028269
vt 0.750000 0.010000
vt 0.703178 0.014612
vt 0.658156 0.028269
vt 0.616663 0.050447
vt 0.580294 0.080294
vt 0.550447 0.116663
vt 0.528269 0.158156
vt 0.510000 0.250000
vt 0.514612 0.296822
vt 0.528269 0.341844
vt 0.550447 0.383337
vt 0.580294 0.419706
vt 0.616663 0.449553
vt 0.658156 0.471731
s 0
f 256/509/112 257/510/112 255/511/112
f 258/512/113 259/513/113 257/510/113
f 260/514/114 261/515/114 259/513/114
f 262/516/115 263/517/115 261/515/115
f 264/518/116 265/519/116 263/517/116
f 266/520/117 267/521/117 265/519/117
f 268/522/118 269/523/118 267/521/118
f 270/524/119 271/525/119 269/523/119
f 272/526/120 273/527/120 271/525/120
f 274/528/121 275/529/121 273/527/121
f 276/530/122 277/531/122 275/529/122
f 278/532/123 279/533/123 277/531/123
f 280/534/124 281/535/124 279/533/124
f 282/536/125 283/537/125 281/535/125
f 284/538/126 285/539/126 283/537/126
f 286/540/127 287/541/127 285/539/127
f 288/542/128 289/543/128 287/541/128
f 290/544/129 291/545/129 289/543/129
f 292/546/130 293/547/130 291/545/130
f 294/548/131 295/549/131 293/547/131
f 296/550/132 297/551/132 295/549/132
f 298/552/133 299/553/133 297/551/133
f 300/554/134 301/555/134 299/553/134
f 302/556/135 303/557/135 301/555/135
f 304/558/136 305/559/136 303/557/136
f 306/560/137 307/561/137 305/559/137
f 308/562/138 309/563/138 307/561/138
f 310/564/139 311/565/139 309/563/139
f 312/566/140 313/567/140 311/565/140
f 314/568/141 315/569/141 313/567/141
f 292/570/142 276/571/142 260/572/142
f 316/573/143 317/574/143 315/569/143
f 318/575/144 255/576/144 317/574/144
f 285/577/145 301/578/145 317/579/145
f 256/509/112 258/512/112 257/510/112
f 258/512/113 260/514/113 259/513/113
f 260/514/114 262/516/114 261/515/114
f 262/516/115 264/518/115 263/517/115
f 264/518/116 266/520/116 265/519/116
f 266/520/117 268/522/117 267/521/117
f 268/522/118 270/524/118 269/523/118
f 270/524/119 272/526/119 271/525/119
f 272/526/120 274/528/120 273/527/120
f 274/528/121 276/530/121 275/529/121
f 276/530/122 278/532/122 277/531/122
f 278/532/123 280/534/123 279/533/123
f 280/534/124 282/536/124 281/535/124
f 282/536/125 284/538/125 283/537/125
f 284/538/126 286/540/126 285/539/126
f 286/540/127 288/542/127 287/541/127
f 288/542/128 290/544/128 289/543/128
f 290/544/129 292/546/129 291/545/129
f 292/546/130 294/548/130 293/547/130
f 294/548/131 296/550/131 295/549/131
f 296/550/132 298/552/132 297/551/132
f 298/552/133 300/554/133 299/553/133
f 300/554/134 302/556/134 301/555/134
f 302/556/135 304/558/135 303/557/135
f 304/558/136 306/560/136 305/559/136
f 306/560/137 308/562/137 307/561/137
f 308/562/138 310/564/138 309/563/138
f 310/564/139 312/566/139 311/565/139
f 312/566/140 314/568/140 313/567/140
f 314/568/141 316/573/141 315/569/141
f 260/572/142 258/580/142 256/581/142
f 256/581/142 318/582/142 260/572/142
f 318/582/142 316/583/142 260/572/142
f 316/583/142 314/584/142 312/585/142
f 312/585/142 310/586/142 308/587/142
f 308/587/142 306/588/142 304/589/142
f 304/589/142 302/590/142 308/587/142
f 302/590/142 300/591/142 308/587/142
f 300/591/142 298/592/142 296/593/142
f 296/593/142 294/594/142 292/570/142
f 292/570/142 290/595/142 284/596/142
f 290/595/142 288/597/142 284/596/142
f 288/597/142 286/598/142 284/596/142
f 284/596/142 282/599/142 280/600/142
f 280/600/142 278/601/142 276/571/142
f 276/571/142 274/602/142 268/603/142
f 274/602/142 272/604/142 268/603/142
f 272/604/142 270/605/142 268/603/142
f 268/603/142 266/606/142 264/607/142
f 264/607/142 262/608/142 260/572/142
f 316/583/142 312/585/142 260/572/142
f 312/585/142 308/587/142 260/572/142
f 300/591/142 296/593/142 308/587/142
f 296/593/142 292/570/142 308/587/142
f 284/596/142 280/600/142 292/570/142
f 280/600/142 276/571/142 292/570/142
f 268/603/142 264/607/142 276/571/142
f 264/607/142 260/572/142 276/571/142
f 260/572/142 308/587/142 292/570/142
f 316/573/143 318/575/143 317/574/143
f 318/575/144 256/609/144 255/576/144
f 317/579/145 255/610/145 257/611/145
f 257/611/145 259/612/145 261/613/145
f 261/613/145 263/614/145 265/615/145
f 265/615/145 267/616/145 269/617/145
f 269/617/145 271/618/145 273/619/145
f 273/619/145 275/620/145 277/621/145
f 277/621/145 279/622/145 281/623/145
f 281/623/145 283/624/145 285/577/145
f 285/577/145 287/625/145 289/626/145
f 289/626/145 291/627/145 293/628/145
f 293/628/145 295/629/145 297/630/145
f 297/630/145 299/631/145 301/578/145
f 301/578/145 303/632/145 305/633/145
f 305/633/145 307/634/145 309/635/145
f 309/635/145 311/636/145 313/637/145
f 313/637/145 315/638/145 317/579/145
f 317/579/145 257/611/145 269/617/145
f 257/611/145 261/613/145 269/617/145
f 261/613/145 265/615/145 269/617/145
f 269/617/145 273/619/145 285/577/145
f 273/619/145 277/621/145 285/577/145
f 277/621/145 281/623/145 285/577/145
f 285/577/145 289/626/145 301/578/145
f 289/626/145 293/628/145 301/578/145
f 293/628/145 297/630/145 301/578/145
f 301/578/145 305/633/145 317/579/145
f 305/633/145 309/635/145 317/579/145
f 309/635/145 313/637/145 317/579/145
f 317/579/145 269/617/145 285/577/145
