# Blender 4.3.1
# www.blender.org
mtllib Wand_Mit_Balkontuer.mtl
o Cube.001
v 6.000000 6.000000 -1.000000
v 5.880000 5.880000 -0.900000
v 6.000000 0.000000 -1.000000
v 5.880000 0.120000 -0.900000
v 6.000000 6.000000 0.000000
v 6.000000 0.000000 0.000000
v 0.000000 6.000000 -1.000000
v 0.120000 5.880000 -0.900000
v 0.000000 0.000000 -1.000000
v 0.120000 0.120000 -0.900000
v 0.000000 6.000000 0.000000
v 0.000000 0.000000 0.000000
v 5.880000 0.120000 0.000000
v 0.120000 5.880000 0.000000
v 5.880000 5.880000 0.000000
v 0.120000 0.120000 0.000000
v 3.600000 4.238533 -1.000000
v 2.400000 4.238533 -1.000000
v 2.400000 1.238533 -1.000000
v 3.600000 1.238533 -1.000000
v 2.400000 1.238533 -0.900000
v 3.600000 1.238533 -0.900000
v 3.600000 4.238533 -0.900000
v 2.400000 4.238533 -0.900000
vn -0.0000 1.0000 -0.0000
vn -0.0000 -0.0000 1.0000
vn -1.0000 -0.0000 -0.0000
vn -0.0000 -1.0000 -0.0000
vn 1.0000 -0.0000 -0.0000
vn -0.0000 -0.0000 -1.0000
vt 0.875000 0.500000
vt 0.625000 0.750000
vt 0.625000 0.500000
vt 0.625000 1.000000
vt 0.620000 0.755000
vt 0.375000 1.000000
vt 0.380000 0.755000
vt 0.380000 0.995000
vt 0.625000 0.000000
vt 0.375000 0.250000
vt 0.375000 0.000000
vt 0.375000 0.500000
vt 0.125000 0.750000
vt 0.125000 0.500000
vt 0.375000 0.750000
vt 0.625000 0.250000
vt 0.551606 0.350000
vt 0.426606 0.400000
vt 0.625000 0.725000
vt 0.875000 0.725000
vt 0.375000 0.025000
vt 0.125000 0.725000
vt 0.375000 0.725000
vt 0.423547 0.401042
vt 0.423547 0.348958
vt 0.553756 0.401042
vt 0.375000 0.134870
vt 0.625000 0.122370
vt 0.375000 0.122370
vt 0.375000 0.627630
vt 0.625000 0.615130
vt 0.375000 0.615130
vt 0.125000 0.627630
vt 0.875000 0.627630
vt 0.875000 0.615130
vt 0.875000 0.750000
vt 0.620000 0.995000
vt 0.426606 0.350000
vt 0.551606 0.400000
vt 0.625000 0.025000
vt 0.553756 0.348958
vt 0.625000 0.134870
vt 0.625000 0.627630
vt 0.125000 0.615130
s 0
usemtl Material.001
f 7/1/1 5/2/1 1/3/1
f 5/2/2 11/4/2 15/5/2
f 12/6/2 13/7/2 16/8/2
f 11/9/3 9/10/3 12/11/3
f 3/12/4 12/13/4 9/14/4
f 1/3/5 6/15/5 3/12/5
f 7/16/6 1/3/6 18/17/6
f 9/10/6 20/18/6 3/12/6
f 8/1/4 15/19/4 14/20/4
f 8/16/5 16/21/5 10/10/5
f 4/12/1 16/22/1 13/23/1
f 4/12/3 15/19/3 2/3/3
f 10/10/2 22/24/2 21/25/2
f 2/3/2 8/16/2 23/26/2
f 19/27/5 24/28/5 21/29/5
f 22/30/3 17/31/3 20/32/3
f 20/32/1 21/33/1 22/30/1
f 17/31/4 24/34/4 18/35/4
f 7/1/1 11/36/1 5/2/1
f 15/5/2 13/7/2 6/15/2
f 11/4/2 12/6/2 16/8/2
f 11/4/2 16/8/2 14/37/2
f 15/5/2 6/15/2 5/2/2
f 11/4/2 14/37/2 15/5/2
f 12/6/2 6/15/2 13/7/2
f 11/9/3 7/16/3 9/10/3
f 3/12/4 6/15/4 12/13/4
f 1/3/5 5/2/5 6/15/5
f 19/38/6 9/10/6 18/17/6
f 9/10/6 7/16/6 18/17/6
f 1/3/6 3/12/6 17/39/6
f 3/12/6 20/18/6 17/39/6
f 1/3/6 17/39/6 18/17/6
f 9/10/6 19/38/6 20/18/6
f 8/1/4 2/3/4 15/19/4
f 8/16/5 14/40/5 16/21/5
f 4/12/1 10/14/1 16/22/1
f 4/12/3 13/23/3 15/19/3
f 10/10/2 4/12/2 22/24/2
f 23/26/2 22/24/2 4/12/2
f 8/16/2 10/10/2 24/41/2
f 10/10/2 21/25/2 24/41/2
f 23/26/2 4/12/2 2/3/2
f 8/16/2 24/41/2 23/26/2
f 19/27/5 18/42/5 24/28/5
f 22/30/3 23/43/3 17/31/3
f 20/32/1 19/44/1 21/33/1
f 17/31/4 23/43/4 24/34/4
o Cube
v 1.800000 4.620000 -0.955163
v 1.800000 4.800000 -0.955163
v 1.800000 4.620000 -1.044837
v 1.800000 4.800000 -1.044837
v 4.200000 4.620000 -0.955163
v 4.200000 4.800000 -0.955163
v 4.200000 4.620000 -1.044837
v 4.200000 4.800000 -1.044837
vn -1.0000 -0.0000 -0.0000
vn -0.0000 -0.0000 -1.0000
vn 1.0000 -0.0000 -0.0000
vn -0.0000 -0.0000 1.0000
vn -0.0000 -1.0000 -0.0000
vn -0.0000 1.0000 -0.0000
vt 0.625000 0.000000
vt 0.375000 0.250000
vt 0.375000 0.000000
vt 0.625000 0.250000
vt 0.375000 0.500000
vt 0.625000 0.500000
vt 0.375000 0.750000
vt 0.625000 0.750000
vt 0.375000 1.000000
vt 0.125000 0.750000
vt 0.125000 0.500000
vt 0.875000 0.500000
vt 0.625000 1.000000
vt 0.875000 0.750000
s 0
f 26/45/7 27/46/7 25/47/7
f 28/48/8 31/49/8 27/46/8
f 32/50/9 29/51/9 31/49/9
f 30/52/10 25/53/10 29/51/10
f 31/49/11 25/54/11 27/55/11
f 28/56/12 30/52/12 32/50/12
f 26/45/7 28/48/7 27/46/7
f 28/48/8 32/50/8 31/49/8
f 32/50/9 30/52/9 29/51/9
f 30/52/10 26/57/10 25/53/10
f 31/49/11 29/51/11 25/54/11
f 28/56/12 26/58/12 30/52/12
o Cube.002
v 4.200000 1.200000 -0.955163
v 4.200000 4.800000 -0.955163
v 4.200000 1.200000 -1.044837
v 4.200000 4.800000 -1.044837
v 4.380000 1.200000 -0.955163
v 4.380000 4.800000 -0.955163
v 4.380000 1.200000 -1.044837
v 4.380000 4.800000 -1.044837
vn -1.0000 -0.0000 -0.0000
vn -0.0000 -0.0000 -1.0000
vn 1.0000 -0.0000 -0.0000
vn -0.0000 -0.0000 1.0000
vn -0.0000 -1.0000 -0.0000
vn -0.0000 1.0000 -0.0000
vt 0.625000 0.000000
vt 0.375000 0.250000
vt 0.375000 0.000000
vt 0.625000 0.250000
vt 0.375000 0.500000
vt 0.625000 0.500000
vt 0.375000 0.750000
vt 0.625000 0.750000
vt 0.375000 1.000000
vt 0.125000 0.750000
vt 0.125000 0.500000
vt 0.875000 0.500000
vt 0.625000 1.000000
vt 0.875000 0.750000
s 0
f 34/59/13 35/60/13 33/61/13
f 36/62/14 39/63/14 35/60/14
f 40/64/15 37/65/15 39/63/15
f 38/66/16 33/67/16 37/65/16
f 39/63/17 33/68/17 35/69/17
f 36/70/18 38/66/18 40/64/18
f 34/59/13 36/62/13 35/60/13
f 36/62/14 40/64/14 39/63/14
f 40/64/15 38/66/15 37/65/15
f 38/66/16 34/71/16 33/67/16
f 39/63/17 37/65/17 33/68/17
f 36/70/18 34/72/18 38/66/18
o Cube.004
v 1.619620 1.200000 -0.955163
v 1.619620 4.800000 -0.955163
v 1.619620 1.200000 -1.044837
v 1.619620 4.800000 -1.044837
v 1.799620 1.200000 -0.955163
v 1.799620 4.800000 -0.955163
v 1.799620 1.200000 -1.044837
v 1.799620 4.800000 -1.044837
vn -1.0000 -0.0000 -0.0000
vn -0.0000 -0.0000 -1.0000
vn 1.0000 -0.0000 -0.0000
vn -0.0000 -0.0000 1.0000
vn -0.0000 -1.0000 -0.0000
vn -0.0000 1.0000 -0.0000
vt 0.625000 0.000000
vt 0.375000 0.250000
vt 0.375000 0.000000
vt 0.625000 0.250000
vt 0.375000 0.500000
vt 0.625000 0.500000
vt 0.375000 0.750000
vt 0.625000 0.750000
vt 0.375000 1.000000
vt 0.125000 0.750000
vt 0.125000 0.500000
vt 0.875000 0.500000
vt 0.625000 1.000000
vt 0.875000 0.750000
s 0
f 42/73/19 43/74/19 41/75/19
f 44/76/20 47/77/20 43/74/20
f 48/78/21 45/79/21 47/77/21
f 46/80/22 41/81/22 45/79/22
f 47/77/23 41/82/23 43/83/23
f 44/84/24 46/80/24 48/78/24
f 42/73/19 44/76/19 43/74/19
f 44/76/20 48/78/20 47/77/20
f 48/78/21 46/80/21 45/79/21
f 46/80/22 42/85/22 41/81/22
f 47/77/23 45/79/23 41/82/23
f 44/84/24 42/86/24 46/80/24
o Cylinder.001
v 5.500000 -0.450000 -0.750000
v 5.500000 -0.050000 -0.750000
v 5.548773 -0.450000 -0.745196
v 5.548773 -0.050000 -0.745196
v 5.595671 -0.450000 -0.730970
v 5.595671 -0.050000 -0.730970
v 5.638893 -0.450000 -0.707867
v 5.638893 -0.050000 -0.707867
v 5.676777 -0.450000 -0.676777
v 5.676777 -0.050000 -0.676777
v 5.707868 -0.450000 -0.638893
v 5.707868 -0.050000 -0.638893
v 5.730970 -0.450000 -0.595671
v 5.730970 -0.050000 -0.595671
v 5.745196 -0.450000 -0.548773
v 5.745196 -0.050000 -0.548773
v 5.750000 -0.450000 -0.500000
v 5.750000 -0.050000 -0.500000
v 5.745196 -0.450000 -0.451227
v 5.745196 -0.050000 -0.451227
v 5.730970 -0.450000 -0.404329
v 5.730970 -0.050000 -0.404329
v 5.707868 -0.450000 -0.361107
v 5.707868 -0.050000 -0.361107
v 5.676777 -0.450000 -0.323223
v 5.676777 -0.050000 -0.323223
v 5.638893 -0.450000 -0.292133
v 5.638893 -0.050000 -0.292133
v 5.595671 -0.450000 -0.269030
v 5.595671 -0.050000 -0.269030
v 5.548773 -0.450000 -0.254804
v 5.548773 -0.050000 -0.254804
v 5.500000 -0.450000 -0.250000
v 5.500000 -0.050000 -0.250000
v 5.451227 -0.450000 -0.254804
v 5.451227 -0.050000 -0.254804
v 5.404329 -0.450000 -0.269030
v 5.404329 -0.050000 -0.269030
v 5.361107 -0.450000 -0.292133
v 5.361107 -0.050000 -0.292133
v 5.323223 -0.450000 -0.323223
v 5.323223 -0.050000 -0.323223
v 5.292132 -0.450000 -0.361107
v 5.292132 -0.050000 -0.361107
v 5.269030 -0.450000 -0.404329
v 5.269030 -0.050000 -0.404329
v 5.254804 -0.450000 -0.451227
v 5.254804 -0.050000 -0.451227
v 5.250000 -0.450000 -0.500000
v 5.250000 -0.050000 -0.500000
v 5.254804 -0.450000 -0.548773
v 5.254804 -0.050000 -0.548773
v 5.269030 -0.450000 -0.595671
v 5.269030 -0.050000 -0.595671
v 5.292132 -0.450000 -0.638893
v 5.292132 -0.050000 -0.638893
v 5.323223 -0.450000 -0.676777
v 5.323223 -0.050000 -0.676777
v 5.361107 -0.450000 -0.707867
v 5.361107 -0.050000 -0.707867
v 5.404329 -0.450000 -0.730970
v 5.404329 -0.050000 -0.730970
v 5.451227 -0.450000 -0.745196
v 5.451227 -0.050000 -0.745196
vn 0.0980 -0.0000 -0.9952
vn 0.2903 -0.0000 -0.9569
vn 0.4714 -0.0000 -0.8819
vn 0.6344 -0.0000 -0.7730
vn 0.7730 -0.0000 -0.6344
vn 0.8819 -0.0000 -0.4714
vn 0.9569 -0.0000 -0.2903
vn 0.9952 -0.0000 -0.0980
vn 0.9952 -0.0000 0.0980
vn 0.9569 -0.0000 0.2903
vn 0.8819 -0.0000 0.4714
vn 0.7730 -0.0000 0.6344
vn 0.6344 -0.0000 0.7730
vn 0.4714 -0.0000 0.8819
vn 0.2903 -0.0000 0.9569
vn 0.0980 -0.0000 0.9952
vn -0.0980 -0.0000 0.9952
vn -0.2903 -0.0000 0.9569
vn -0.4714 -0.0000 0.8819
vn -0.6344 -0.0000 0.7730
vn -0.7730 -0.0000 0.6344
vn -0.8819 -0.0000 0.4714
vn -0.9569 -0.0000 0.2903
vn -0.9952 -0.0000 0.0980
vn -0.9952 -0.0000 -0.0980
vn -0.9569 -0.0000 -0.2903
vn -0.8819 -0.0000 -0.4714
vn -0.7730 -0.0000 -0.6344
vn -0.6344 -0.0000 -0.7730
vn -0.4714 -0.0000 -0.8819
vn -0.0000 1.0000 -0.0000
vn -0.2903 -0.0000 -0.9569
vn -0.0980 -0.0000 -0.9952
vn -0.0000 -1.0000 -0.0000
vt 1.000000 1.000000
vt 0.968750 0.500000
vt 1.000000 0.500000
vt 0.968750 1.000000
vt 0.937500 0.500000
vt 0.937500 1.000000
vt 0.906250 0.500000
vt 0.906250 1.000000
vt 0.875000 0.500000
vt 0.875000 1.000000
vt 0.843750 0.500000
vt 0.843750 1.000000
vt 0.812500 0.500000
vt 0.812500 1.000000
vt 0.781250 0.500000
vt 0.781250 1.000000
vt 0.750000 0.500000
vt 0.750000 1.000000
vt 0.718750 0.500000
vt 0.718750 1.000000
vt 0.687500 0.500000
vt 0.687500 1.000000
vt 0.656250 0.500000
vt 0.656250 1.000000
vt 0.625000 0.500000
vt 0.625000 1.000000
vt 0.593750 0.500000
vt 0.593750 1.000000
vt 0.562500 0.500000
vt 0.562500 1.000000
vt 0.531250 0.500000
vt 0.531250 1.000000
vt 0.500000 0.500000
vt 0.500000 1.000000
vt 0.468750 0.500000
vt 0.468750 1.000000
vt 0.437500 0.500000
vt 0.437500 1.000000
vt 0.406250 0.500000
vt 0.406250 1.000000
vt 0.375000 0.500000
vt 0.375000 1.000000
vt 0.343750 0.500000
vt 0.343750 1.000000
vt 0.312500 0.500000
vt 0.312500 1.000000
vt 0.281250 0.500000
vt 0.281250 1.000000
vt 0.250000 0.500000
vt 0.250000 1.000000
vt 0.218750 0.500000
vt 0.218750 1.000000
vt 0.187500 0.500000
vt 0.187500 1.000000
vt 0.156250 0.500000
vt 0.156250 1.000000
vt 0.125000 0.500000
vt 0.125000 1.000000
vt 0.093750 0.500000
vt 0.093750 1.000000
vt 0.062500 0.500000
vt 0.158156 0.028269
vt 0.471731 0.158156
vt 0.341844 0.471731
vt 0.062500 1.000000
vt 0.031250 0.500000
vt 0.031250 1.000000
vt 0.000000 0.500000
vt 0.796822 0.014612
vt 0.514612 0.203178
vt 0.703178 0.485388
vt 0.296822 0.485388
vt 0.250000 0.490000
vt 0.203178 0.485388
vt 0.158156 0.471731
vt 0.116663 0.449553
vt 0.080294 0.419706
vt 0.050447 0.383337
vt 0.028269 0.341844
vt 0.014612 0.296822
vt 0.010000 0.250000
vt 0.014612 0.203178
vt 0.028269 0.158156
vt 0.050447 0.116663
vt 0.080294 0.080294
vt 0.116663 0.050447
vt 0.203178 0.014612
vt 0.341844 0.028269
vt 0.250000 0.010000
vt 0.296822 0.014612
vt 0.383337 0.050447
vt 0.419706 0.080294
vt 0.449553 0.116663
vt 0.485388 0.203178
vt 0.471731 0.341844
vt 0.490000 0.250000
vt 0.485388 0.296822
vt 0.449553 0.383337
vt 0.419706 0.419706
vt 0.383337 0.449553
vt 0.000000 1.000000
vt 0.750000 0.490000
vt 0.796822 0.485388
vt 0.841844 0.471731
vt 0.883337 0.449553
vt 0.919706 0.419706
vt 0.949553 0.383337
vt 0.971731 0.341844
vt 0.985388 0.296822
vt 0.990000 0.250000
vt 0.985388 0.203178
vt 0.971731 0.158156
vt 0.949553 0.116663
vt 0.919706 0.080294
vt 0.883337 0.050447
vt 0.841844 0.028269
vt 0.750000 0.010000
vt 0.703178 0.014612
vt 0.658156 0.028269
vt 0.616663 0.050447
vt 0.580294 0.080294
vt 0.550447 0.116663
vt 0.528269 0.158156
vt 0.510000 0.250000
vt 0.514612 0.296822
vt 0.528269 0.341844
vt 0.550447 0.383337
vt 0.580294 0.419706
vt 0.616663 0.449553
vt 0.658156 0.471731
s 0
f 50/87/25 51/88/25 49/89/25
f 52/90/26 53/91/26 51/88/26
f 54/92/27 55/93/27 53/91/27
f 56/94/28 57/95/28 55/93/28
f 58/96/29 59/97/29 57/95/29
f 60/98/30 61/99/30 59/97/30
f 62/100/31 63/101/31 61/99/31
f 64/102/32 65/103/32 63/101/32
f 66/104/33 67/105/33 65/103/33
f 68/106/34 69/107/34 67/105/34
f 70/108/35 71/109/35 69/107/35
f 72/110/36 73/111/36 71/109/36
f 74/112/37 75/113/37 73/111/37
f 76/114/38 77/115/38 75/113/38
f 78/116/39 79/117/39 77/115/39
f 80/118/40 81/119/40 79/117/40
f 82/120/41 83/121/41 81/119/41
f 84/122/42 85/123/42 83/121/42
f 86/124/43 87/125/43 85/123/43
f 88/126/44 89/127/44 87/125/44
f 90/128/45 91/129/45 89/127/45
f 92/130/46 93/131/46 91/129/46
f 94/132/47 95/133/47 93/131/47
f 96/134/48 97/135/48 95/133/48
f 98/136/49 99/137/49 97/135/49
f 100/138/50 101/139/50 99/137/50
f 102/140/51 103/141/51 101/139/51
f 104/142/52 105/143/52 103/141/52
f 106/144/53 107/145/53 105/143/53
f 108/146/54 109/147/54 107/145/54
f 86/148/55 70/149/55 54/150/55
f 110/151/56 111/152/56 109/147/56
f 112/153/57 49/154/57 111/152/57
f 79/155/58 95/156/58 111/157/58
f 50/87/25 52/90/25 51/88/25
f 52/90/26 54/92/26 53/91/26
f 54/92/27 56/94/27 55/93/27
f 56/94/28 58/96/28 57/95/28
f 58/96/29 60/98/29 59/97/29
f 60/98/30 62/100/30 61/99/30
f 62/100/31 64/102/31 63/101/31
f 64/102/32 66/104/32 65/103/32
f 66/104/33 68/106/33 67/105/33
f 68/106/34 70/108/34 69/107/34
f 70/108/35 72/110/35 71/109/35
f 72/110/36 74/112/36 73/111/36
f 74/112/37 76/114/37 75/113/37
f 76/114/38 78/116/38 77/115/38
f 78/116/39 80/118/39 79/117/39
f 80/118/40 82/120/40 81/119/40
f 82/120/41 84/122/41 83/121/41
f 84/122/42 86/124/42 85/123/42
f 86/124/43 88/126/43 87/125/43
f 88/126/44 90/128/44 89/127/44
f 90/128/45 92/130/45 91/129/45
f 92/130/46 94/132/46 93/131/46
f 94/132/47 96/134/47 95/133/47
f 96/134/48 98/136/48 97/135/48
f 98/136/49 100/138/49 99/137/49
f 100/138/50 102/140/50 101/139/50
f 102/140/51 104/142/51 103/141/51
f 104/142/52 106/144/52 105/143/52
f 106/144/53 108/146/53 107/145/53
f 108/146/54 110/151/54 109/147/54
f 54/150/55 52/158/55 50/159/55
f 50/159/55 112/160/55 54/150/55
f 112/160/55 110/161/55 54/150/55
f 110/161/55 108/162/55 106/163/55
f 106/163/55 104/164/55 102/165/55
f 102/165/55 100/166/55 98/167/55
f 98/167/55 96/168/55 102/165/55
f 96/168/55 94/169/55 102/165/55
f 94/169/55 92/170/55 90/171/55
f 90/171/55 88/172/55 86/148/55
f 86/148/55 84/173/55 78/174/55
f 84/173/55 82/175/55 78/174/55
f 82/175/55 80/176/55 78/174/55
f 78/174/55 76/177/55 74/178/55
f 74/178/55 72/179/55 70/149/55
f 70/149/55 68/180/55 62/181/55
f 68/180/55 66/182/55 62/181/55
f 66/182/55 64/183/55 62/181/55
f 62/181/55 60/184/55 58/185/55
f 58/185/55 56/186/55 54/150/55
f 110/161/55 106/163/55 54/150/55
f 106/163/55 102/165/55 54/150/55
f 94/169/55 90/171/55 102/165/55
f 90/171/55 86/148/55 102/165/55
f 78/174/55 74/178/55 86/148/55
f 74/178/55 70/149/55 86/148/55
f 62/181/55 58/185/55 70/149/55
f 58/185/55 54/150/55 70/149/55
f 54/150/55 102/165/55 86/148/55
f 110/151/56 112/153/56 111/152/56
f 112/153/57 50/187/57 49/154/57
f 111/157/58 49/188/58 51/189/58
f 51/189/58 53/190/58 55/191/58
f 55/191/58 57/192/58 59/193/58
f 59/193/58 61/194/58 63/195/58
f 63/195/58 65/196/58 67/197/58
f 67/197/58 69/198/58 71/199/58
f 71/199/58 73/200/58 75/201/58
f 75/201/58 77/202/58 79/155/58
f 79/155/58 81/203/58 83/204/58
f 83/204/58 85/205/58 87/206/58
f 87/206/58 89/207/58 91/208/58
f 91/208/58 93/209/58 95/156/58
f 95/156/58 97/210/58 99/211/58
f 99/211/58 101/212/58 103/213/58
f 103/213/58 105/214/58 107/215/58
f 107/215/58 109/216/58 111/157/58
f 111/157/58 51/189/58 63/195/58
f 51/189/58 55/191/58 63/195/58
f 55/191/58 59/193/58 63/195/58
f 63/195/58 67/197/58 79/155/58
f 67/197/58 71/199/58 79/155/58
f 71/199/58 75/201/58 79/155/58
f 79/155/58 83/204/58 95/156/58
f 83/204/58 87/206/58 95/156/58
f 87/206/58 91/208/58 95/156/58
f 95/156/58 99/211/58 111/157/58
f 99/211/58 103/213/58 111/157/58
f 103/213/58 107/215/58 111/157/58
f 111/157/58 63/195/58 79/155/58
o Cylinder.002
v 0.500000 -0.450000 -0.750000
v 0.500000 -0.050000 -0.750000
v 0.548773 -0.450000 -0.745196
v 0.548773 -0.050000 -0.745196
v 0.595671 -0.450000 -0.730970
v 0.595671 -0.050000 -0.730970
v 0.638893 -0.450000 -0.707867
v 0.638893 -0.050000 -0.707867
v 0.676777 -0.450000 -0.676777
v 0.676777 -0.050000 -0.676777
v 0.707867 -0.450000 -0.638893
v 0.707867 -0.050000 -0.638893
v 0.730970 -0.450000 -0.595671
v 0.730970 -0.050000 -0.595671
v 0.745196 -0.450000 -0.548773
v 0.745196 -0.050000 -0.548773
v 0.750000 -0.450000 -0.500000
v 0.750000 -0.050000 -0.500000
v 0.745196 -0.450000 -0.451227
v 0.745196 -0.050000 -0.451227
v 0.730970 -0.450000 -0.404329
v 0.730970 -0.050000 -0.404329
v 0.707867 -0.450000 -0.361107
v 0.707867 -0.050000 -0.361107
v 0.676777 -0.450000 -0.323223
v 0.676777 -0.050000 -0.323223
v 0.638893 -0.450000 -0.292133
v 0.638893 -0.050000 -0.292133
v 0.595671 -0.450000 -0.269030
v 0.595671 -0.050000 -0.269030
v 0.548773 -0.450000 -0.254804
v 0.548773 -0.050000 -0.254804
v 0.500000 -0.450000 -0.250000
v 0.500000 -0.050000 -0.250000
v 0.451227 -0.450000 -0.254804
v 0.451227 -0.050000 -0.254804
v 0.404329 -0.450000 -0.269030
v 0.404329 -0.050000 -0.269030
v 0.361107 -0.450000 -0.292133
v 0.361107 -0.050000 -0.292133
v 0.323223 -0.450000 -0.323223
v 0.323223 -0.050000 -0.323223
v 0.292133 -0.450000 -0.361107
v 0.292133 -0.050000 -0.361107
v 0.269030 -0.450000 -0.404329
v 0.269030 -0.050000 -0.404329
v 0.254804 -0.450000 -0.451227
v 0.254804 -0.050000 -0.451227
v 0.250000 -0.450000 -0.500000
v 0.250000 -0.050000 -0.500000
v 0.254804 -0.450000 -0.548773
v 0.254804 -0.050000 -0.548773
v 0.269030 -0.450000 -0.595671
v 0.269030 -0.050000 -0.595671
v 0.292133 -0.450000 -0.638893
v 0.292133 -0.050000 -0.638893
v 0.323223 -0.450000 -0.676777
v 0.323223 -0.050000 -0.676777
v 0.361107 -0.450000 -0.707867
v 0.361107 -0.050000 -0.707867
v 0.404329 -0.450000 -0.730970
v 0.404329 -0.050000 -0.730970
v 0.451227 -0.450000 -0.745196
v 0.451227 -0.050000 -0.745196
vn 0.0980 -0.0000 -0.9952
vn 0.2903 -0.0000 -0.9569
vn 0.4714 -0.0000 -0.8819
vn 0.6344 -0.0000 -0.7730
vn 0.7730 -0.0000 -0.6344
vn 0.8819 -0.0000 -0.4714
vn 0.9569 -0.0000 -0.2903
vn 0.9952 -0.0000 -0.0980
vn 0.9952 -0.0000 0.0980
vn 0.9569 -0.0000 0.2903
vn 0.8819 -0.0000 0.4714
vn 0.7730 -0.0000 0.6344
vn 0.6344 -0.0000 0.7730
vn 0.4714 -0.0000 0.8819
vn 0.2903 -0.0000 0.9569
vn 0.0980 -0.0000 0.9952
vn -0.0980 -0.0000 0.9952
vn -0.2903 -0.0000 0.9569
vn -0.4714 -0.0000 0.8819
vn -0.6344 -0.0000 0.7730
vn -0.7730 -0.0000 0.6344
vn -0.8819 -0.0000 0.4714
vn -0.9569 -0.0000 0.2903
vn -0.9952 -0.0000 0.0980
vn -0.9952 -0.0000 -0.0980
vn -0.9569 -0.0000 -0.2903
vn -0.8819 -0.0000 -0.4714
vn -0.7730 -0.0000 -0.6344
vn -0.6344 -0.0000 -0.7730
vn -0.4714 -0.0000 -0.8819
vn -0.0000 1.0000 -0.0000
vn -0.2903 -0.0000 -0.9569
vn -0.0980 -0.0000 -0.9952
vn -0.0000 -1.0000 -0.0000
vt 1.000000 1.000000
vt 0.968750 0.500000
vt 1.000000 0.500000
vt 0.968750 1.000000
vt 0.937500 0.500000
vt 0.937500 1.000000
vt 0.906250 0.500000
vt 0.906250 1.000000
vt 0.875000 0.500000
vt 0.875000 1.000000
vt 0.843750 0.500000
vt 0.843750 1.000000
vt 0.812500 0.500000
vt 0.812500 1.000000
vt 0.781250 0.500000
vt 0.781250 1.000000
vt 0.750000 0.500000
vt 0.750000 1.000000
vt 0.718750 0.500000
vt 0.718750 1.000000
vt 0.687500 0.500000
vt 0.687500 1.000000
vt 0.656250 0.500000
vt 0.656250 1.000000
vt 0.625000 0.500000
vt 0.625000 1.000000
vt 0.593750 0.500000
vt 0.593750 1.000000
vt 0.562500 0.500000
vt 0.562500 1.000000
vt 0.531250 0.500000
vt 0.531250 1.000000
vt 0.500000 0.500000
vt 0.500000 1.000000
vt 0.468750 0.500000
vt 0.468750 1.000000
vt 0.437500 0.500000
vt 0.437500 1.000000
vt 0.406250 0.500000
vt 0.406250 1.000000
vt 0.375000 0.500000
vt 0.375000 1.000000
vt 0.343750 0.500000
vt 0.343750 1.000000
vt 0.312500 0.500000
vt 0.312500 1.000000
vt 0.281250 0.500000
vt 0.281250 1.000000
vt 0.250000 0.500000
vt 0.250000 1.000000
vt 0.218750 0.500000
vt 0.218750 1.000000
vt 0.187500 0.500000
vt 0.187500 1.000000
vt 0.156250 0.500000
vt 0.156250 1.000000
vt 0.125000 0.500000
vt 0.125000 1.000000
vt 0.093750 0.500000
vt 0.093750 1.000000
vt 0.062500 0.500000
vt 0.158156 0.028269
vt 0.471731 0.158156
vt 0.341844 0.471731
vt 0.062500 1.000000
vt 0.031250 0.500000
vt 0.031250 1.000000
vt 0.000000 0.500000
vt 0.796822 0.014612
vt 0.514612 0.203178
vt 0.703178 0.485388
vt 0.296822 0.485388
vt 0.250000 0.490000
vt 0.203178 0.485388
vt 0.158156 0.471731
vt 0.116663 0.449553
vt 0.080294 0.419706
vt 0.050447 0.383337
vt 0.028269 0.341844
vt 0.014612 0.296822
vt 0.010000 0.250000
vt 0.014612 0.203178
vt 0.028269 0.158156
vt 0.050447 0.116663
vt 0.080294 0.080294
vt 0.116663 0.050447
vt 0.203178 0.014612
vt 0.341844 0.028269
vt 0.250000 0.010000
vt 0.296822 0.014612
vt 0.383337 0.050447
vt 0.419706 0.080294
vt 0.449553 0.116663
vt 0.485388 0.203178
vt 0.471731 0.341844
vt 0.490000 0.250000
vt 0.485388 0.296822
vt 0.449553 0.383337
vt 0.419706 0.419706
vt 0.383337 0.449553
vt 0.000000 1.000000
vt 0.750000 0.490000
vt 0.796822 0.485388
vt 0.841844 0.471731
vt 0.883337 0.449553
vt 0.919706 0.419706
vt 0.949553 0.383337
vt 0.971731 0.341844
vt 0.985388 0.296822
vt 0.990000 0.250000
vt 0.985388 0.203178
vt 0.971731 0.158156
vt 0.949553 0.116663
vt 0.919706 0.080294
vt 0.883337 0.050447
vt 0.841844 0.028269
vt 0.750000 0.010000
vt 0.703178 0.014612
vt 0.658156 0.028269
vt 0.616663 0.050447
vt 0.580294 0.080294
vt 0.550447 0.116663
vt 0.528269 0.158156
vt 0.510000 0.250000
vt 0.514612 0.296822
vt 0.528269 0.341844
vt 0.550447 0.383337
vt 0.580294 0.419706
vt 0.616663 0.449553
vt 0.658156 0.471731
s 0
f 114/217/59 115/218/59 113/219/59
f 116/220/60 117/221/60 115/218/60
f 118/222/61 119/223/61 117/221/61
f 120/224/62 121/225/62 119/223/62
f 122/226/63 123/227/63 121/225/63
f 124/228/64 125/229/64 123/227/64
f 126/230/65 127/231/65 125/229/65
f 128/232/66 129/233/66 127/231/66
f 130/234/67 131/235/67 129/233/67
f 132/236/68 133/237/68 131/235/68
f 134/238/69 135/239/69 133/237/69
f 136/240/70 137/241/70 135/239/70
f 138/242/71 139/243/71 137/241/71
f 140/244/72 141/245/72 139/243/72
f 142/246/73 143/247/73 141/245/73
f 144/248/74 145/249/74 143/247/74
f 146/250/75 147/251/75 145/249/75
f 148/252/76 149/253/76 147/251/76
f 150/254/77 151/255/77 149/253/77
f 152/256/78 153/257/78 151/255/78
f 154/258/79 155/259/79 153/257/79
f 156/260/80 157/261/80 155/259/80
f 158/262/81 159/263/81 157/261/81
f 160/264/82 161/265/82 159/263/82
f 162/266/83 163/267/83 161/265/83
f 164/268/84 165/269/84 163/267/84
f 166/270/85 167/271/85 165/269/85
f 168/272/86 169/273/86 167/271/86
f 170/274/87 171/275/87 169/273/87
f 172/276/88 173/277/88 171/275/88
f 150/278/89 134/279/89 118/280/89
f 174/281/90 175/282/90 173/277/90
f 176/283/91 113/284/91 175/282/91
f 143/285/92 159/286/92 175/287/92
f 114/217/59 116/220/59 115/218/59
f 116/220/60 118/222/60 117/221/60
f 118/222/61 120/224/61 119/223/61
f 120/224/62 122/226/62 121/225/62
f 122/226/63 124/228/63 123/227/63
f 124/228/64 126/230/64 125/229/64
f 126/230/65 128/232/65 127/231/65
f 128/232/66 130/234/66 129/233/66
f 130/234/67 132/236/67 131/235/67
f 132/236/68 134/238/68 133/237/68
f 134/238/69 136/240/69 135/239/69
f 136/240/70 138/242/70 137/241/70
f 138/242/71 140/244/71 139/243/71
f 140/244/72 142/246/72 141/245/72
f 142/246/73 144/248/73 143/247/73
f 144/248/74 146/250/74 145/249/74
f 146/250/75 148/252/75 147/251/75
f 148/252/76 150/254/76 149/253/76
f 150/254/77 152/256/77 151/255/77
f 152/256/78 154/258/78 153/257/78
f 154/258/79 156/260/79 155/259/79
f 156/260/80 158/262/80 157/261/80
f 158/262/81 160/264/81 159/263/81
f 160/264/82 162/266/82 161/265/82
f 162/266/83 164/268/83 163/267/83
f 164/268/84 166/270/84 165/269/84
f 166/270/85 168/272/85 167/271/85
f 168/272/86 170/274/86 169/273/86
f 170/274/87 172/276/87 171/275/87
f 172/276/88 174/281/88 173/277/88
f 118/280/89 116/288/89 114/289/89
f 114/289/89 176/290/89 118/280/89
f 176/290/89 174/291/89 118/280/89
f 174/291/89 172/292/89 170/293/89
f 170/293/89 168/294/89 166/295/89
f 166/295/89 164/296/89 162/297/89
f 162/297/89 160/298/89 166/295/89
f 160/298/89 158/299/89 166/295/89
f 158/299/89 156/300/89 154/301/89
f 154/301/89 152/302/89 150/278/89
f 150/278/89 148/303/89 142/304/89
f 148/303/89 146/305/89 142/304/89
f 146/305/89 144/306/89 142/304/89
f 142/304/89 140/307/89 138/308/89
f 138/308/89 136/309/89 134/279/89
f 134/279/89 132/310/89 126/311/89
f 132/310/89 130/312/89 126/311/89
f 130/312/89 128/313/89 126/311/89
f 126/311/89 124/314/89 122/315/89
f 122/315/89 120/316/89 118/280/89
f 174/291/89 170/293/89 118/280/89
f 170/293/89 166/295/89 118/280/89
f 158/299/89 154/301/89 166/295/89
f 154/301/89 150/278/89 166/295/89
f 142/304/89 138/308/89 150/278/89
f 138/308/89 134/279/89 150/278/89
f 126/311/89 122/315/89 134/279/89
f 122/315/89 118/280/89 134/279/89
f 118/280/89 166/295/89 150/278/89
f 174/281/90 176/283/90 175/282/90
f 176/283/91 114/317/91 113/284/91
f 175/287/92 113/318/92 115/319/92
f 115/319/92 117/320/92 119/321/92
f 119/321/92 121/322/92 123/323/92
f 123/323/92 125/324/92 127/325/92
f 127/325/92 129/326/92 131/327/92
f 131/327/92 133/328/92 135/329/92
f 135/329/92 137/330/92 139/331/92
f 139/331/92 141/332/92 143/285/92
f 143/285/92 145/333/92 147/334/92
f 147/334/92 149/335/92 151/336/92
f 151/336/92 153/337/92 155/338/92
f 155/338/92 157/339/92 159/286/92
f 159/286/92 161/340/92 163/341/92
f 163/341/92 165/342/92 167/343/92
f 167/343/92 169/344/92 171/345/92
f 171/345/92 173/346/92 175/287/92
f 175/287/92 115/319/92 127/325/92
f 115/319/92 119/321/92 127/325/92
f 119/321/92 123/323/92 127/325/92
f 127/325/92 131/327/92 143/285/92
f 131/327/92 135/329/92 143/285/92
f 135/329/92 139/331/92 143/285/92
f 143/285/92 147/334/92 159/286/92
f 147/334/92 151/336/92 159/286/92
f 151/336/92 155/338/92 159/286/92
f 159/286/92 163/341/92 175/287/92
f 163/341/92 167/343/92 175/287/92
f 167/343/92 171/345/92 175/287/92
f 175/287/92 127/325/92 143/285/92
o Cylinder.003
v 5.500000 6.050000 -0.750000
v 5.500000 6.450000 -0.750000
v 5.548773 6.050000 -0.745196
v 5.548773 6.450000 -0.745196
v 5.595671 6.050000 -0.730970
v 5.595671 6.450000 -0.730970
v 5.638893 6.050000 -0.707867
v 5.638893 6.450000 -0.707867
v 5.676777 6.050000 -0.676777
v 5.676777 6.450000 -0.676777
v 5.707868 6.050000 -0.638893
v 5.707868 6.450000 -0.638893
v 5.730970 6.050000 -0.595671
v 5.730970 6.450000 -0.595671
v 5.745196 6.050000 -0.548773
v 5.745196 6.450000 -0.548773
v 5.750000 6.050000 -0.500000
v 5.750000 6.450000 -0.500000
v 5.745196 6.050000 -0.451227
v 5.745196 6.450000 -0.451227
v 5.730970 6.050000 -0.404329
v 5.730970 6.450000 -0.404329
v 5.707868 6.050000 -0.361107
v 5.707868 6.450000 -0.361107
v 5.676777 6.050000 -0.323223
v 5.676777 6.450000 -0.323223
v 5.638893 6.050000 -0.292133
v 5.638893 6.450000 -0.292133
v 5.595671 6.050000 -0.269030
v 5.595671 6.450000 -0.269030
v 5.548773 6.050000 -0.254804
v 5.548773 6.450000 -0.254804
v 5.500000 6.050000 -0.250000
v 5.500000 6.450000 -0.250000
v 5.451227 6.050000 -0.254804
v 5.451227 6.450000 -0.254804
v 5.404329 6.050000 -0.269030
v 5.404329 6.450000 -0.269030
v 5.361107 6.050000 -0.292133
v 5.361107 6.450000 -0.292133
v 5.323223 6.050000 -0.323223
v 5.323223 6.450000 -0.323223
v 5.292132 6.050000 -0.361107
v 5.292132 6.450000 -0.361107
v 5.269030 6.050000 -0.404329
v 5.269030 6.450000 -0.404329
v 5.254804 6.050000 -0.451227
v 5.254804 6.450000 -0.451227
v 5.250000 6.050000 -0.500000
v 5.250000 6.450000 -0.500000
v 5.254804 6.050000 -0.548773
v 5.254804 6.450000 -0.548773
v 5.269030 6.050000 -0.595671
v 5.269030 6.450000 -0.595671
v 5.292132 6.050000 -0.638893
v 5.292132 6.450000 -0.638893
v 5.323223 6.050000 -0.676777
v 5.323223 6.450000 -0.676777
v 5.361107 6.050000 -0.707867
v 5.361107 6.450000 -0.707867
v 5.404329 6.050000 -0.730970
v 5.404329 6.450000 -0.730970
v 5.451227 6.050000 -0.745196
v 5.451227 6.450000 -0.745196
vn 0.0980 -0.0000 -0.9952
vn 0.2903 -0.0000 -0.9569
vn 0.4714 -0.0000 -0.8819
vn 0.6344 -0.0000 -0.7730
vn 0.7730 -0.0000 -0.6344
vn 0.8819 -0.0000 -0.4714
vn 0.9569 -0.0000 -0.2903
vn 0.9952 -0.0000 -0.0980
vn 0.9952 -0.0000 0.0980
vn 0.9569 -0.0000 0.2903
vn 0.8819 -0.0000 0.4714
vn 0.7730 -0.0000 0.6344
vn 0.6344 -0.0000 0.7730
vn 0.4714 -0.0000 0.8819
vn 0.2903 -0.0000 0.9569
vn 0.0980 -0.0000 0.9952
vn -0.0980 -0.0000 0.9952
vn -0.2903 -0.0000 0.9569
vn -0.4714 -0.0000 0.8819
vn -0.6344 -0.0000 0.7730
vn -0.7730 -0.0000 0.6344
vn -0.8819 -0.0000 0.4714
vn -0.9569 -0.0000 0.2903
vn -0.9952 -0.0000 0.0980
vn -0.9952 -0.0000 -0.0980
vn -0.9569 -0.0000 -0.2903
vn -0.8819 -0.0000 -0.4714
vn -0.7730 -0.0000 -0.6344
vn -0.6344 -0.0000 -0.7730
vn -0.4714 -0.0000 -0.8819
vn -0.0000 1.0000 -0.0000
vn -0.2903 -0.0000 -0.9569
vn -0.0980 -0.0000 -0.9952
vn -0.0000 -1.0000 -0.0000
vt 1.000000 1.000000
vt 0.968750 0.500000
vt 1.000000 0.500000
vt 0.968750 1.000000
vt 0.937500 0.500000
vt 0.937500 1.000000
vt 0.906250 0.500000
vt 0.906250 1.000000
vt 0.875000 0.500000
vt 0.875000 1.000000
vt 0.843750 0.500000
vt 0.843750 1.000000
vt 0.812500 0.500000
vt 0.812500 1.000000
vt 0.781250 0.500000
vt 0.781250 1.000000
vt 0.750000 0.500000
vt 0.750000 1.000000
vt 0.718750 0.500000
vt 0.718750 1.000000
vt 0.687500 0.500000
vt 0.687500 1.000000
vt 0.656250 0.500000
vt 0.656250 1.000000
vt 0.625000 0.500000
vt 0.625000 1.000000
vt 0.593750 0.500000
vt 0.593750 1.000000
vt 0.562500 0.500000
vt 0.562500 1.000000
vt 0.531250 0.500000
vt 0.531250 1.000000
vt 0.500000 0.500000
vt 0.500000 1.000000
vt 0.468750 0.500000
vt 0.468750 1.000000
vt 0.437500 0.500000
vt 0.437500 1.000000
vt 0.406250 0.500000
vt 0.406250 1.000000
vt 0.375000 0.500000
vt 0.375000 1.000000
vt 0.343750 0.500000
vt 0.343750 1.000000
vt 0.312500 0.500000
vt 0.312500 1.000000
vt 0.281250 0.500000
vt 0.281250 1.000000
vt 0.250000 0.500000
vt 0.250000 1.000000
vt 0.218750 0.500000
vt 0.218750 1.000000
vt 0.187500 0.500000
vt 0.187500 1.000000
vt 0.156250 0.500000
vt 0.156250 1.000000
vt 0.125000 0.500000
vt 0.125000 1.000000
vt 0.093750 0.500000
vt 0.093750 1.000000
vt 0.062500 0.500000
vt 0.158156 0.028269
vt 0.471731 0.158156
vt 0.341844 0.471731
vt 0.062500 1.000000
vt 0.031250 0.500000
vt 0.031250 1.000000
vt 0.000000 0.500000
vt 0.796822 0.014612
vt 0.514612 0.203178
vt 0.703178 0.485388
vt 0.296822 0.485388
vt 0.250000 0.490000
vt 0.203178 0.485388
vt 0.158156 0.471731
vt 0.116663 0.449553
vt 0.080294 0.419706
vt 0.050447 0.383337
vt 0.028269 0.341844
vt 0.014612 0.296822
vt 0.010000 0.250000
vt 0.014612 0.203178
vt 0.028269 0.158156
vt 0.050447 0.116663
vt 0.080294 0.080294
vt 0.116663 0.050447
vt 0.203178 0.014612
vt 0.341844 0.028269
vt 0.250000 0.010000
vt 0.296822 0.014612
vt 0.383337 0.050447
vt 0.419706 0.080294
vt 0.449553 0.116663
vt 0.485388 0.203178
vt 0.471731 0.341844
vt 0.490000 0.250000
vt 0.485388 0.296822
vt 0.449553 0.383337
vt 0.419706 0.419706
vt 0.383337 0.449553
vt 0.000000 1.000000
vt 0.750000 0.490000
vt 0.796822 0.485388
vt 0.841844 0.471731
vt 0.883337 0.449553
vt 0.919706 0.419706
vt 0.949553 0.383337
vt 0.971731 0.341844
vt 0.985388 0.296822
vt 0.990000 0.250000
vt 0.985388 0.203178
vt 0.971731 0.158156
vt 0.949553 0.116663
vt 0.919706 0.080294
vt 0.883337 0.050447
vt 0.841844 0.028269
vt 0.750000 0.010000
vt 0.703178 0.014612
vt 0.658156 0.028269
vt 0.616663 0.050447
vt 0.580294 0.080294
vt 0.550447 0.116663
vt 0.528269 0.158156
vt 0.510000 0.250000
vt 0.514612 0.296822
vt 0.528269 0.341844
vt 0.550447 0.383337
vt 0.580294 0.419706
vt 0.616663 0.449553
vt 0.658156 0.471731
s 0
f 178/347/93 179/348/93 177/349/93
f 180/350/94 181/351/94 179/348/94
f 182/352/95 183/353/95 181/351/95
f 184/354/96 185/355/96 183/353/96
f 186/356/97 187/357/97 185/355/97
f 188/358/98 189/359/98 187/357/98
f 190/360/99 191/361/99 189/359/99
f 192/362/100 193/363/100 191/361/100
f 194/364/101 195/365/101 193/363/101
f 196/366/102 197/367/102 195/365/102
f 198/368/103 199/369/103 197/367/103
f 200/370/104 201/371/104 199/369/104
f 202/372/105 203/373/105 201/371/105
f 204/374/106 205/375/106 203/373/106
f 206/376/107 207/377/107 205/375/107
f 208/378/108 209/379/108 207/377/108
f 210/380/109 211/381/109 209/379/109
f 212/382/110 213/383/110 211/381/110
f 214/384/111 215/385/111 213/383/111
f 216/386/112 217/387/112 215/385/112
f 218/388/113 219/389/113 217/387/113
f 220/390/114 221/391/114 219/389/114
f 222/392/115 223/393/115 221/391/115
f 224/394/116 225/395/116 223/393/116
f 226/396/117 227/397/117 225/395/117
f 228/398/118 229/399/118 227/397/118
f 230/400/119 231/401/119 229/399/119
f 232/402/120 233/403/120 231/401/120
f 234/404/121 235/405/121 233/403/121
f 236/406/122 237/407/122 235/405/122
f 214/408/123 198/409/123 182/410/123
f 238/411/124 239/412/124 237/407/124
f 240/413/125 177/414/125 239/412/125
f 207/415/126 223/416/126 239/417/126
f 178/347/93 180/350/93 179/348/93
f 180/350/94 182/352/94 181/351/94
f 182/352/95 184/354/95 183/353/95
f 184/354/96 186/356/96 185/355/96
f 186/356/97 188/358/97 187/357/97
f 188/358/98 190/360/98 189/359/98
f 190/360/99 192/362/99 191/361/99
f 192/362/100 194/364/100 193/363/100
f 194/364/101 196/366/101 195/365/101
f 196/366/102 198/368/102 197/367/102
f 198/368/103 200/370/103 199/369/103
f 200/370/104 202/372/104 201/371/104
f 202/372/105 204/374/105 203/373/105
f 204/374/106 206/376/106 205/375/106
f 206/376/107 208/378/107 207/377/107
f 208/378/108 210/380/108 209/379/108
f 210/380/109 212/382/109 211/381/109
f 212/382/110 214/384/110 213/383/110
f 214/384/111 216/386/111 215/385/111
f 216/386/112 218/388/112 217/387/112
f 218/388/113 220/390/113 219/389/113
f 220/390/114 222/392/114 221/391/114
f 222/392/115 224/394/115 223/393/115
f 224/394/116 226/396/116 225/395/116
f 226/396/117 228/398/117 227/397/117
f 228/398/118 230/400/118 229/399/118
f 230/400/119 232/402/119 231/401/119
f 232/402/120 234/404/120 233/403/120
f 234/404/121 236/406/121 235/405/121
f 236/406/122 238/411/122 237/407/122
f 182/410/123 180/418/123 178/419/123
f 178/419/123 240/420/123 182/410/123
f 240/420/123 238/421/123 182/410/123
f 238/421/123 236/422/123 234/423/123
f 234/423/123 232/424/123 230/425/123
f 230/425/123 228/426/123 226/427/123
f 226/427/123 224/428/123 230/425/123
f 224/428/123 222/429/123 230/425/123
f 222/429/123 220/430/123 218/431/123
f 218/431/123 216/432/123 214/408/123
f 214/408/123 212/433/123 206/434/123
f 212/433/123 210/435/123 206/434/123
f 210/435/123 208/436/123 206/434/123
f 206/434/123 204/437/123 202/438/123
f 202/438/123 200/439/123 198/409/123
f 198/409/123 196/440/123 190/441/123
f 196/440/123 194/442/123 190/441/123
f 194/442/123 192/443/123 190/441/123
f 190/441/123 188/444/123 186/445/123
f 186/445/123 184/446/123 182/410/123
f 238/421/123 234/423/123 182/410/123
f 234/423/123 230/425/123 182/410/123
f 222/429/123 218/431/123 230/425/123
f 218/431/123 214/408/123 230/425/123
f 206/434/123 202/438/123 214/408/123
f 202/438/123 198/409/123 214/408/123
f 190/441/123 186/445/123 198/409/123
f 186/445/123 182/410/123 198/409/123
f 182/410/123 230/425/123 214/408/123
f 238/411/124 240/413/124 239/412/124
f 240/413/125 178/447/125 177/414/125
f 239/417/126 177/448/126 179/449/126
f 179/449/126 181/450/126 183/451/126
f 183/451/126 185/452/126 187/453/126
f 187/453/126 189/454/126 191/455/126
f 191/455/126 193/456/126 195/457/126
f 195/457/126 197/458/126 199/459/126
f 199/459/126 201/460/126 203/461/126
f 203/461/126 205/462/126 207/415/126
f 207/415/126 209/463/126 211/464/126
f 211/464/126 213/465/126 215/466/126
f 215/466/126 217/467/126 219/468/126
f 219/468/126 221/469/126 223/416/126
f 223/416/126 225/470/126 227/471/126
f 227/471/126 229/472/126 231/473/126
f 231/473/126 233/474/126 235/475/126
f 235/475/126 237/476/126 239/417/126
f 239/417/126 179/449/126 191/455/126
f 179/449/126 183/451/126 191/455/126
f 183/451/126 187/453/126 191/455/126
f 191/455/126 195/457/126 207/415/126
f 195/457/126 199/459/126 207/415/126
f 199/459/126 203/461/126 207/415/126
f 207/415/126 211/464/126 223/416/126
f 211/464/126 215/466/126 223/416/126
f 215/466/126 219/468/126 223/416/126
f 223/416/126 227/471/126 239/417/126
f 227/471/126 231/473/126 239/417/126
f 231/473/126 235/475/126 239/417/126
f 239/417/126 191/455/126 207/415/126
o Cylinder.004
v 0.500000 6.050000 -0.750000
v 0.500000 6.450000 -0.750000
v 0.548773 6.050000 -0.745196
v 0.548773 6.450000 -0.745196
v 0.595671 6.050000 -0.730970
v 0.595671 6.450000 -0.730970
v 0.638893 6.050000 -0.707867
v 0.638893 6.450000 -0.707867
v 0.676777 6.050000 -0.676777
v 0.676777 6.450000 -0.676777
v 0.707867 6.050000 -0.638893
v 0.707867 6.450000 -0.638893
v 0.730970 6.050000 -0.595671
v 0.730970 6.450000 -0.595671
v 0.745196 6.050000 -0.548773
v 0.745196 6.450000 -0.548773
v 0.750000 6.050000 -0.500000
v 0.750000 6.450000 -0.500000
v 0.745196 6.050000 -0.451227
v 0.745196 6.450000 -0.451227
v 0.730970 6.050000 -0.404329
v 0.730970 6.450000 -0.404329
v 0.707867 6.050000 -0.361107
v 0.707867 6.450000 -0.361107
v 0.676777 6.050000 -0.323223
v 0.676777 6.450000 -0.323223
v 0.638893 6.050000 -0.292133
v 0.638893 6.450000 -0.292133
v 0.595671 6.050000 -0.269030
v 0.595671 6.450000 -0.269030
v 0.548773 6.050000 -0.254804
v 0.548773 6.450000 -0.254804
v 0.500000 6.050000 -0.250000
v 0.500000 6.450000 -0.250000
v 0.451227 6.050000 -0.254804
v 0.451227 6.450000 -0.254804
v 0.404329 6.050000 -0.269030
v 0.404329 6.450000 -0.269030
v 0.361107 6.050000 -0.292133
v 0.361107 6.450000 -0.292133
v 0.323223 6.050000 -0.323223
v 0.323223 6.450000 -0.323223
v 0.292133 6.050000 -0.361107
v 0.292133 6.450000 -0.361107
v 0.269030 6.050000 -0.404329
v 0.269030 6.450000 -0.404329
v 0.254804 6.050000 -0.451227
v 0.254804 6.450000 -0.451227
v 0.250000 6.050000 -0.500000
v 0.250000 6.450000 -0.500000
v 0.254804 6.050000 -0.548773
v 0.254804 6.450000 -0.548773
v 0.269030 6.050000 -0.595671
v 0.269030 6.450000 -0.595671
v 0.292133 6.050000 -0.638893
v 0.292133 6.450000 -0.638893
v 0.323223 6.050000 -0.676777
v 0.323223 6.450000 -0.676777
v 0.361107 6.050000 -0.707867
v 0.361107 6.450000 -0.707867
v 0.404329 6.050000 -0.730970
v 0.404329 6.450000 -0.730970
v 0.451227 6.050000 -0.745196
v 0.451227 6.450000 -0.745196
vn 0.0980 -0.0000 -0.9952
vn 0.2903 -0.0000 -0.9569
vn 0.4714 -0.0000 -0.8819
vn 0.6344 -0.0000 -0.7730
vn 0.7730 -0.0000 -0.6344
vn 0.8819 -0.0000 -0.4714
vn 0.9569 -0.0000 -0.2903
vn 0.9952 -0.0000 -0.0980
vn 0.9952 -0.0000 0.0980
vn 0.9569 -0.0000 0.2903
vn 0.8819 -0.0000 0.4714
vn 0.7730 -0.0000 0.6344
vn 0.6344 -0.0000 0.7730
vn 0.4714 -0.0000 0.8819
vn 0.2903 -0.0000 0.9569
vn 0.0980 -0.0000 0.9952
vn -0.0980 -0.0000 0.9952
vn -0.2903 -0.0000 0.9569
vn -0.4714 -0.0000 0.8819
vn -0.6344 -0.0000 0.7730
vn -0.7730 -0.0000 0.6344
vn -0.8819 -0.0000 0.4714
vn -0.9569 -0.0000 0.2903
vn -0.9952 -0.0000 0.0980
vn -0.9952 -0.0000 -0.0980
vn -0.9569 -0.0000 -0.2903
vn -0.8819 -0.0000 -0.4714
vn -0.7730 -0.0000 -0.6344
vn -0.6344 -0.0000 -0.7730
vn -0.4714 -0.0000 -0.8819
vn -0.0000 1.0000 -0.0000
vn -0.2903 -0.0000 -0.9569
vn -0.0980 -0.0000 -0.9952
vn -0.0000 -1.0000 -0.0000
vt 1.000000 1.000000
vt 0.968750 0.500000
vt 1.000000 0.500000
vt 0.968750 1.000000
vt 0.937500 0.500000
vt 0.937500 1.000000
vt 0.906250 0.500000
vt 0.906250 1.000000
vt 0.875000 0.500000
vt 0.875000 1.000000
vt 0.843750 0.500000
vt 0.843750 1.000000
vt 0.812500 0.500000
vt 0.812500 1.000000
vt 0.781250 0.500000
vt 0.781250 1.000000
vt 0.750000 0.500000
vt 0.750000 1.000000
vt 0.718750 0.500000
vt 0.718750 1.000000
vt 0.687500 0.500000
vt 0.687500 1.000000
vt 0.656250 0.500000
vt 0.656250 1.000000
vt 0.625000 0.500000
vt 0.625000 1.000000
vt 0.593750 0.500000
vt 0.593750 1.000000
vt 0.562500 0.500000
vt 0.562500 1.000000
vt 0.531250 0.500000
vt 0.531250 1.000000
vt 0.500000 0.500000
vt 0.500000 1.000000
vt 0.468750 0.500000
vt 0.468750 1.000000
vt 0.437500 0.500000
vt 0.437500 1.000000
vt 0.406250 0.500000
vt 0.406250 1.000000
vt 0.375000 0.500000
vt 0.375000 1.000000
vt 0.343750 0.500000
vt 0.343750 1.000000
vt 0.312500 0.500000
vt 0.312500 1.000000
vt 0.281250 0.500000
vt 0.281250 1.000000
vt 0.250000 0.500000
vt 0.250000 1.000000
vt 0.218750 0.500000
vt 0.218750 1.000000
vt 0.187500 0.500000
vt 0.187500 1.000000
vt 0.156250 0.500000
vt 0.156250 1.000000
vt 0.125000 0.500000
vt 0.125000 1.000000
vt 0.093750 0.500000
vt 0.093750 1.000000
vt 0.062500 0.500000
vt 0.158156 0.028269
vt 0.471731 0.158156
vt 0.341844 0.471731
vt 0.062500 1.000000
vt 0.031250 0.500000
vt 0.031250 1.000000
vt 0.000000 0.500000
vt 0.796822 0.014612
vt 0.514612 0.203178
vt 0.703178 0.485388
vt 0.296822 0.485388
vt 0.250000 0.490000
vt 0.203178 0.485388
vt 0.158156 0.471731
vt 0.116663 0.449553
vt 0.080294 0.419706
vt 0.050447 0.383337
vt 0.028269 0.341844
vt 0.014612 0.296822
vt 0.010000 0.250000
vt 0.014612 0.203178
vt 0.028269 0.158156
vt 0.050447 0.116663
vt 0.080294 0.080294
vt 0.116663 0.050447
vt 0.203178 0.014612
vt 0.341844 0.028269
vt 0.250000 0.010000
vt 0.296822 0.014612
vt 0.383337 0.050447
vt 0.419706 0.080294
vt 0.449553 0.116663
vt 0.485388 0.203178
vt 0.471731 0.341844
vt 0.490000 0.250000
vt 0.485388 0.296822
vt 0.449553 0.383337
vt 0.419706 0.419706
vt 0.383337 0.449553
vt 0.000000 1.000000
vt 0.750000 0.490000
vt 0.796822 0.485388
vt 0.841844 0.471731
vt 0.883337 0.449553
vt 0.919706 0.419706
vt 0.949553 0.383337
vt 0.971731 0.341844
vt 0.985388 0.296822
vt 0.990000 0.250000
vt 0.985388 0.203178
vt 0.971731 0.158156
vt 0.949553 0.116663
vt 0.919706 0.080294
vt 0.883337 0.050447
vt 0.841844 0.028269
vt 0.750000 0.010000
vt 0.703178 0.014612
vt 0.658156 0.028269
vt 0.616663 0.050447
vt 0.580294 0.080294
vt 0.550447 0.116663
vt 0.528269 0.158156
vt 0.510000 0.250000
vt 0.514612 0.296822
vt 0.528269 0.341844
vt 0.550447 0.383337
vt 0.580294 0.419706
vt 0.616663 0.449553
vt 0.658156 0.471731
s 0
f 242/477/127 243/478/127 241/479/127
f 244/480/128 245/481/128 243/478/128
f 246/482/129 247/483/129 245/481/129
f 248/484/130 249/485/130 247/483/130
f 250/486/131 251/487/131 249/485/131
f 252/488/132 253/489/132 251/487/132
f 254/490/133 255/491/133 253/489/133
f 256/492/134 257/493/134 255/491/134
f 258/494/135 259/495/135 257/493/135
f 260/496/136 261/497/136 259/495/136
f 262/498/137 263/499/137 261/497/137
f 264/500/138 265/501/138 263/499/138
f 266/502/139 267/503/139 265/501/139
f 268/504/140 269/505/140 267/503/140
f 270/506/141 271/507/141 269/505/141
f 272/508/142 273/509/142 271/507/142
f 274/510/143 275/511/143 273/509/143
f 276/512/144 277/513/144 275/511/144
f 278/514/145 279/515/145 277/513/145
f 280/516/146 281/517/146 279/515/146
f 282/518/147 283/519/147 281/517/147
f 284/520/148 285/521/148 283/519/148
f 286/522/149 287/523/149 285/521/149
f 288/524/150 289/525/150 287/523/150
f 290/526/151 291/527/151 289/525/151
f 292/528/152 293/529/152 291/527/152
f 294/530/153 295/531/153 293/529/153
f 296/532/154 297/533/154 295/531/154
f 298/534/155 299/535/155 297/533/155
f 300/536/156 301/537/156 299/535/156
f 278/538/157 262/539/157 246/540/157
f 302/541/158 303/542/158 301/537/158
f 304/543/159 241/544/159 303/542/159
f 271/545/160 287/546/160 303/547/160
f 242/477/127 244/480/127 243/478/127
f 244/480/128 246/482/128 245/481/128
f 246/482/129 248/484/129 247/483/129
f 248/484/130 250/486/130 249/485/130
f 250/486/131 252/488/131 251/487/131
f 252/488/132 254/490/132 253/489/132
f 254/490/133 256/492/133 255/491/133
f 256/492/134 258/494/134 257/493/134
f 258/494/135 260/496/135 259/495/135
f 260/496/136 262/498/136 261/497/136
f 262/498/137 264/500/137 263/499/137
f 264/500/138 266/502/138 265/501/138
f 266/502/139 268/504/139 267/503/139
f 268/504/140 270/506/140 269/505/140
f 270/506/141 272/508/141 271/507/141
f 272/508/142 274/510/142 273/509/142
f 274/510/143 276/512/143 275/511/143
f 276/512/144 278/514/144 277/513/144
f 278/514/145 280/516/145 279/515/145
f 280/516/146 282/518/146 281/517/146
f 282/518/147 284/520/147 283/519/147
f 284/520/148 286/522/148 285/521/148
f 286/522/149 288/524/149 287/523/149
f 288/524/150 290/526/150 289/525/150
f 290/526/151 292/528/151 291/527/151
f 292/528/152 294/530/152 293/529/152
f 294/530/153 296/532/153 295/531/153
f 296/532/154 298/534/154 297/533/154
f 298/534/155 300/536/155 299/535/155
f 300/536/156 302/541/156 301/537/156
f 246/540/157 244/548/157 242/549/157
f 242/549/157 304/550/157 246/540/157
f 304/550/157 302/551/157 246/540/157
f 302/551/157 300/552/157 298/553/157
f 298/553/157 296/554/157 294/555/157
f 294/555/157 292/556/157 290/557/157
f 290/557/157 288/558/157 294/555/157
f 288/558/157 286/559/157 294/555/157
f 286/559/157 284/560/157 282/561/157
f 282/561/157 280/562/157 278/538/157
f 278/538/157 276/563/157 270/564/157
f 276/563/157 274/565/157 270/564/157
f 274/565/157 272/566/157 270/564/157
f 270/564/157 268/567/157 266/568/157
f 266/568/157 264/569/157 262/539/157
f 262/539/157 260/570/157 254/571/157
f 260/570/157 258/572/157 254/571/157
f 258/572/157 256/573/157 254/571/157
f 254/571/157 252/574/157 250/575/157
f 250/575/157 248/576/157 246/540/157
f 302/551/157 298/553/157 246/540/157
f 298/553/157 294/555/157 246/540/157
f 286/559/157 282/561/157 294/555/157
f 282/561/157 278/538/157 294/555/157
f 270/564/157 266/568/157 278/538/157
f 266/568/157 262/539/157 278/538/157
f 254/571/157 250/575/157 262/539/157
f 250/575/157 246/540/157 262/539/157
f 246/540/157 294/555/157 278/538/157
f 302/541/158 304/543/158 303/542/158
f 304/543/159 242/577/159 241/544/159
f 303/547/160 241/578/160 243/579/160
f 243/579/160 245/580/160 247/581/160
f 247/581/160 249/582/160 251/583/160
f 251/583/160 253/584/160 255/585/160
f 255/585/160 257/586/160 259/587/160
f 259/587/160 261/588/160 263/589/160
f 263/589/160 265/590/160 267/591/160
f 267/591/160 269/592/160 271/545/160
f 271/545/160 273/593/160 275/594/160
f 275/594/160 277/595/160 279/596/160
f 279/596/160 281/597/160 283/598/160
f 283/598/160 285/599/160 287/546/160
f 287/546/160 289/600/160 291/601/160
f 291/601/160 293/602/160 295/603/160
f 295/603/160 297/604/160 299/605/160
f 299/605/160 301/606/160 303/547/160
f 303/547/160 243/579/160 255/585/160
f 243/579/160 247/581/160 255/585/160
f 247/581/160 251/583/160 255/585/160
f 255/585/160 259/587/160 271/545/160
f 259/587/160 263/589/160 271/545/160
f 263/589/160 267/591/160 271/545/160
f 271/545/160 275/594/160 287/546/160
f 275/594/160 279/596/160 287/546/160
f 279/596/160 283/598/160 287/546/160
f 287/546/160 291/601/160 303/547/160
f 291/601/160 295/603/160 303/547/160
f 295/603/160 299/605/160 303/547/160
f 303/547/160 255/585/160 271/545/160
