# Blender 4.3.1
# www.blender.org
mtllib Wand_Ohne_Fenster.mtl
o Cube.001
v 6.000000 6.000000 -1.000000
v 5.880000 5.880000 -0.900000
v 6.000000 0.000000 -1.000000
v 5.880000 0.120000 -0.900000
v 6.000000 6.000000 0.000000
v 6.000000 0.000000 0.000000
v 0.000000 6.000000 -1.000000
v 0.120000 5.880000 -0.900000
v 0.000000 0.000000 -1.000000
v 0.120000 0.120000 -0.900000
v 0.000000 6.000000 0.000000
v 0.000000 0.000000 0.000000
v 5.880000 0.120000 0.000000
v 0.120000 5.880000 0.000000
v 5.880000 5.880000 0.000000
v 0.120000 0.120000 0.000000
vn -0.0000 1.0000 -0.0000
vn -0.0000 -0.0000 1.0000
vn -1.0000 -0.0000 -0.0000
vn -0.0000 -1.0000 -0.0000
vn 1.0000 -0.0000 -0.0000
vn -0.0000 -0.0000 -1.0000
vt 0.875000 0.500000
vt 0.625000 0.750000
vt 0.625000 0.500000
vt 0.625000 1.000000
vt 0.620000 0.755000
vt 0.375000 1.000000
vt 0.380000 0.755000
vt 0.380000 0.995000
vt 0.625000 0.000000
vt 0.375000 0.250000
vt 0.375000 0.000000
vt 0.375000 0.500000
vt 0.125000 0.750000
vt 0.125000 0.500000
vt 0.375000 0.750000
vt 0.625000 0.250000
vt 0.625000 0.725000
vt 0.875000 0.725000
vt 0.375000 0.025000
vt 0.125000 0.725000
vt 0.375000 0.725000
vt 0.875000 0.750000
vt 0.620000 0.995000
vt 0.625000 0.025000
s 0
usemtl Material.001
f 7/1/1 5/2/1 1/3/1
f 5/2/2 11/4/2 15/5/2
f 12/6/2 13/7/2 16/8/2
f 11/9/3 9/10/3 12/11/3
f 3/12/4 12/13/4 9/14/4
f 1/3/5 6/15/5 3/12/5
f 7/16/6 3/12/6 9/10/6
f 8/1/4 15/17/4 14/18/4
f 8/16/5 16/19/5 10/10/5
f 4/12/1 16/20/1 13/21/1
f 4/12/3 15/17/3 2/3/3
f 4/12/2 8/16/2 10/10/2
f 7/1/1 11/22/1 5/2/1
f 13/7/2 6/15/2 5/2/2
f 11/4/2 12/6/2 16/8/2
f 11/4/2 16/8/2 14/23/2
f 15/5/2 13/7/2 5/2/2
f 11/4/2 14/23/2 15/5/2
f 12/6/2 6/15/2 13/7/2
f 11/9/3 7/16/3 9/10/3
f 3/12/4 6/15/4 12/13/4
f 1/3/5 5/2/5 6/15/5
f 7/16/6 1/3/6 3/12/6
f 8/1/4 2/3/4 15/17/4
f 8/16/5 14/24/5 16/19/5
f 4/12/1 10/14/1 16/20/1
f 4/12/3 13/21/3 15/17/3
f 4/12/2 2/3/2 8/16/2
o Cylinder.002
v 0.500000 -0.450000 -0.750000
v 0.500000 -0.050000 -0.750000
v 0.548773 -0.450000 -0.745196
v 0.548773 -0.050000 -0.745196
v 0.595671 -0.450000 -0.730970
v 0.595671 -0.050000 -0.730970
v 0.638893 -0.450000 -0.707867
v 0.638893 -0.050000 -0.707867
v 0.676777 -0.450000 -0.676777
v 0.676777 -0.050000 -0.676777
v 0.707867 -0.450000 -0.638893
v 0.707867 -0.050000 -0.638893
v 0.730970 -0.450000 -0.595671
v 0.730970 -0.050000 -0.595671
v 0.745196 -0.450000 -0.548773
v 0.745196 -0.050000 -0.548773
v 0.750000 -0.450000 -0.500000
v 0.750000 -0.050000 -0.500000
v 0.745196 -0.450000 -0.451227
v 0.745196 -0.050000 -0.451227
v 0.730970 -0.450000 -0.404329
v 0.730970 -0.050000 -0.404329
v 0.707867 -0.450000 -0.361107
v 0.707867 -0.050000 -0.361107
v 0.676777 -0.450000 -0.323223
v 0.676777 -0.050000 -0.323223
v 0.638893 -0.450000 -0.292133
v 0.638893 -0.050000 -0.292133
v 0.595671 -0.450000 -0.269030
v 0.595671 -0.050000 -0.269030
v 0.548773 -0.450000 -0.254804
v 0.548773 -0.050000 -0.254804
v 0.500000 -0.450000 -0.250000
v 0.500000 -0.050000 -0.250000
v 0.451227 -0.450000 -0.254804
v 0.451227 -0.050000 -0.254804
v 0.404329 -0.450000 -0.269030
v 0.404329 -0.050000 -0.269030
v 0.361107 -0.450000 -0.292133
v 0.361107 -0.050000 -0.292133
v 0.323223 -0.450000 -0.323223
v 0.323223 -0.050000 -0.323223
v 0.292133 -0.450000 -0.361107
v 0.292133 -0.050000 -0.361107
v 0.269030 -0.450000 -0.404329
v 0.269030 -0.050000 -0.404329
v 0.254804 -0.450000 -0.451227
v 0.254804 -0.050000 -0.451227
v 0.250000 -0.450000 -0.500000
v 0.250000 -0.050000 -0.500000
v 0.254804 -0.450000 -0.548773
v 0.254804 -0.050000 -0.548773
v 0.269030 -0.450000 -0.595671
v 0.269030 -0.050000 -0.595671
v 0.292133 -0.450000 -0.638893
v 0.292133 -0.050000 -0.638893
v 0.323223 -0.450000 -0.676777
v 0.323223 -0.050000 -0.676777
v 0.361107 -0.450000 -0.707867
v 0.361107 -0.050000 -0.707867
v 0.404329 -0.450000 -0.730970
v 0.404329 -0.050000 -0.730970
v 0.451227 -0.450000 -0.745196
v 0.451227 -0.050000 -0.745196
vn 0.0980 -0.0000 -0.9952
vn 0.2903 -0.0000 -0.9569
vn 0.4714 -0.0000 -0.8819
vn 0.6344 -0.0000 -0.7730
vn 0.7730 -0.0000 -0.6344
vn 0.8819 -0.0000 -0.4714
vn 0.9569 -0.0000 -0.2903
vn 0.9952 -0.0000 -0.0980
vn 0.9952 -0.0000 0.0980
vn 0.9569 -0.0000 0.2903
vn 0.8819 -0.0000 0.4714
vn 0.7730 -0.0000 0.6344
vn 0.6344 -0.0000 0.7730
vn 0.4714 -0.0000 0.8819
vn 0.2903 -0.0000 0.9569
vn 0.0980 -0.0000 0.9952
vn -0.0980 -0.0000 0.9952
vn -0.2903 -0.0000 0.9569
vn -0.4714 -0.0000 0.8819
vn -0.6344 -0.0000 0.7730
vn -0.7730 -0.0000 0.6344
vn -0.8819 -0.0000 0.4714
vn -0.9569 -0.0000 0.2903
vn -0.9952 -0.0000 0.0980
vn -0.9952 -0.0000 -0.0980
vn -0.9569 -0.0000 -0.2903
vn -0.8819 -0.0000 -0.4714
vn -0.7730 -0.0000 -0.6344
vn -0.6344 -0.0000 -0.7730
vn -0.4714 -0.0000 -0.8819
vn -0.0000 1.0000 -0.0000
vn -0.2903 -0.0000 -0.9569
vn -0.0980 -0.0000 -0.9952
vn -0.0000 -1.0000 -0.0000
vt 1.000000 1.000000
vt 0.968750 0.500000
vt 1.000000 0.500000
vt 0.968750 1.000000
vt 0.937500 0.500000
vt 0.937500 1.000000
vt 0.906250 0.500000
vt 0.906250 1.000000
vt 0.875000 0.500000
vt 0.875000 1.000000
vt 0.843750 0.500000
vt 0.843750 1.000000
vt 0.812500 0.500000
vt 0.812500 1.000000
vt 0.781250 0.500000
vt 0.781250 1.000000
vt 0.750000 0.500000
vt 0.750000 1.000000
vt 0.718750 0.500000
vt 0.718750 1.000000
vt 0.687500 0.500000
vt 0.687500 1.000000
vt 0.656250 0.500000
vt 0.656250 1.000000
vt 0.625000 0.500000
vt 0.625000 1.000000
vt 0.593750 0.500000
vt 0.593750 1.000000
vt 0.562500 0.500000
vt 0.562500 1.000000
vt 0.531250 0.500000
vt 0.531250 1.000000
vt 0.500000 0.500000
vt 0.500000 1.000000
vt 0.468750 0.500000
vt 0.468750 1.000000
vt 0.437500 0.500000
vt 0.437500 1.000000
vt 0.406250 0.500000
vt 0.406250 1.000000
vt 0.375000 0.500000
vt 0.375000 1.000000
vt 0.343750 0.500000
vt 0.343750 1.000000
vt 0.312500 0.500000
vt 0.312500 1.000000
vt 0.281250 0.500000
vt 0.281250 1.000000
vt 0.250000 0.500000
vt 0.250000 1.000000
vt 0.218750 0.500000
vt 0.218750 1.000000
vt 0.187500 0.500000
vt 0.187500 1.000000
vt 0.156250 0.500000
vt 0.156250 1.000000
vt 0.125000 0.500000
vt 0.125000 1.000000
vt 0.093750 0.500000
vt 0.093750 1.000000
vt 0.062500 0.500000
vt 0.158156 0.028269
vt 0.471731 0.158156
vt 0.341844 0.471731
vt 0.062500 1.000000
vt 0.031250 0.500000
vt 0.031250 1.000000
vt 0.000000 0.500000
vt 0.796822 0.014612
vt 0.514612 0.203178
vt 0.703178 0.485388
vt 0.296822 0.485388
vt 0.250000 0.490000
vt 0.203178 0.485388
vt 0.158156 0.471731
vt 0.116663 0.449553
vt 0.080294 0.419706
vt 0.050447 0.383337
vt 0.028269 0.341844
vt 0.014612 0.296822
vt 0.010000 0.250000
vt 0.014612 0.203178
vt 0.028269 0.158156
vt 0.050447 0.116663
vt 0.080294 0.080294
vt 0.116663 0.050447
vt 0.203178 0.014612
vt 0.341844 0.028269
vt 0.250000 0.010000
vt 0.296822 0.014612
vt 0.383337 0.050447
vt 0.419706 0.080294
vt 0.449553 0.116663
vt 0.485388 0.203178
vt 0.471731 0.341844
vt 0.490000 0.250000
vt 0.485388 0.296822
vt 0.449553 0.383337
vt 0.419706 0.419706
vt 0.383337 0.449553
vt 0.000000 1.000000
vt 0.750000 0.490000
vt 0.796822 0.485388
vt 0.841844 0.471731
vt 0.883337 0.449553
vt 0.919706 0.419706
vt 0.949553 0.383337
vt 0.971731 0.341844
vt 0.985388 0.296822
vt 0.990000 0.250000
vt 0.985388 0.203178
vt 0.971731 0.158156
vt 0.949553 0.116663
vt 0.919706 0.080294
vt 0.883337 0.050447
vt 0.841844 0.028269
vt 0.750000 0.010000
vt 0.703178 0.014612
vt 0.658156 0.028269
vt 0.616663 0.050447
vt 0.580294 0.080294
vt 0.550447 0.116663
vt 0.528269 0.158156
vt 0.510000 0.250000
vt 0.514612 0.296822
vt 0.528269 0.341844
vt 0.550447 0.383337
vt 0.580294 0.419706
vt 0.616663 0.449553
vt 0.658156 0.471731
s 0
f 18/25/7 19/26/7 17/27/7
f 20/28/8 21/29/8 19/26/8
f 22/30/9 23/31/9 21/29/9
f 24/32/10 25/33/10 23/31/10
f 26/34/11 27/35/11 25/33/11
f 28/36/12 29/37/12 27/35/12
f 30/38/13 31/39/13 29/37/13
f 32/40/14 33/41/14 31/39/14
f 34/42/15 35/43/15 33/41/15
f 36/44/16 37/45/16 35/43/16
f 38/46/17 39/47/17 37/45/17
f 40/48/18 41/49/18 39/47/18
f 42/50/19 43/51/19 41/49/19
f 44/52/20 45/53/20 43/51/20
f 46/54/21 47/55/21 45/53/21
f 48/56/22 49/57/22 47/55/22
f 50/58/23 51/59/23 49/57/23
f 52/60/24 53/61/24 51/59/24
f 54/62/25 55/63/25 53/61/25
f 56/64/26 57/65/26 55/63/26
f 58/66/27 59/67/27 57/65/27
f 60/68/28 61/69/28 59/67/28
f 62/70/29 63/71/29 61/69/29
f 64/72/30 65/73/30 63/71/30
f 66/74/31 67/75/31 65/73/31
f 68/76/32 69/77/32 67/75/32
f 70/78/33 71/79/33 69/77/33
f 72/80/34 73/81/34 71/79/34
f 74/82/35 75/83/35 73/81/35
f 76/84/36 77/85/36 75/83/36
f 54/86/37 38/87/37 22/88/37
f 78/89/38 79/90/38 77/85/38
f 80/91/39 17/92/39 79/90/39
f 47/93/40 63/94/40 79/95/40
f 18/25/7 20/28/7 19/26/7
f 20/28/8 22/30/8 21/29/8
f 22/30/9 24/32/9 23/31/9
f 24/32/10 26/34/10 25/33/10
f 26/34/11 28/36/11 27/35/11
f 28/36/12 30/38/12 29/37/12
f 30/38/13 32/40/13 31/39/13
f 32/40/14 34/42/14 33/41/14
f 34/42/15 36/44/15 35/43/15
f 36/44/16 38/46/16 37/45/16
f 38/46/17 40/48/17 39/47/17
f 40/48/18 42/50/18 41/49/18
f 42/50/19 44/52/19 43/51/19
f 44/52/20 46/54/20 45/53/20
f 46/54/21 48/56/21 47/55/21
f 48/56/22 50/58/22 49/57/22
f 50/58/23 52/60/23 51/59/23
f 52/60/24 54/62/24 53/61/24
f 54/62/25 56/64/25 55/63/25
f 56/64/26 58/66/26 57/65/26
f 58/66/27 60/68/27 59/67/27
f 60/68/28 62/70/28 61/69/28
f 62/70/29 64/72/29 63/71/29
f 64/72/30 66/74/30 65/73/30
f 66/74/31 68/76/31 67/75/31
f 68/76/32 70/78/32 69/77/32
f 70/78/33 72/80/33 71/79/33
f 72/80/34 74/82/34 73/81/34
f 74/82/35 76/84/35 75/83/35
f 76/84/36 78/89/36 77/85/36
f 22/88/37 20/96/37 18/97/37
f 18/97/37 80/98/37 22/88/37
f 80/98/37 78/99/37 22/88/37
f 78/99/37 76/100/37 74/101/37
f 74/101/37 72/102/37 70/103/37
f 70/103/37 68/104/37 66/105/37
f 66/105/37 64/106/37 70/103/37
f 64/106/37 62/107/37 70/103/37
f 62/107/37 60/108/37 58/109/37
f 58/109/37 56/110/37 54/86/37
f 54/86/37 52/111/37 46/112/37
f 52/111/37 50/113/37 46/112/37
f 50/113/37 48/114/37 46/112/37
f 46/112/37 44/115/37 42/116/37
f 42/116/37 40/117/37 38/87/37
f 38/87/37 36/118/37 30/119/37
f 36/118/37 34/120/37 30/119/37
f 34/120/37 32/121/37 30/119/37
f 30/119/37 28/122/37 26/123/37
f 26/123/37 24/124/37 22/88/37
f 78/99/37 74/101/37 22/88/37
f 74/101/37 70/103/37 22/88/37
f 62/107/37 58/109/37 70/103/37
f 58/109/37 54/86/37 70/103/37
f 46/112/37 42/116/37 54/86/37
f 42/116/37 38/87/37 54/86/37
f 30/119/37 26/123/37 38/87/37
f 26/123/37 22/88/37 38/87/37
f 22/88/37 70/103/37 54/86/37
f 78/89/38 80/91/38 79/90/38
f 80/91/39 18/125/39 17/92/39
f 79/95/40 17/126/40 19/127/40
f 19/127/40 21/128/40 23/129/40
f 23/129/40 25/130/40 27/131/40
f 27/131/40 29/132/40 31/133/40
f 31/133/40 33/134/40 35/135/40
f 35/135/40 37/136/40 39/137/40
f 39/137/40 41/138/40 43/139/40
f 43/139/40 45/140/40 47/93/40
f 47/93/40 49/141/40 51/142/40
f 51/142/40 53/143/40 55/144/40
f 55/144/40 57/145/40 59/146/40
f 59/146/40 61/147/40 63/94/40
f 63/94/40 65/148/40 67/149/40
f 67/149/40 69/150/40 71/151/40
f 71/151/40 73/152/40 75/153/40
f 75/153/40 77/154/40 79/95/40
f 79/95/40 19/127/40 31/133/40
f 19/127/40 23/129/40 31/133/40
f 23/129/40 27/131/40 31/133/40
f 31/133/40 35/135/40 47/93/40
f 35/135/40 39/137/40 47/93/40
f 39/137/40 43/139/40 47/93/40
f 47/93/40 51/142/40 63/94/40
f 51/142/40 55/144/40 63/94/40
f 55/144/40 59/146/40 63/94/40
f 63/94/40 67/149/40 79/95/40
f 67/149/40 71/151/40 79/95/40
f 71/151/40 75/153/40 79/95/40
f 79/95/40 31/133/40 47/93/40
o Cylinder.001
v 5.500000 -0.450000 -0.750000
v 5.500000 -0.050000 -0.750000
v 5.548773 -0.450000 -0.745196
v 5.548773 -0.050000 -0.745196
v 5.595671 -0.450000 -0.730970
v 5.595671 -0.050000 -0.730970
v 5.638893 -0.450000 -0.707867
v 5.638893 -0.050000 -0.707867
v 5.676777 -0.450000 -0.676777
v 5.676777 -0.050000 -0.676777
v 5.707868 -0.450000 -0.638893
v 5.707868 -0.050000 -0.638893
v 5.730970 -0.450000 -0.595671
v 5.730970 -0.050000 -0.595671
v 5.745196 -0.450000 -0.548773
v 5.745196 -0.050000 -0.548773
v 5.750000 -0.450000 -0.500000
v 5.750000 -0.050000 -0.500000
v 5.745196 -0.450000 -0.451227
v 5.745196 -0.050000 -0.451227
v 5.730970 -0.450000 -0.404329
v 5.730970 -0.050000 -0.404329
v 5.707868 -0.450000 -0.361107
v 5.707868 -0.050000 -0.361107
v 5.676777 -0.450000 -0.323223
v 5.676777 -0.050000 -0.323223
v 5.638893 -0.450000 -0.292133
v 5.638893 -0.050000 -0.292133
v 5.595671 -0.450000 -0.269030
v 5.595671 -0.050000 -0.269030
v 5.548773 -0.450000 -0.254804
v 5.548773 -0.050000 -0.254804
v 5.500000 -0.450000 -0.250000
v 5.500000 -0.050000 -0.250000
v 5.451227 -0.450000 -0.254804
v 5.451227 -0.050000 -0.254804
v 5.404329 -0.450000 -0.269030
v 5.404329 -0.050000 -0.269030
v 5.361107 -0.450000 -0.292133
v 5.361107 -0.050000 -0.292133
v 5.323223 -0.450000 -0.323223
v 5.323223 -0.050000 -0.323223
v 5.292132 -0.450000 -0.361107
v 5.292132 -0.050000 -0.361107
v 5.269030 -0.450000 -0.404329
v 5.269030 -0.050000 -0.404329
v 5.254804 -0.450000 -0.451227
v 5.254804 -0.050000 -0.451227
v 5.250000 -0.450000 -0.500000
v 5.250000 -0.050000 -0.500000
v 5.254804 -0.450000 -0.548773
v 5.254804 -0.050000 -0.548773
v 5.269030 -0.450000 -0.595671
v 5.269030 -0.050000 -0.595671
v 5.292132 -0.450000 -0.638893
v 5.292132 -0.050000 -0.638893
v 5.323223 -0.450000 -0.676777
v 5.323223 -0.050000 -0.676777
v 5.361107 -0.450000 -0.707867
v 5.361107 -0.050000 -0.707867
v 5.404329 -0.450000 -0.730970
v 5.404329 -0.050000 -0.730970
v 5.451227 -0.450000 -0.745196
v 5.451227 -0.050000 -0.745196
vn 0.0980 -0.0000 -0.9952
vn 0.2903 -0.0000 -0.9569
vn 0.4714 -0.0000 -0.8819
vn 0.6344 -0.0000 -0.7730
vn 0.7730 -0.0000 -0.6344
vn 0.8819 -0.0000 -0.4714
vn 0.9569 -0.0000 -0.2903
vn 0.9952 -0.0000 -0.0980
vn 0.9952 -0.0000 0.0980
vn 0.9569 -0.0000 0.2903
vn 0.8819 -0.0000 0.4714
vn 0.7730 -0.0000 0.6344
vn 0.6344 -0.0000 0.7730
vn 0.4714 -0.0000 0.8819
vn 0.2903 -0.0000 0.9569
vn 0.0980 -0.0000 0.9952
vn -0.0980 -0.0000 0.9952
vn -0.2903 -0.0000 0.9569
vn -0.4714 -0.0000 0.8819
vn -0.6344 -0.0000 0.7730
vn -0.7730 -0.0000 0.6344
vn -0.8819 -0.0000 0.4714
vn -0.9569 -0.0000 0.2903
vn -0.9952 -0.0000 0.0980
vn -0.9952 -0.0000 -0.0980
vn -0.9569 -0.0000 -0.2903
vn -0.8819 -0.0000 -0.4714
vn -0.7730 -0.0000 -0.6344
vn -0.6344 -0.0000 -0.7730
vn -0.4714 -0.0000 -0.8819
vn -0.0000 1.0000 -0.0000
vn -0.2903 -0.0000 -0.9569
vn -0.0980 -0.0000 -0.9952
vn -0.0000 -1.0000 -0.0000
vt 1.000000 1.000000
vt 0.968750 0.500000
vt 1.000000 0.500000
vt 0.968750 1.000000
vt 0.937500 0.500000
vt 0.937500 1.000000
vt 0.906250 0.500000
vt 0.906250 1.000000
vt 0.875000 0.500000
vt 0.875000 1.000000
vt 0.843750 0.500000
vt 0.843750 1.000000
vt 0.812500 0.500000
vt 0.812500 1.000000
vt 0.781250 0.500000
vt 0.781250 1.000000
vt 0.750000 0.500000
vt 0.750000 1.000000
vt 0.718750 0.500000
vt 0.718750 1.000000
vt 0.687500 0.500000
vt 0.687500 1.000000
vt 0.656250 0.500000
vt 0.656250 1.000000
vt 0.625000 0.500000
vt 0.625000 1.000000
vt 0.593750 0.500000
vt 0.593750 1.000000
vt 0.562500 0.500000
vt 0.562500 1.000000
vt 0.531250 0.500000
vt 0.531250 1.000000
vt 0.500000 0.500000
vt 0.500000 1.000000
vt 0.468750 0.500000
vt 0.468750 1.000000
vt 0.437500 0.500000
vt 0.437500 1.000000
vt 0.406250 0.500000
vt 0.406250 1.000000
vt 0.375000 0.500000
vt 0.375000 1.000000
vt 0.343750 0.500000
vt 0.343750 1.000000
vt 0.312500 0.500000
vt 0.312500 1.000000
vt 0.281250 0.500000
vt 0.281250 1.000000
vt 0.250000 0.500000
vt 0.250000 1.000000
vt 0.218750 0.500000
vt 0.218750 1.000000
vt 0.187500 0.500000
vt 0.187500 1.000000
vt 0.156250 0.500000
vt 0.156250 1.000000
vt 0.125000 0.500000
vt 0.125000 1.000000
vt 0.093750 0.500000
vt 0.093750 1.000000
vt 0.062500 0.500000
vt 0.158156 0.028269
vt 0.471731 0.158156
vt 0.341844 0.471731
vt 0.062500 1.000000
vt 0.031250 0.500000
vt 0.031250 1.000000
vt 0.000000 0.500000
vt 0.796822 0.014612
vt 0.514612 0.203178
vt 0.703178 0.485388
vt 0.296822 0.485388
vt 0.250000 0.490000
vt 0.203178 0.485388
vt 0.158156 0.471731
vt 0.116663 0.449553
vt 0.080294 0.419706
vt 0.050447 0.383337
vt 0.028269 0.341844
vt 0.014612 0.296822
vt 0.010000 0.250000
vt 0.014612 0.203178
vt 0.028269 0.158156
vt 0.050447 0.116663
vt 0.080294 0.080294
vt 0.116663 0.050447
vt 0.203178 0.014612
vt 0.341844 0.028269
vt 0.250000 0.010000
vt 0.296822 0.014612
vt 0.383337 0.050447
vt 0.419706 0.080294
vt 0.449553 0.116663
vt 0.485388 0.203178
vt 0.471731 0.341844
vt 0.490000 0.250000
vt 0.485388 0.296822
vt 0.449553 0.383337
vt 0.419706 0.419706
vt 0.383337 0.449553
vt 0.000000 1.000000
vt 0.750000 0.490000
vt 0.796822 0.485388
vt 0.841844 0.471731
vt 0.883337 0.449553
vt 0.919706 0.419706
vt 0.949553 0.383337
vt 0.971731 0.341844
vt 0.985388 0.296822
vt 0.990000 0.250000
vt 0.985388 0.203178
vt 0.971731 0.158156
vt 0.949553 0.116663
vt 0.919706 0.080294
vt 0.883337 0.050447
vt 0.841844 0.028269
vt 0.750000 0.010000
vt 0.703178 0.014612
vt 0.658156 0.028269
vt 0.616663 0.050447
vt 0.580294 0.080294
vt 0.550447 0.116663
vt 0.528269 0.158156
vt 0.510000 0.250000
vt 0.514612 0.296822
vt 0.528269 0.341844
vt 0.550447 0.383337
vt 0.580294 0.419706
vt 0.616663 0.449553
vt 0.658156 0.471731
s 0
f 82/155/41 83/156/41 81/157/41
f 84/158/42 85/159/42 83/156/42
f 86/160/43 87/161/43 85/159/43
f 88/162/44 89/163/44 87/161/44
f 90/164/45 91/165/45 89/163/45
f 92/166/46 93/167/46 91/165/46
f 94/168/47 95/169/47 93/167/47
f 96/170/48 97/171/48 95/169/48
f 98/172/49 99/173/49 97/171/49
f 100/174/50 101/175/50 99/173/50
f 102/176/51 103/177/51 101/175/51
f 104/178/52 105/179/52 103/177/52
f 106/180/53 107/181/53 105/179/53
f 108/182/54 109/183/54 107/181/54
f 110/184/55 111/185/55 109/183/55
f 112/186/56 113/187/56 111/185/56
f 114/188/57 115/189/57 113/187/57
f 116/190/58 117/191/58 115/189/58
f 118/192/59 119/193/59 117/191/59
f 120/194/60 121/195/60 119/193/60
f 122/196/61 123/197/61 121/195/61
f 124/198/62 125/199/62 123/197/62
f 126/200/63 127/201/63 125/199/63
f 128/202/64 129/203/64 127/201/64
f 130/204/65 131/205/65 129/203/65
f 132/206/66 133/207/66 131/205/66
f 134/208/67 135/209/67 133/207/67
f 136/210/68 137/211/68 135/209/68
f 138/212/69 139/213/69 137/211/69
f 140/214/70 141/215/70 139/213/70
f 118/216/71 102/217/71 86/218/71
f 142/219/72 143/220/72 141/215/72
f 144/221/73 81/222/73 143/220/73
f 111/223/74 127/224/74 143/225/74
f 82/155/41 84/158/41 83/156/41
f 84/158/42 86/160/42 85/159/42
f 86/160/43 88/162/43 87/161/43
f 88/162/44 90/164/44 89/163/44
f 90/164/45 92/166/45 91/165/45
f 92/166/46 94/168/46 93/167/46
f 94/168/47 96/170/47 95/169/47
f 96/170/48 98/172/48 97/171/48
f 98/172/49 100/174/49 99/173/49
f 100/174/50 102/176/50 101/175/50
f 102/176/51 104/178/51 103/177/51
f 104/178/52 106/180/52 105/179/52
f 106/180/53 108/182/53 107/181/53
f 108/182/54 110/184/54 109/183/54
f 110/184/55 112/186/55 111/185/55
f 112/186/56 114/188/56 113/187/56
f 114/188/57 116/190/57 115/189/57
f 116/190/58 118/192/58 117/191/58
f 118/192/59 120/194/59 119/193/59
f 120/194/60 122/196/60 121/195/60
f 122/196/61 124/198/61 123/197/61
f 124/198/62 126/200/62 125/199/62
f 126/200/63 128/202/63 127/201/63
f 128/202/64 130/204/64 129/203/64
f 130/204/65 132/206/65 131/205/65
f 132/206/66 134/208/66 133/207/66
f 134/208/67 136/210/67 135/209/67
f 136/210/68 138/212/68 137/211/68
f 138/212/69 140/214/69 139/213/69
f 140/214/70 142/219/70 141/215/70
f 86/218/71 84/226/71 82/227/71
f 82/227/71 144/228/71 86/218/71
f 144/228/71 142/229/71 86/218/71
f 142/229/71 140/230/71 138/231/71
f 138/231/71 136/232/71 134/233/71
f 134/233/71 132/234/71 130/235/71
f 130/235/71 128/236/71 134/233/71
f 128/236/71 126/237/71 134/233/71
f 126/237/71 124/238/71 122/239/71
f 122/239/71 120/240/71 118/216/71
f 118/216/71 116/241/71 110/242/71
f 116/241/71 114/243/71 110/242/71
f 114/243/71 112/244/71 110/242/71
f 110/242/71 108/245/71 106/246/71
f 106/246/71 104/247/71 102/217/71
f 102/217/71 100/248/71 94/249/71
f 100/248/71 98/250/71 94/249/71
f 98/250/71 96/251/71 94/249/71
f 94/249/71 92/252/71 90/253/71
f 90/253/71 88/254/71 86/218/71
f 142/229/71 138/231/71 86/218/71
f 138/231/71 134/233/71 86/218/71
f 126/237/71 122/239/71 134/233/71
f 122/239/71 118/216/71 134/233/71
f 110/242/71 106/246/71 118/216/71
f 106/246/71 102/217/71 118/216/71
f 94/249/71 90/253/71 102/217/71
f 90/253/71 86/218/71 102/217/71
f 86/218/71 134/233/71 118/216/71
f 142/219/72 144/221/72 143/220/72
f 144/221/73 82/255/73 81/222/73
f 143/225/74 81/256/74 83/257/74
f 83/257/74 85/258/74 87/259/74
f 87/259/74 89/260/74 91/261/74
f 91/261/74 93/262/74 95/263/74
f 95/263/74 97/264/74 99/265/74
f 99/265/74 101/266/74 103/267/74
f 103/267/74 105/268/74 107/269/74
f 107/269/74 109/270/74 111/223/74
f 111/223/74 113/271/74 115/272/74
f 115/272/74 117/273/74 119/274/74
f 119/274/74 121/275/74 123/276/74
f 123/276/74 125/277/74 127/224/74
f 127/224/74 129/278/74 131/279/74
f 131/279/74 133/280/74 135/281/74
f 135/281/74 137/282/74 139/283/74
f 139/283/74 141/284/74 143/225/74
f 143/225/74 83/257/74 95/263/74
f 83/257/74 87/259/74 95/263/74
f 87/259/74 91/261/74 95/263/74
f 95/263/74 99/265/74 111/223/74
f 99/265/74 103/267/74 111/223/74
f 103/267/74 107/269/74 111/223/74
f 111/223/74 115/272/74 127/224/74
f 115/272/74 119/274/74 127/224/74
f 119/274/74 123/276/74 127/224/74
f 127/224/74 131/279/74 143/225/74
f 131/279/74 135/281/74 143/225/74
f 135/281/74 139/283/74 143/225/74
f 143/225/74 95/263/74 111/223/74
o Cylinder.003
v 5.500000 6.050000 -0.750000
v 5.500000 6.450000 -0.750000
v 5.548773 6.050000 -0.745196
v 5.548773 6.450000 -0.745196
v 5.595671 6.050000 -0.730970
v 5.595671 6.450000 -0.730970
v 5.638893 6.050000 -0.707867
v 5.638893 6.450000 -0.707867
v 5.676777 6.050000 -0.676777
v 5.676777 6.450000 -0.676777
v 5.707868 6.050000 -0.638893
v 5.707868 6.450000 -0.638893
v 5.730970 6.050000 -0.595671
v 5.730970 6.450000 -0.595671
v 5.745196 6.050000 -0.548773
v 5.745196 6.450000 -0.548773
v 5.750000 6.050000 -0.500000
v 5.750000 6.450000 -0.500000
v 5.745196 6.050000 -0.451227
v 5.745196 6.450000 -0.451227
v 5.730970 6.050000 -0.404329
v 5.730970 6.450000 -0.404329
v 5.707868 6.050000 -0.361107
v 5.707868 6.450000 -0.361107
v 5.676777 6.050000 -0.323223
v 5.676777 6.450000 -0.323223
v 5.638893 6.050000 -0.292133
v 5.638893 6.450000 -0.292133
v 5.595671 6.050000 -0.269030
v 5.595671 6.450000 -0.269030
v 5.548773 6.050000 -0.254804
v 5.548773 6.450000 -0.254804
v 5.500000 6.050000 -0.250000
v 5.500000 6.450000 -0.250000
v 5.451227 6.050000 -0.254804
v 5.451227 6.450000 -0.254804
v 5.404329 6.050000 -0.269030
v 5.404329 6.450000 -0.269030
v 5.361107 6.050000 -0.292133
v 5.361107 6.450000 -0.292133
v 5.323223 6.050000 -0.323223
v 5.323223 6.450000 -0.323223
v 5.292132 6.050000 -0.361107
v 5.292132 6.450000 -0.361107
v 5.269030 6.050000 -0.404329
v 5.269030 6.450000 -0.404329
v 5.254804 6.050000 -0.451227
v 5.254804 6.450000 -0.451227
v 5.250000 6.050000 -0.500000
v 5.250000 6.450000 -0.500000
v 5.254804 6.050000 -0.548773
v 5.254804 6.450000 -0.548773
v 5.269030 6.050000 -0.595671
v 5.269030 6.450000 -0.595671
v 5.292132 6.050000 -0.638893
v 5.292132 6.450000 -0.638893
v 5.323223 6.050000 -0.676777
v 5.323223 6.450000 -0.676777
v 5.361107 6.050000 -0.707867
v 5.361107 6.450000 -0.707867
v 5.404329 6.050000 -0.730970
v 5.404329 6.450000 -0.730970
v 5.451227 6.050000 -0.745196
v 5.451227 6.450000 -0.745196
vn 0.0980 -0.0000 -0.9952
vn 0.2903 -0.0000 -0.9569
vn 0.4714 -0.0000 -0.8819
vn 0.6344 -0.0000 -0.7730
vn 0.7730 -0.0000 -0.6344
vn 0.8819 -0.0000 -0.4714
vn 0.9569 -0.0000 -0.2903
vn 0.9952 -0.0000 -0.0980
vn 0.9952 -0.0000 0.0980
vn 0.9569 -0.0000 0.2903
vn 0.8819 -0.0000 0.4714
vn 0.7730 -0.0000 0.6344
vn 0.6344 -0.0000 0.7730
vn 0.4714 -0.0000 0.8819
vn 0.2903 -0.0000 0.9569
vn 0.0980 -0.0000 0.9952
vn -0.0980 -0.0000 0.9952
vn -0.2903 -0.0000 0.9569
vn -0.4714 -0.0000 0.8819
vn -0.6344 -0.0000 0.7730
vn -0.7730 -0.0000 0.6344
vn -0.8819 -0.0000 0.4714
vn -0.9569 -0.0000 0.2903
vn -0.9952 -0.0000 0.0980
vn -0.9952 -0.0000 -0.0980
vn -0.9569 -0.0000 -0.2903
vn -0.8819 -0.0000 -0.4714
vn -0.7730 -0.0000 -0.6344
vn -0.6344 -0.0000 -0.7730
vn -0.4714 -0.0000 -0.8819
vn -0.0000 1.0000 -0.0000
vn -0.2903 -0.0000 -0.9569
vn -0.0980 -0.0000 -0.9952
vn -0.0000 -1.0000 -0.0000
vt 1.000000 1.000000
vt 0.968750 0.500000
vt 1.000000 0.500000
vt 0.968750 1.000000
vt 0.937500 0.500000
vt 0.937500 1.000000
vt 0.906250 0.500000
vt 0.906250 1.000000
vt 0.875000 0.500000
vt 0.875000 1.000000
vt 0.843750 0.500000
vt 0.843750 1.000000
vt 0.812500 0.500000
vt 0.812500 1.000000
vt 0.781250 0.500000
vt 0.781250 1.000000
vt 0.750000 0.500000
vt 0.750000 1.000000
vt 0.718750 0.500000
vt 0.718750 1.000000
vt 0.687500 0.500000
vt 0.687500 1.000000
vt 0.656250 0.500000
vt 0.656250 1.000000
vt 0.625000 0.500000
vt 0.625000 1.000000
vt 0.593750 0.500000
vt 0.593750 1.000000
vt 0.562500 0.500000
vt 0.562500 1.000000
vt 0.531250 0.500000
vt 0.531250 1.000000
vt 0.500000 0.500000
vt 0.500000 1.000000
vt 0.468750 0.500000
vt 0.468750 1.000000
vt 0.437500 0.500000
vt 0.437500 1.000000
vt 0.406250 0.500000
vt 0.406250 1.000000
vt 0.375000 0.500000
vt 0.375000 1.000000
vt 0.343750 0.500000
vt 0.343750 1.000000
vt 0.312500 0.500000
vt 0.312500 1.000000
vt 0.281250 0.500000
vt 0.281250 1.000000
vt 0.250000 0.500000
vt 0.250000 1.000000
vt 0.218750 0.500000
vt 0.218750 1.000000
vt 0.187500 0.500000
vt 0.187500 1.000000
vt 0.156250 0.500000
vt 0.156250 1.000000
vt 0.125000 0.500000
vt 0.125000 1.000000
vt 0.093750 0.500000
vt 0.093750 1.000000
vt 0.062500 0.500000
vt 0.158156 0.028269
vt 0.471731 0.158156
vt 0.341844 0.471731
vt 0.062500 1.000000
vt 0.031250 0.500000
vt 0.031250 1.000000
vt 0.000000 0.500000
vt 0.796822 0.014612
vt 0.514612 0.203178
vt 0.703178 0.485388
vt 0.296822 0.485388
vt 0.250000 0.490000
vt 0.203178 0.485388
vt 0.158156 0.471731
vt 0.116663 0.449553
vt 0.080294 0.419706
vt 0.050447 0.383337
vt 0.028269 0.341844
vt 0.014612 0.296822
vt 0.010000 0.250000
vt 0.014612 0.203178
vt 0.028269 0.158156
vt 0.050447 0.116663
vt 0.080294 0.080294
vt 0.116663 0.050447
vt 0.203178 0.014612
vt 0.341844 0.028269
vt 0.250000 0.010000
vt 0.296822 0.014612
vt 0.383337 0.050447
vt 0.419706 0.080294
vt 0.449553 0.116663
vt 0.485388 0.203178
vt 0.471731 0.341844
vt 0.490000 0.250000
vt 0.485388 0.296822
vt 0.449553 0.383337
vt 0.419706 0.419706
vt 0.383337 0.449553
vt 0.000000 1.000000
vt 0.750000 0.490000
vt 0.796822 0.485388
vt 0.841844 0.471731
vt 0.883337 0.449553
vt 0.919706 0.419706
vt 0.949553 0.383337
vt 0.971731 0.341844
vt 0.985388 0.296822
vt 0.990000 0.250000
vt 0.985388 0.203178
vt 0.971731 0.158156
vt 0.949553 0.116663
vt 0.919706 0.080294
vt 0.883337 0.050447
vt 0.841844 0.028269
vt 0.750000 0.010000
vt 0.703178 0.014612
vt 0.658156 0.028269
vt 0.616663 0.050447
vt 0.580294 0.080294
vt 0.550447 0.116663
vt 0.528269 0.158156
vt 0.510000 0.250000
vt 0.514612 0.296822
vt 0.528269 0.341844
vt 0.550447 0.383337
vt 0.580294 0.419706
vt 0.616663 0.449553
vt 0.658156 0.471731
s 0
f 146/285/75 147/286/75 145/287/75
f 148/288/76 149/289/76 147/286/76
f 150/290/77 151/291/77 149/289/77
f 152/292/78 153/293/78 151/291/78
f 154/294/79 155/295/79 153/293/79
f 156/296/80 157/297/80 155/295/80
f 158/298/81 159/299/81 157/297/81
f 160/300/82 161/301/82 159/299/82
f 162/302/83 163/303/83 161/301/83
f 164/304/84 165/305/84 163/303/84
f 166/306/85 167/307/85 165/305/85
f 168/308/86 169/309/86 167/307/86
f 170/310/87 171/311/87 169/309/87
f 172/312/88 173/313/88 171/311/88
f 174/314/89 175/315/89 173/313/89
f 176/316/90 177/317/90 175/315/90
f 178/318/91 179/319/91 177/317/91
f 180/320/92 181/321/92 179/319/92
f 182/322/93 183/323/93 181/321/93
f 184/324/94 185/325/94 183/323/94
f 186/326/95 187/327/95 185/325/95
f 188/328/96 189/329/96 187/327/96
f 190/330/97 191/331/97 189/329/97
f 192/332/98 193/333/98 191/331/98
f 194/334/99 195/335/99 193/333/99
f 196/336/100 197/337/100 195/335/100
f 198/338/101 199/339/101 197/337/101
f 200/340/102 201/341/102 199/339/102
f 202/342/103 203/343/103 201/341/103
f 204/344/104 205/345/104 203/343/104
f 182/346/105 166/347/105 150/348/105
f 206/349/106 207/350/106 205/345/106
f 208/351/107 145/352/107 207/350/107
f 175/353/108 191/354/108 207/355/108
f 146/285/75 148/288/75 147/286/75
f 148/288/76 150/290/76 149/289/76
f 150/290/77 152/292/77 151/291/77
f 152/292/78 154/294/78 153/293/78
f 154/294/79 156/296/79 155/295/79
f 156/296/80 158/298/80 157/297/80
f 158/298/81 160/300/81 159/299/81
f 160/300/82 162/302/82 161/301/82
f 162/302/83 164/304/83 163/303/83
f 164/304/84 166/306/84 165/305/84
f 166/306/85 168/308/85 167/307/85
f 168/308/86 170/310/86 169/309/86
f 170/310/87 172/312/87 171/311/87
f 172/312/88 174/314/88 173/313/88
f 174/314/89 176/316/89 175/315/89
f 176/316/90 178/318/90 177/317/90
f 178/318/91 180/320/91 179/319/91
f 180/320/92 182/322/92 181/321/92
f 182/322/93 184/324/93 183/323/93
f 184/324/94 186/326/94 185/325/94
f 186/326/95 188/328/95 187/327/95
f 188/328/96 190/330/96 189/329/96
f 190/330/97 192/332/97 191/331/97
f 192/332/98 194/334/98 193/333/98
f 194/334/99 196/336/99 195/335/99
f 196/336/100 198/338/100 197/337/100
f 198/338/101 200/340/101 199/339/101
f 200/340/102 202/342/102 201/341/102
f 202/342/103 204/344/103 203/343/103
f 204/344/104 206/349/104 205/345/104
f 150/348/105 148/356/105 146/357/105
f 146/357/105 208/358/105 150/348/105
f 208/358/105 206/359/105 150/348/105
f 206/359/105 204/360/105 202/361/105
f 202/361/105 200/362/105 198/363/105
f 198/363/105 196/364/105 194/365/105
f 194/365/105 192/366/105 198/363/105
f 192/366/105 190/367/105 198/363/105
f 190/367/105 188/368/105 186/369/105
f 186/369/105 184/370/105 182/346/105
f 182/346/105 180/371/105 174/372/105
f 180/371/105 178/373/105 174/372/105
f 178/373/105 176/374/105 174/372/105
f 174/372/105 172/375/105 170/376/105
f 170/376/105 168/377/105 166/347/105
f 166/347/105 164/378/105 158/379/105
f 164/378/105 162/380/105 158/379/105
f 162/380/105 160/381/105 158/379/105
f 158/379/105 156/382/105 154/383/105
f 154/383/105 152/384/105 150/348/105
f 206/359/105 202/361/105 150/348/105
f 202/361/105 198/363/105 150/348/105
f 190/367/105 186/369/105 198/363/105
f 186/369/105 182/346/105 198/363/105
f 174/372/105 170/376/105 182/346/105
f 170/376/105 166/347/105 182/346/105
f 158/379/105 154/383/105 166/347/105
f 154/383/105 150/348/105 166/347/105
f 150/348/105 198/363/105 182/346/105
f 206/349/106 208/351/106 207/350/106
f 208/351/107 146/385/107 145/352/107
f 207/355/108 145/386/108 147/387/108
f 147/387/108 149/388/108 151/389/108
f 151/389/108 153/390/108 155/391/108
f 155/391/108 157/392/108 159/393/108
f 159/393/108 161/394/108 163/395/108
f 163/395/108 165/396/108 167/397/108
f 167/397/108 169/398/108 171/399/108
f 171/399/108 173/400/108 175/353/108
f 175/353/108 177/401/108 179/402/108
f 179/402/108 181/403/108 183/404/108
f 183/404/108 185/405/108 187/406/108
f 187/406/108 189/407/108 191/354/108
f 191/354/108 193/408/108 195/409/108
f 195/409/108 197/410/108 199/411/108
f 199/411/108 201/412/108 203/413/108
f 203/413/108 205/414/108 207/355/108
f 207/355/108 147/387/108 159/393/108
f 147/387/108 151/389/108 159/393/108
f 151/389/108 155/391/108 159/393/108
f 159/393/108 163/395/108 175/353/108
f 163/395/108 167/397/108 175/353/108
f 167/397/108 171/399/108 175/353/108
f 175/353/108 179/402/108 191/354/108
f 179/402/108 183/404/108 191/354/108
f 183/404/108 187/406/108 191/354/108
f 191/354/108 195/409/108 207/355/108
f 195/409/108 199/411/108 207/355/108
f 199/411/108 203/413/108 207/355/108
f 207/355/108 159/393/108 175/353/108
o Cylinder.004
v 0.500000 6.050000 -0.750000
v 0.500000 6.450000 -0.750000
v 0.548773 6.050000 -0.745196
v 0.548773 6.450000 -0.745196
v 0.595671 6.050000 -0.730970
v 0.595671 6.450000 -0.730970
v 0.638893 6.050000 -0.707867
v 0.638893 6.450000 -0.707867
v 0.676777 6.050000 -0.676777
v 0.676777 6.450000 -0.676777
v 0.707867 6.050000 -0.638893
v 0.707867 6.450000 -0.638893
v 0.730970 6.050000 -0.595671
v 0.730970 6.450000 -0.595671
v 0.745196 6.050000 -0.548773
v 0.745196 6.450000 -0.548773
v 0.750000 6.050000 -0.500000
v 0.750000 6.450000 -0.500000
v 0.745196 6.050000 -0.451227
v 0.745196 6.450000 -0.451227
v 0.730970 6.050000 -0.404329
v 0.730970 6.450000 -0.404329
v 0.707867 6.050000 -0.361107
v 0.707867 6.450000 -0.361107
v 0.676777 6.050000 -0.323223
v 0.676777 6.450000 -0.323223
v 0.638893 6.050000 -0.292133
v 0.638893 6.450000 -0.292133
v 0.595671 6.050000 -0.269030
v 0.595671 6.450000 -0.269030
v 0.548773 6.050000 -0.254804
v 0.548773 6.450000 -0.254804
v 0.500000 6.050000 -0.250000
v 0.500000 6.450000 -0.250000
v 0.451227 6.050000 -0.254804
v 0.451227 6.450000 -0.254804
v 0.404329 6.050000 -0.269030
v 0.404329 6.450000 -0.269030
v 0.361107 6.050000 -0.292133
v 0.361107 6.450000 -0.292133
v 0.323223 6.050000 -0.323223
v 0.323223 6.450000 -0.323223
v 0.292133 6.050000 -0.361107
v 0.292133 6.450000 -0.361107
v 0.269030 6.050000 -0.404329
v 0.269030 6.450000 -0.404329
v 0.254804 6.050000 -0.451227
v 0.254804 6.450000 -0.451227
v 0.250000 6.050000 -0.500000
v 0.250000 6.450000 -0.500000
v 0.254804 6.050000 -0.548773
v 0.254804 6.450000 -0.548773
v 0.269030 6.050000 -0.595671
v 0.269030 6.450000 -0.595671
v 0.292133 6.050000 -0.638893
v 0.292133 6.450000 -0.638893
v 0.323223 6.050000 -0.676777
v 0.323223 6.450000 -0.676777
v 0.361107 6.050000 -0.707867
v 0.361107 6.450000 -0.707867
v 0.404329 6.050000 -0.730970
v 0.404329 6.450000 -0.730970
v 0.451227 6.050000 -0.745196
v 0.451227 6.450000 -0.745196
vn 0.0980 -0.0000 -0.9952
vn 0.2903 -0.0000 -0.9569
vn 0.4714 -0.0000 -0.8819
vn 0.6344 -0.0000 -0.7730
vn 0.7730 -0.0000 -0.6344
vn 0.8819 -0.0000 -0.4714
vn 0.9569 -0.0000 -0.2903
vn 0.9952 -0.0000 -0.0980
vn 0.9952 -0.0000 0.0980
vn 0.9569 -0.0000 0.2903
vn 0.8819 -0.0000 0.4714
vn 0.7730 -0.0000 0.6344
vn 0.6344 -0.0000 0.7730
vn 0.4714 -0.0000 0.8819
vn 0.2903 -0.0000 0.9569
vn 0.0980 -0.0000 0.9952
vn -0.0980 -0.0000 0.9952
vn -0.2903 -0.0000 0.9569
vn -0.4714 -0.0000 0.8819
vn -0.6344 -0.0000 0.7730
vn -0.7730 -0.0000 0.6344
vn -0.8819 -0.0000 0.4714
vn -0.9569 -0.0000 0.2903
vn -0.9952 -0.0000 0.0980
vn -0.9952 -0.0000 -0.0980
vn -0.9569 -0.0000 -0.2903
vn -0.8819 -0.0000 -0.4714
vn -0.7730 -0.0000 -0.6344
vn -0.6344 -0.0000 -0.7730
vn -0.4714 -0.0000 -0.8819
vn -0.0000 1.0000 -0.0000
vn -0.2903 -0.0000 -0.9569
vn -0.0980 -0.0000 -0.9952
vn -0.0000 -1.0000 -0.0000
vt 1.000000 1.000000
vt 0.968750 0.500000
vt 1.000000 0.500000
vt 0.968750 1.000000
vt 0.937500 0.500000
vt 0.937500 1.000000
vt 0.906250 0.500000
vt 0.906250 1.000000
vt 0.875000 0.500000
vt 0.875000 1.000000
vt 0.843750 0.500000
vt 0.843750 1.000000
vt 0.812500 0.500000
vt 0.812500 1.000000
vt 0.781250 0.500000
vt 0.781250 1.000000
vt 0.750000 0.500000
vt 0.750000 1.000000
vt 0.718750 0.500000
vt 0.718750 1.000000
vt 0.687500 0.500000
vt 0.687500 1.000000
vt 0.656250 0.500000
vt 0.656250 1.000000
vt 0.625000 0.500000
vt 0.625000 1.000000
vt 0.593750 0.500000
vt 0.593750 1.000000
vt 0.562500 0.500000
vt 0.562500 1.000000
vt 0.531250 0.500000
vt 0.531250 1.000000
vt 0.500000 0.500000
vt 0.500000 1.000000
vt 0.468750 0.500000
vt 0.468750 1.000000
vt 0.437500 0.500000
vt 0.437500 1.000000
vt 0.406250 0.500000
vt 0.406250 1.000000
vt 0.375000 0.500000
vt 0.375000 1.000000
vt 0.343750 0.500000
vt 0.343750 1.000000
vt 0.312500 0.500000
vt 0.312500 1.000000
vt 0.281250 0.500000
vt 0.281250 1.000000
vt 0.250000 0.500000
vt 0.250000 1.000000
vt 0.218750 0.500000
vt 0.218750 1.000000
vt 0.187500 0.500000
vt 0.187500 1.000000
vt 0.156250 0.500000
vt 0.156250 1.000000
vt 0.125000 0.500000
vt 0.125000 1.000000
vt 0.093750 0.500000
vt 0.093750 1.000000
vt 0.062500 0.500000
vt 0.158156 0.028269
vt 0.471731 0.158156
vt 0.341844 0.471731
vt 0.062500 1.000000
vt 0.031250 0.500000
vt 0.031250 1.000000
vt 0.000000 0.500000
vt 0.796822 0.014612
vt 0.514612 0.203178
vt 0.703178 0.485388
vt 0.296822 0.485388
vt 0.250000 0.490000
vt 0.203178 0.485388
vt 0.158156 0.471731
vt 0.116663 0.449553
vt 0.080294 0.419706
vt 0.050447 0.383337
vt 0.028269 0.341844
vt 0.014612 0.296822
vt 0.010000 0.250000
vt 0.014612 0.203178
vt 0.028269 0.158156
vt 0.050447 0.116663
vt 0.080294 0.080294
vt 0.116663 0.050447
vt 0.203178 0.014612
vt 0.341844 0.028269
vt 0.250000 0.010000
vt 0.296822 0.014612
vt 0.383337 0.050447
vt 0.419706 0.080294
vt 0.449553 0.116663
vt 0.485388 0.203178
vt 0.471731 0.341844
vt 0.490000 0.250000
vt 0.485388 0.296822
vt 0.449553 0.383337
vt 0.419706 0.419706
vt 0.383337 0.449553
vt 0.000000 1.000000
vt 0.750000 0.490000
vt 0.796822 0.485388
vt 0.841844 0.471731
vt 0.883337 0.449553
vt 0.919706 0.419706
vt 0.949553 0.383337
vt 0.971731 0.341844
vt 0.985388 0.296822
vt 0.990000 0.250000
vt 0.985388 0.203178
vt 0.971731 0.158156
vt 0.949553 0.116663
vt 0.919706 0.080294
vt 0.883337 0.050447
vt 0.841844 0.028269
vt 0.750000 0.010000
vt 0.703178 0.014612
vt 0.658156 0.028269
vt 0.616663 0.050447
vt 0.580294 0.080294
vt 0.550447 0.116663
vt 0.528269 0.158156
vt 0.510000 0.250000
vt 0.514612 0.296822
vt 0.528269 0.341844
vt 0.550447 0.383337
vt 0.580294 0.419706
vt 0.616663 0.449553
vt 0.658156 0.471731
s 0
f 210/415/109 211/416/109 209/417/109
f 212/418/110 213/419/110 211/416/110
f 214/420/111 215/421/111 213/419/111
f 216/422/112 217/423/112 215/421/112
f 218/424/113 219/425/113 217/423/113
f 220/426/114 221/427/114 219/425/114
f 222/428/115 223/429/115 221/427/115
f 224/430/116 225/431/116 223/429/116
f 226/432/117 227/433/117 225/431/117
f 228/434/118 229/435/118 227/433/118
f 230/436/119 231/437/119 229/435/119
f 232/438/120 233/439/120 231/437/120
f 234/440/121 235/441/121 233/439/121
f 236/442/122 237/443/122 235/441/122
f 238/444/123 239/445/123 237/443/123
f 240/446/124 241/447/124 239/445/124
f 242/448/125 243/449/125 241/447/125
f 244/450/126 245/451/126 243/449/126
f 246/452/127 247/453/127 245/451/127
f 248/454/128 249/455/128 247/453/128
f 250/456/129 251/457/129 249/455/129
f 252/458/130 253/459/130 251/457/130
f 254/460/131 255/461/131 253/459/131
f 256/462/132 257/463/132 255/461/132
f 258/464/133 259/465/133 257/463/133
f 260/466/134 261/467/134 259/465/134
f 262/468/135 263/469/135 261/467/135
f 264/470/136 265/471/136 263/469/136
f 266/472/137 267/473/137 265/471/137
f 268/474/138 269/475/138 267/473/138
f 246/476/139 230/477/139 214/478/139
f 270/479/140 271/480/140 269/475/140
f 272/481/141 209/482/141 271/480/141
f 239/483/142 255/484/142 271/485/142
f 210/415/109 212/418/109 211/416/109
f 212/418/110 214/420/110 213/419/110
f 214/420/111 216/422/111 215/421/111
f 216/422/112 218/424/112 217/423/112
f 218/424/113 220/426/113 219/425/113
f 220/426/114 222/428/114 221/427/114
f 222/428/115 224/430/115 223/429/115
f 224/430/116 226/432/116 225/431/116
f 226/432/117 228/434/117 227/433/117
f 228/434/118 230/436/118 229/435/118
f 230/436/119 232/438/119 231/437/119
f 232/438/120 234/440/120 233/439/120
f 234/440/121 236/442/121 235/441/121
f 236/442/122 238/444/122 237/443/122
f 238/444/123 240/446/123 239/445/123
f 240/446/124 242/448/124 241/447/124
f 242/448/125 244/450/125 243/449/125
f 244/450/126 246/452/126 245/451/126
f 246/452/127 248/454/127 247/453/127
f 248/454/128 250/456/128 249/455/128
f 250/456/129 252/458/129 251/457/129
f 252/458/130 254/460/130 253/459/130
f 254/460/131 256/462/131 255/461/131
f 256/462/132 258/464/132 257/463/132
f 258/464/133 260/466/133 259/465/133
f 260/466/134 262/468/134 261/467/134
f 262/468/135 264/470/135 263/469/135
f 264/470/136 266/472/136 265/471/136
f 266/472/137 268/474/137 267/473/137
f 268/474/138 270/479/138 269/475/138
f 214/478/139 212/486/139 210/487/139
f 210/487/139 272/488/139 214/478/139
f 272/488/139 270/489/139 214/478/139
f 270/489/139 268/490/139 266/491/139
f 266/491/139 264/492/139 262/493/139
f 262/493/139 260/494/139 258/495/139
f 258/495/139 256/496/139 262/493/139
f 256/496/139 254/497/139 262/493/139
f 254/497/139 252/498/139 250/499/139
f 250/499/139 248/500/139 246/476/139
f 246/476/139 244/501/139 238/502/139
f 244/501/139 242/503/139 238/502/139
f 242/503/139 240/504/139 238/502/139
f 238/502/139 236/505/139 234/506/139
f 234/506/139 232/507/139 230/477/139
f 230/477/139 228/508/139 222/509/139
f 228/508/139 226/510/139 222/509/139
f 226/510/139 224/511/139 222/509/139
f 222/509/139 220/512/139 218/513/139
f 218/513/139 216/514/139 214/478/139
f 270/489/139 266/491/139 214/478/139
f 266/491/139 262/493/139 214/478/139
f 254/497/139 250/499/139 262/493/139
f 250/499/139 246/476/139 262/493/139
f 238/502/139 234/506/139 246/476/139
f 234/506/139 230/477/139 246/476/139
f 222/509/139 218/513/139 230/477/139
f 218/513/139 214/478/139 230/477/139
f 214/478/139 262/493/139 246/476/139
f 270/479/140 272/481/140 271/480/140
f 272/481/141 210/515/141 209/482/141
f 271/485/142 209/516/142 211/517/142
f 211/517/142 213/518/142 215/519/142
f 215/519/142 217/520/142 219/521/142
f 219/521/142 221/522/142 223/523/142
f 223/523/142 225/524/142 227/525/142
f 227/525/142 229/526/142 231/527/142
f 231/527/142 233/528/142 235/529/142
f 235/529/142 237/530/142 239/483/142
f 239/483/142 241/531/142 243/532/142
f 243/532/142 245/533/142 247/534/142
f 247/534/142 249/535/142 251/536/142
f 251/536/142 253/537/142 255/484/142
f 255/484/142 257/538/142 259/539/142
f 259/539/142 261/540/142 263/541/142
f 263/541/142 265/542/142 267/543/142
f 267/543/142 269/544/142 271/485/142
f 271/485/142 211/517/142 223/523/142
f 211/517/142 215/519/142 223/523/142
f 215/519/142 219/521/142 223/523/142
f 223/523/142 227/525/142 239/483/142
f 227/525/142 231/527/142 239/483/142
f 231/527/142 235/529/142 239/483/142
f 239/483/142 243/532/142 255/484/142
f 243/532/142 247/534/142 255/484/142
f 247/534/142 251/536/142 255/484/142
f 255/484/142 259/539/142 271/485/142
f 259/539/142 263/541/142 271/485/142
f 263/541/142 267/543/142 271/485/142
f 271/485/142 223/523/142 239/483/142
